<?xml version="1.0" encoding="UTF-8"?>
<svg width="677px" height="640px" viewBox="0 0 677 640" version="1.1" xmlns="http://www.w3.org/2000/svg" xmlns:xlink="http://www.w3.org/1999/xlink">
    <!-- Generator: Sketch 50.2 (55047) - http://www.bohemiancoding.com/sketch -->
    <title>thought-flow-left</title>
    <desc>Created with Sketch.</desc>
    <defs>
        <polygon id="path-1" points="0 0.324505944 27.4104415 0.324505944 27.4104415 4.00487124 0 4.00487124"></polygon>
    </defs>
    <g id="Page-1" stroke="none" stroke-width="1" fill="none" fill-rule="evenodd">
        <g id="01-Jobs-Copy" transform="translate(0.000000, -1668.000000)">
            <g id="03-Who-we-are" transform="translate(-595.000000, 1549.000000)">
                <g id="thought-flow-left" transform="translate(636.500000, 440.000000) scale(-1, 1) translate(-636.500000, -440.000000) translate(0.000000, 38.000000)">
                    <g id="Group-9" transform="translate(1.000000, 313.000000)" fill="#10D1F1">
                        <path d="M1271.48757,116.30278 L1232.28401,116.299093 C1081.18079,116.288034 924.937656,116.276975 771.363125,113.172992 C713.936219,112.015449 655.611125,110.378669 599.212202,108.7935 C506.055076,106.179814 409.725737,103.477653 314.777427,102.839898 C297.62879,102.725619 206.403027,102.364347 131.188888,102.128415 C75.5479739,102.460195 34.5688065,102.493373 27.3158106,101.958839 C27.1652473,101.962525 27.0614106,101.966212 27.0043004,101.969898 L26.9991086,101.93672 C26.5318433,101.892483 26.2618678,101.848246 26.1943739,101.800322 L25.8932473,101.593881 L25.8828637,101.000364 L26.1736065,100.793924 C26.2099494,100.771805 26.5578024,100.746 27.1912065,100.723881 L27.2275494,100.664898 C27.3158106,100.679644 27.4559902,100.698076 27.6428963,100.712822 C36.2094269,100.480576 81.0928555,100.539559 132.912578,100.698076 C269.847272,99.8981186 494.830325,97.6604492 527.123549,96.8936695 C570.698635,95.8651525 614.94866,94.6707458 657.750162,93.5132034 C765.896121,90.5935424 877.723092,87.5743475 988.002896,86.9476525 C1086.93854,86.3873136 1186.82428,86.2914661 1271.48757,86.2730339 L1271.48757,87.6591356 C1186.82948,87.6775678 1086.94892,87.7734153 988.018472,88.3337542 C877.769819,88.9567627 765.953231,91.9759576 657.822847,94.8956186 C615.026537,96.053161 570.766129,97.2512542 527.191043,98.2797712 C524.600317,98.3387542 385.645998,99.9829068 254.764986,101.169941 C289.321851,101.324771 313.962309,101.45011 314.798194,101.453797 C409.772464,102.091551 506.12257,104.793712 599.29008,107.411085 C655.689002,108.992568 714.003713,110.629347 771.420235,111.790576 C924.963615,114.890873 1081.19637,114.901932 1232.28401,114.912992 L1271.48757,114.920364 L1271.48757,116.30278 Z" id="Fill-1"></path>
                        <path d="M1270.20518,144.922831 L1234.90069,144.915458 C1082.40087,144.904398 924.704023,144.889653 770.537623,135.562958 C727.730929,132.97139 684.659451,128.396517 643.010537,123.972788 C614.766945,120.975712 585.562864,117.871729 556.696251,115.416559 C481.087533,108.98372 405.650145,106.43639 315.649656,104.589483 C299.170766,104.250331 205.047958,103.137025 128.70719,102.425542 C70.39248,103.420881 28.7643331,103.524102 26.2774433,101.9205 L25.9555494,101.717746 L25.8620963,100.995203 L26.1632229,100.785076 C26.9575739,100.23211 71.981182,100.493847 126.287794,101.002576 C262.417753,98.6985508 494.389019,91.790161 526.526488,89.5045678 C562.568219,86.9424915 598.968186,83.0127458 634.163647,79.208339 C668.170178,75.5366441 703.324104,71.7396102 738.150945,69.1775339 C823.229574,62.9105847 909.595778,61.0083814 983.875386,59.7181271 C1084.87219,57.9633814 1185.29269,57.6905847 1270.20518,57.6537203 L1270.20518,59.039822 C1185.30308,59.073 1084.90334,59.3494831 983.922113,61.1042288 C909.684039,62.3944831 823.35937,64.293 738.353427,70.5562627 C703.573313,73.1146525 668.440153,76.908 634.459582,80.5796949 C599.238162,84.3841017 562.812235,88.3175339 526.718586,90.8832966 C506.818276,92.2988898 315.852137,98.5031695 175.682929,101.507619 C245.746766,102.270712 314.315353,103.177576 315.701574,103.203381 C405.759174,105.053975 481.24848,107.601305 556.929884,114.041517 C585.822456,116.500373 615.042113,119.604356 643.296088,122.601432 C684.919043,127.025161 727.954178,131.596347 770.708953,134.180542 C924.787092,143.503551 1082.43721,143.518297 1234.90069,143.533042 L1270.20518,143.540415 L1270.20518,144.922831 Z" id="Fill-3"></path>
                        <path d="M1267.64976,173.503805 C1173.57368,173.407958 1072.40555,172.87711 970.017336,169.710458 C876.605809,166.816602 798.577695,162.754144 721.411425,152.354695 C690.442119,148.177958 659.452046,142.589314 629.479572,137.184992 C592.607148,130.542025 554.488682,123.663127 516.15216,119.379483 C360.417825,101.975797 198.790756,101.986856 42.3555233,101.990542 C28.4206335,101.997915 14.4909355,101.994229 0.587196735,101.983169 L0.587196735,100.597068 C89.5025927,100.504907 194.27905,99.8007966 297.212405,95.2885932 C377.935082,91.7496102 463.792487,86.3637203 544.738413,71.0613051 C575.764829,65.1998644 606.433009,57.4214746 636.08878,49.9011356 C672.706805,40.618678 710.565678,31.0155 749.457727,24.9181271 C904.221189,0.661347458 1067.79,0.62079661 1225.96969,0.580245763 C1238.61701,0.580245763 1251.23317,0.576559322 1263.81818,0.558127119 L1263.81818,1.94422881 C1251.23836,1.95897458 1238.61701,1.96266102 1225.96969,1.96634746 C1067.89384,2.00689831 904.439246,2.04744915 749.878266,26.2747373 C711.110821,32.3499915 673.303866,41.9347373 636.748144,51.2061356 C607.050838,58.7338475 576.346315,66.5196102 545.242021,72.4031695 C464.129956,87.7313898 378.158331,93.128339 297.331817,96.6710085 C249.22945,98.7796525 200.732503,100.058847 153.63216,100.829314 C274.66945,101.562915 397.285058,104.69639 516.458478,118.011814 C554.87807,122.306517 593.043262,129.189102 629.957221,135.843127 C659.898544,141.243763 690.86785,146.82872 721.774854,150.994398 C798.826903,161.379102 876.771948,165.434186 970.105597,168.328042 C1072.45227,171.491008 1173.59964,172.021856 1267.64976,172.12139 L1267.64976,173.503805 Z" id="Fill-5"></path>
                        <path d="M22.7371298,101.985381 L0.588754286,101.981695 L0.588754286,100.595593 C89.5664522,100.521864 194.498664,100.013136 298.127726,96.8022458 C391.440607,93.9120763 469.375269,89.8569915 546.46366,79.4722881 C577.391432,75.3029237 608.371122,69.7179661 638.32802,64.3136441 C675.226403,57.6633051 713.37602,50.7807203 751.785228,46.4897034 C907.581864,29.0749576 1069.31277,29.1191949 1225.61302,29.0823305 C1239.65174,29.0786441 1253.65932,29.0860169 1267.65132,29.0712712 L1267.65132,30.4573729 C1253.65932,30.4684322 1239.65174,30.4647458 1225.61302,30.4684322 L1217.15551,30.4684322 C1063.50311,30.4684322 904.928836,30.7707203 752.086354,47.8573729 C713.770599,52.1410169 675.662518,59.0125424 638.81086,65.6591949 C608.822811,71.0635169 577.811971,76.6558475 546.827089,80.8325847 C469.629669,91.2320339 391.606746,95.2908051 298.215987,98.184661 C204.565636,101.08589 109.876918,101.782627 26.8438727,101.944831 L26.8438727,101.981695 C26.7711869,101.981695 26.1948931,101.981695 25.2395951,101.981695 C24.5854237,101.985381 23.7651135,101.985381 22.7371298,101.985381" id="Fill-7"></path>
                    </g>
                    <g id="Group-61">
                        <path d="M1271.45255,437.370277 C1186.86306,437.337154 1086.69512,437.086889 985.069457,435.474889 C910.912293,434.297172 824.642014,432.56004 739.331447,426.789227 C704.563954,424.433793 669.422952,420.944807 635.433603,417.569912 C600.188848,414.066204 563.735375,410.448405 527.676162,408.096652 C442.666477,402.550341 357.096528,400.872095 283.567068,399.727501 C245.847813,399.142323 204.741037,398.704359 157.891555,398.387848 C137.390043,398.247994 116.416457,398.141263 95.5414355,398.067656 C85.4463084,398.030853 75.3511814,398.00509 65.2508667,397.979327 C63.0772499,398.060295 60.3226187,398.233273 57.2671049,398.420971 C45.9010086,399.120241 31.7543429,399.999848 27.4849238,397.835793 C27.2307299,397.70698 27.1632907,397.456716 27.3344825,397.269017 C27.5056743,397.084999 27.8636207,397.033474 28.1281898,397.143884 C32.299044,398.921501 42.1918535,398.20751 50.1444895,397.637053 C53.708391,397.379428 57.0751626,397.136524 59.5704124,397.136524 C61.4172085,397.09972 63.3314438,397.147565 65.2145533,397.151245 C66.0964503,397.118122 66.9109081,397.121802 67.5541742,397.09972 L101.626525,397.125483 C125.001984,397.151245 148.387817,397.188049 171.768464,397.235894 C225.009105,397.346305 271.931215,397.50456 315.216795,397.729063 C409.699092,398.222232 505.639112,400.268515 598.419866,402.248551 C655.426727,403.466752 714.378949,404.721757 772.397398,405.608725 C925.022646,407.934716 1080.26765,407.949437 1230.40283,407.960478 L1270.17639,407.967839 C1270.49802,407.967839 1270.7574,408.155537 1270.7574,408.38372 C1270.7574,408.611903 1270.49802,408.795921 1270.17639,408.795921 L1230.40283,408.792241 C1080.26246,408.777519 925.01227,408.762798 772.371459,406.436807 C714.347823,405.553519 655.395601,404.294834 598.383553,403.080314 C505.607986,401.100277 409.678341,399.050314 315.20642,398.560825 C289.25271,398.424652 261.986529,398.314241 232.837238,398.222232 C250.506305,398.420971 267.366101,398.649154 283.593006,398.899419 C357.143217,400.040332 442.733917,401.722259 527.779915,407.268569 C563.870254,409.624003 600.334102,413.245483 635.599607,416.74551 C669.573393,420.120405 704.70402,423.613072 739.445575,425.961145 C824.714641,431.731958 910.953794,433.46909 985.095396,434.646807 C1086.71068,436.255126 1186.87343,436.509072 1271.45255,436.538515 C1271.77418,436.538515 1272.03356,436.726213 1272.03356,436.958076 C1272.03356,437.186259 1271.77418,437.370277 1271.45255,437.370277" id="Fill-10" fill="#81BCA4"></path>
                        <path d="M36.9736169,430.54872 C34.6754971,430.54872 32.5796947,430.65177 30.8833399,430.931478 C36.0450312,430.931478 41.1704092,430.927798 46.2750367,430.927798 C43.1261455,430.718017 39.8890647,430.54872 36.9736169,430.54872 M27.8226385,431.75588 C27.5684446,431.75588 27.3401889,431.638108 27.2623745,431.461451 C27.1897476,431.288474 27.283125,431.097095 27.5010054,430.997725 C31.6562967,429.03241 41.6321082,429.750081 50.4355155,430.383104 C53.9838541,430.637049 57.2883741,430.902035 59.6487456,430.876273 C71.6114193,430.85051 83.5792806,430.813706 95.5419542,430.773222 C115.363887,430.699615 136.34266,430.592884 157.892073,430.456711 C202.230743,430.165962 243.337519,429.724318 283.567586,429.106017 C374.558608,427.711158 450.889389,425.749524 527.671494,420.740547 C563.735894,418.385113 600.184179,414.770994 635.439309,411.270967 C669.42347,407.896072 704.564473,404.407085 739.331966,402.055332 C824.616595,396.280839 910.892062,394.543706 985.069976,393.36599 C1087.02246,391.75399 1187.05033,391.503725 1271.45306,391.474282 C1271.7747,391.474282 1272.03408,391.6583 1272.03408,391.886483 C1272.03408,392.118346 1271.7747,392.298684 1271.45306,392.298684 C1187.05552,392.331807 1087.03802,392.585752 985.095914,394.194072 C910.93875,395.371789 824.684034,397.112601 739.446094,402.879734 C704.699351,405.231487 669.573912,408.716793 635.600126,412.091688 C600.33462,415.595396 563.870772,419.213195 527.780434,421.568629 C450.962016,426.581286 374.605297,428.53556 283.593524,429.934099 C266.853044,430.191725 249.951747,430.419907 232.734005,430.618647 C261.001398,430.522958 288.443958,430.408866 315.206939,430.276373 C410.156122,429.794245 506.573404,427.733241 599.821045,425.738483 C656.361019,424.531323 714.825604,423.283679 772.371978,422.400391 C924.115329,420.06704 1078.4525,420.055999 1227.71097,420.048638 L1270.17691,420.044958 C1270.49854,420.044958 1270.75792,420.228976 1270.75792,420.460839 C1270.75792,420.689021 1270.49854,420.87304 1270.17691,420.87304 L1227.71097,420.8804 C1078.45768,420.887761 924.125705,420.898802 772.397916,423.228474 C714.85673,424.111761 656.392145,425.363085 599.857358,426.570245 C506.60453,428.561323 410.176872,430.626008 315.217314,431.100775 C228.314144,431.546099 134.30911,431.75588 27.8226385,431.75588" id="Fill-12" fill="#81BCA4"></path>
                        <g id="Group-16" transform="translate(0.000000, 430.602740)" fill="#D1AFFF">
                            <path d="M1263.79249,47.2659091 C1250.81823,47.2585484 1237.84397,47.2585484 1224.86452,47.2622288 C1071.2225,47.2438269 912.37728,47.2806306 757.386473,36.5634069 C717.265346,33.7884114 676.895213,29.1180279 637.858301,24.6059 C605.534181,20.8666489 572.110284,16.9985849 539.00802,14.2309502 C454.563787,7.16464887 368.407636,5.0079548 294.286785,3.53212832 C192.157923,1.5079274 89.012285,1.19509635 1.58516461,1.1582927 C1.25834395,1.1582927 0.998962474,0.974274437 0.998962474,0.742411423 C0.998962474,0.514228775 1.26353158,0.33021051 1.58516461,0.33021051 L42.2302419,0.33021051 C194.705049,0.333890875 352.372673,0.33757124 507.270103,4.37493197 C562.108535,5.79923334 617.761424,7.67990001 671.577893,9.49800046 C770.583802,12.8397722 872.961671,16.2993155 974.016694,17.0648315 C1076.56057,17.8377082 1179.98115,17.9591603 1267.62096,17.9775621 C1267.94778,17.9775621 1268.20716,18.1615804 1268.20716,18.389763 C1268.20716,18.621626 1267.94778,18.8056443 1267.62096,18.8056443 C1179.97596,18.7909228 1076.55019,18.6657904 974.006319,17.8929137 C872.925358,17.1310781 770.537114,13.6715347 671.526017,10.3260827 C617.709548,8.5079822 562.061846,6.62731553 507.228602,5.1993338 C407.231855,2.59363517 306.078267,1.66986348 205.910329,1.34231097 C235.194497,1.67722421 264.800299,2.11886804 294.317911,2.70772649 C368.469887,4.17619224 454.651977,6.34024704 539.148086,13.4065484 C572.276288,16.1778635 605.710561,20.0459274 638.045056,23.7851785 C677.066405,28.3009868 717.415787,32.9640096 757.495413,35.7353247 C908.180488,46.1544388 1062.55397,46.4341466 1212.21189,46.4341466 C1220.77148,46.4341466 1229.29994,46.4267859 1237.84397,46.4304662 C1246.49693,46.4304662 1255.14471,46.4341466 1263.79249,46.4378269 C1264.11412,46.4378269 1264.37351,46.6218452 1264.37351,46.8537082 C1264.37351,47.0818909 1264.11412,47.2659091 1263.79249,47.2659091" id="Fill-14"></path>
                        </g>
                        <g id="Group-19" transform="translate(0.000000, 379.077626)" fill="#D1AFFF">
                            <path d="M27.8091506,18.8365594 C27.6950228,18.8365594 25.6770349,18.832879 22.8030881,18.832879 C20.8732899,18.8365594 18.253537,18.832879 14.7051984,18.832879 L1.58568337,18.8255183 L1.58049574,18.8255183 L1.57530811,18.8255183 L1.57012048,18.8255183 L1.56493286,18.8255183 L1.55974523,18.8255183 C1.35224004,18.8218379 1.17586064,18.7371895 1.07729568,18.6157375 C1.07729568,18.6157375 1.07729568,18.6120571 1.07210805,18.6120571 C1.07210805,18.6120571 1.07210805,18.6083767 1.07210805,18.6083767 C1.02541938,18.5494909 1.00466887,18.4869247 0.999481237,18.4169977 L0.999481237,18.4133174 L0.999481237,18.409637 L0.999481237,18.4059566 L0.999481237,18.4022763 C1.00466887,18.2624224 1.10323383,18.1409703 1.25886271,18.067363 L1.26405034,18.0636827 L1.26923797,18.0636827 C1.35742767,18.0195183 1.46636789,17.9937557 1.58568337,17.9937557 C94.330124,17.9753539 194.08824,17.8502215 295.184764,17.0883859 C396.369478,16.3228699 498.882225,12.8559658 598.017825,9.50683334 C651.70979,7.69241325 707.227802,5.81174658 761.936543,4.38376485 C916.273709,0.357445213 1073.38626,0.357445213 1225.3008,0.357445213 L1267.62148,0.353764848 C1267.9483,0.353764848 1268.2025,0.537783113 1268.2025,0.769646126 C1268.2025,0.997828775 1267.9483,1.1855274 1267.62148,1.1855274 L1225.3008,1.1855274 C1073.43813,1.17080594 916.294459,1.1855274 761.972856,5.2155274 C707.279678,6.64350914 651.761667,8.52049544 598.074889,10.3349155 C498.928913,13.6877283 396.405791,17.1509521 295.189952,17.916468 C203.560851,18.6083767 113.015966,18.7739932 27.8091506,18.8181575 L27.8091506,18.8365594 Z" id="Fill-17"></path>
                        </g>
                        <g id="Group-22" transform="translate(0.000000, 322.398654)" fill="#D1AFFF">
                            <path d="M1.58516461,75.5044895 C1.26353158,75.5044895 0.998962474,75.3204712 0.998962474,75.0886082 C0.998962474,74.8604256 1.26353158,74.6727269 1.58516461,74.6727269 C94.8379929,74.5954393 195.14081,74.0617863 296.802786,70.723695 C371.722531,68.265211 458.724266,64.6363708 543.235938,52.6825443 C573.95708,48.3397132 604.673035,42.5247361 634.377401,36.8974575 C670.955377,29.9746904 708.778384,22.8163799 746.933399,18.333695 C897.722227,0.6311379 1054.43533,0.215256621 1206.36025,0.215256621 C1213.85118,0.211576256 1221.33693,0.215256621 1228.83306,0.215256621 C1238.79849,0.215256621 1248.75355,0.215256621 1258.69305,0.20789589 C1259.01468,0.20789589 1259.27407,0.391914155 1259.27407,0.620096804 C1259.27407,0.848279452 1259.01468,1.03597808 1258.69305,1.03597808 C1245.01327,1.04701918 1231.29718,1.04701918 1217.5759,1.04701918 L1206.36025,1.04701918 C1054.47164,1.04701918 897.831167,1.45922009 747.125342,19.1544164 C709.02739,23.6260603 671.230322,30.7806904 634.683472,37.6997772 C604.958354,43.3270557 574.216462,49.1457132 543.464194,53.495905 C458.869519,65.4607726 371.815908,69.0896128 296.859849,71.5554575 C254.342038,72.950316 212.073233,73.8556858 170.447693,74.4408639 C282.67687,73.8446447 396.280769,71.6916311 507.877056,63.9775854 C548.008558,61.2062703 588.409816,56.5322064 627.472667,52.0163982 C659.76566,48.2845078 693.148056,44.4201242 726.22957,41.6488091 C810.959123,34.5530648 897.027084,32.4000511 971.054558,30.9426265 C1074.2417,28.9110648 1176.9412,28.6019142 1263.79249,28.5687909 C1264.11931,28.5687909 1264.37351,28.7528091 1264.37351,28.9846721 C1264.37351,29.2128548 1264.11931,29.4005534 1263.79249,29.4005534 C1176.94639,29.4299963 1074.25726,29.739147 971.085683,31.774389 C897.089336,33.2318137 811.047313,35.3774667 726.364448,42.473211 C693.308873,45.2408457 659.936852,49.1015489 627.664609,52.8334393 C588.57582,57.3529279 548.158999,62.0269918 507.991183,64.8056676 C352.984813,75.5155306 194.015094,75.5081699 40.4820108,75.5008091 C27.5077493,75.4934484 14.5438632,75.4971288 1.58516461,75.5044895" id="Fill-20"></path>
                        </g>
                        <g id="Group-25" transform="translate(0.000000, 430.602740)" fill="#D1AFFF">
                            <path d="M1252.32316,103.858518 C1240.29305,103.847477 1228.22143,103.847477 1216.12388,103.843797 C1058.93871,103.829075 896.3999,103.810674 743.12101,78.8577968 C704.608049,72.5864543 667.210428,62.7525183 631.042274,53.2461347 C601.654353,45.5173676 571.265219,37.5309749 540.4507,31.4951758 C459.902377,15.7248105 375.022382,10.2153037 295.298892,6.60854567 C192.729081,1.9712854 89.2669976,1.2499338 1.58568337,1.15792467 C1.25886271,1.15792467 0.999481237,0.9739064 0.999481237,0.742043387 C0.999481237,0.513860738 1.26405034,0.329842473 1.58568337,0.329842473 C15.4003408,0.340883569 29.2409364,0.337203204 43.1022824,0.337203204 C198.430286,0.351924665 358.977044,0.318801377 513.340148,18.4593219 C551.432912,22.9383265 589.193667,30.0855959 625.714579,36.9973219 C655.47601,42.6319612 686.254215,48.4542991 717.032421,52.8044909 C793.632959,63.6174041 870.944202,67.8387831 963.465574,70.8493219 C1066.52821,74.194774 1170.53499,74.7247466 1258.69357,74.7983539 C1259.0152,74.7983539 1259.27459,74.9823722 1259.27459,75.2142352 C1259.27459,75.4424178 1259.0152,75.6264361 1258.69357,75.6264361 C1170.52462,75.5565091 1066.49708,75.0265365 963.413698,71.6774041 C870.840449,68.6631849 793.47733,64.4418059 716.809353,53.6178516 C685.989646,49.2639795 655.195878,43.4379612 625.413696,37.7996416 C588.918723,30.8915959 551.183906,23.7480069 513.148206,19.2800434 C391.295976,4.95606165 265.532274,1.95656393 141.558303,1.33090183 C191.624116,2.10009818 243.614539,3.44343151 295.371519,5.78414384 C375.162448,9.39090183 460.109882,14.904089 540.75677,30.6965365 C571.623166,36.7396964 602.038238,44.7371301 631.44691,52.4658973 C667.578749,61.9649201 704.940057,71.7878151 743.385579,78.0444361 C896.529591,102.982591 1059.00096,103.000993 1216.12388,103.015715 C1228.22143,103.015715 1240.29305,103.015715 1252.32316,103.030436 C1252.64479,103.030436 1252.90936,103.214454 1252.90418,103.446317 C1252.90418,103.6745 1252.64479,103.858518 1252.32316,103.858518" id="Fill-23"></path>
                        </g>
                        <g id="Group-28" transform="translate(0.000000, 266.193175)" fill="#D1AFFF">
                            <path d="M1.58516461,131.709969 C1.26353158,131.709969 0.998962474,131.525951 0.998962474,131.294088 C0.998962474,131.065905 1.26353158,130.878206 1.58516461,130.878206 C89.2197901,130.749394 192.505494,129.821942 294.110406,123.911275 C373.16988,119.314499 457.328793,112.299722 537.124911,92.2674941 C568.012057,84.5129644 597.970618,74.3993205 626.938341,64.62059 C662.976803,52.4533023 700.239546,39.8738137 739.618842,31.7254849 C891.263628,0.354051142 1055.62848,0.243640183 1214.58264,0.136909589 C1224.65183,0.129548858 1234.68989,0.122188128 1244.69164,0.107466667 C1245.01327,0.107466667 1245.27784,0.291484932 1245.27784,0.51966758 C1245.27784,0.751530594 1245.01327,0.935548858 1244.69164,0.935548858 C1234.68989,0.95027032 1224.65183,0.95763105 1214.58264,0.964991781 C1055.71148,1.07172237 891.429632,1.18213333 739.945662,32.5241242 C700.654556,40.6540511 663.438502,53.2188183 627.446728,65.3677041 C598.447879,75.1574758 568.458193,85.2821607 537.513983,93.0514119 C457.593363,113.113083 373.341072,120.1389 294.203783,124.739357 C237.783124,128.022243 180.84889,129.766736 126.363218,130.694188 C255.3225,129.972837 386.004075,126.1747 510.522747,105.899567 C549.00977,99.6355854 586.417767,89.8016493 622.591107,80.2952658 C651.963466,72.5738594 682.326661,64.591147 713.141181,58.5479872 C793.492374,42.788663 878.564311,37.2607543 958.526432,33.6355945 C1060.81611,28.9946539 1164.4442,28.2769826 1252.32264,28.1849735 C1252.64946,28.1849735 1252.90366,28.3689918 1252.90366,28.5971744 C1252.90884,28.8253571 1252.64946,29.0130557 1252.32264,29.0130557 C1164.46495,29.1050648 1060.85761,29.8227361 958.599059,34.4636767 C878.699189,38.0888365 793.699879,43.6093845 713.452438,59.3503068 C682.684608,65.3824256 652.342163,73.3577772 623.00093,81.0718228 C586.791276,90.5892475 549.346966,100.430544 510.787316,106.709247 C357.523989,131.662124 195.005931,131.680526 37.8363197,131.695247 C25.7180172,131.695247 13.6308404,131.698928 1.58516461,131.709969" id="Fill-26"></path>
                        </g>
                        <g id="Group-31" transform="translate(0.000000, 430.602740)" fill="#FFAD25">
                            <path d="M1235.81509,159.818841 C1163.79523,159.701069 1068.98092,158.839863 974.285932,153.245708 C899.667069,148.836631 812.551206,141.545827 732.220763,120.917379 C693.043785,110.85158 656.896382,95.8872151 621.947322,81.4123384 C593.5243,69.6462105 564.131191,57.4752425 533.259608,48.0056626 C454.3402,23.7925393 367.61341,15.0553521 293.181301,9.70410092 C192.919986,2.4942653 93.7791977,1.33495024 1.58464585,1.1582927 C1.26301282,1.1582927 0.998443711,0.970594071 0.998443711,0.742411423 C0.998443711,0.514228775 1.26301282,0.33021051 1.58464585,0.33021051 L1.58983348,0.33021051 C11.5863956,0.344931971 21.6244587,0.352292702 31.6936476,0.359653432 C190.647804,0.46270366 355.012658,0.573114619 506.662632,31.9519091 C546.03674,40.0965575 583.294295,52.6760461 619.327569,64.8359731 C648.305668,74.618384 678.264229,84.7320279 709.156562,92.4828772 C788.957867,112.515105 873.111593,119.533562 952.160692,124.130338 C1053.75004,130.037325 1157.04612,130.972137 1244.69112,131.104631 C1245.01275,131.104631 1245.27732,131.292329 1245.27732,131.520512 C1245.27732,131.748695 1245.01275,131.932713 1244.69112,131.932713 L1244.68593,131.932713 C1157.02018,131.8039 1053.69298,130.869087 952.067315,124.95474 C872.935214,120.354284 788.693298,113.328466 708.76749,93.266795 C677.818092,85.5012242 647.828406,75.3765393 618.824369,65.5867676 C582.832596,53.4378817 545.616542,40.876795 506.330623,32.7505484 C383.171111,7.26401873 251.555762,2.42433836 121.252884,1.45272193 C177.471225,2.55315115 235.188791,4.70248448 293.295429,8.87601873 C367.820915,14.2346306 454.656646,22.9828589 533.726495,47.2438269 C564.66033,56.7318087 594.079377,68.9174982 622.533525,80.6983475 C657.441084,95.151142 693.53661,110.097105 732.620211,120.133462 C812.815775,140.732466 899.838261,148.012229 974.384497,152.417626 C1069.03799,158.011781 1163.82116,158.869306 1235.81509,158.990758 C1236.13672,158.990758 1236.40129,159.178457 1236.40129,159.40664 C1236.40129,159.634822 1236.13672,159.818841 1235.81509,159.818841" id="Fill-29"></path>
                        </g>
                        <g id="Group-34" transform="translate(0.000000, 210.254314)" fill="#FFAD25">
                            <path d="M1.58516461,187.64883 C1.26353158,187.64883 1.0041501,187.464812 0.998962474,187.236629 C0.998962474,187.004766 1.26353158,186.820748 1.58516461,186.817068 C88.4883344,186.633049 190.803951,185.293396 290.77476,176.784392 C360.25787,170.870045 450.112801,160.414127 528.861017,131.810328 C559.768914,120.581533 588.632884,106.390045 616.542331,92.6622822 C650.941503,75.7473233 686.518266,58.254547 726.198444,46.1829489 C805.745555,21.9808667 892.212964,13.4056155 966.302689,8.20525938 C1059.7319,1.65052878 1154.0015,0.63474796 1225.68935,0.483852983 L1225.69454,0.483852983 C1226.01617,0.483852983 1226.27555,0.667871248 1226.28074,0.896053896 C1226.28074,1.12423654 1226.01617,1.31193517 1225.69454,1.31193517 C1154.02744,1.46651052 1059.79415,2.47861097 966.416817,9.03334157 C892.415282,14.2226566 806.062001,22.7868667 726.660143,46.9447845 C687.088905,58.9869397 651.564018,76.4539534 617.206348,93.3468302 C589.265775,107.085634 560.370679,121.295524 529.395343,132.546401 C450.481123,161.212766 360.496501,171.687086 290.914826,177.608794 C268.276011,179.537305 245.512692,181.09778 222.842751,182.360145 C236.159396,181.741844 249.564231,181.042574 263.015754,180.247616 C337.593116,175.842218 424.636352,168.558775 504.780041,147.963451 C543.858454,137.919734 579.959168,122.973771 614.871914,108.520976 C643.326062,96.7438073 672.745109,84.5617982 703.673757,75.0701361 C782.728043,50.8128484 869.568961,42.0646201 944.099635,36.7060082 C1045.19616,29.4409671 1148.29511,28.3074146 1235.81042,28.1602 L1235.81561,28.1602 C1236.13724,28.1602 1236.40181,28.3442183 1236.40181,28.5724009 C1236.40181,28.8005836 1236.13724,28.9882822 1235.81561,28.9882822 C1148.32623,29.1391772 1045.2636,30.2690493 944.21895,37.5340904 C869.776466,42.8853416 783.044488,51.6225288 704.140643,75.8319717 C673.274248,85.305232 643.881139,97.4725196 615.463304,109.238648 C580.503869,123.709844 544.356466,138.674209 505.179488,148.743689 C424.906109,169.368456 337.764308,176.66294 263.114319,181.075698 C169.53467,186.603606 78.398395,187.501616 1.58516461,187.64883 Z" id="Fill-32"></path>
                        </g>
                        <path d="M1214.34038,645.529898 C1137.01357,645.331158 1045.52972,644.083515 953.319609,636.336346 C884.806585,630.580254 796.092933,620.385642 717.536659,592.418547 C678.063986,578.370592 643.602563,558.654875 610.272043,539.586903 C582.985112,523.974793 554.764407,507.829031 523.939513,494.870464 C445.243173,461.798702 353.287252,449.749186 290.963071,443.562492 C189.876922,433.526136 87.9555648,431.969341 1.58153327,431.75956 C1.25990024,431.75956 1.00051876,431.571862 1.00051876,431.347359 C1.00051876,431.115496 1.26508787,430.931478 1.5867209,430.931478 C73.2849485,431.086053 167.564927,432.105515 260.978572,438.656565 C335.078672,443.853241 421.551269,452.428492 501.07763,476.630574 C540.742245,488.705853 576.308633,506.191268 610.697429,523.102547 C638.622439,536.83399 667.496785,551.029158 698.415057,562.257953 C777.215149,590.869113 867.044142,601.325031 936.496126,607.235697 C1035.81329,615.693177 1134.18631,617.058592 1225.6961,617.275734 C1226.01773,617.275734 1226.27711,617.463432 1226.27711,617.691615 C1226.27711,617.919798 1226.01254,618.103816 1225.69091,618.103816 C1134.15,617.886674 1035.73548,616.517579 936.361248,608.060099 C866.805511,602.142072 776.846827,591.671432 697.885918,562.997706 C666.89502,551.743149 637.98436,537.529579 610.033412,523.783414 C575.691305,506.897898 540.171606,489.434565 500.615931,477.39241 C421.240011,453.238172 334.876355,444.673962 260.859257,439.484647 C246.292393,438.457825 231.704779,437.574537 217.179416,436.801661 C241.716904,438.347414 266.446334,440.290647 291.129075,442.74177 C353.546634,448.939505 445.658183,461.007423 524.53609,494.160154 C555.433612,507.144483 583.685442,523.308647 611.008687,538.939158 C644.28733,557.977688 678.702064,577.667642 718.06061,591.678793 C796.456067,619.583323 885.040029,629.763213 953.454487,635.508263 C1045.60754,643.259113 1137.04988,644.506757 1214.34038,644.701816 C1214.66201,644.701816 1214.92658,644.889515 1214.92658,645.117697 C1214.92139,645.34588 1214.66201,645.529898 1214.34038,645.529898" id="Fill-35" fill="#65B2FF"></path>
                        <g id="Group-39" transform="translate(0.000000, 155.782216)" fill="#81BCA4">
                            <path d="M1.58516461,242.120928 C1.26353158,242.120928 1.0041501,241.93691 0.998962474,241.708727 C0.998962474,241.476864 1.26353158,241.292846 1.58516461,241.289165 C88.9863468,241.042581 191.794789,239.21712 291.651469,227.557722 C389.147779,216.178033 461.795343,197.665795 520.265115,169.3049 C550.285927,154.745375 577.360165,137.050179 603.547319,119.93648 C636.302012,98.5314758 670.172045,76.3940785 710.085667,60.2262338 C774.656091,34.0588365 852.978922,17.1328365 949.525895,8.48397808 C1034.96615,0.8251379 1123.58124,0.578553425 1201.76401,0.357731507 C1202.08564,0.357731507 1202.34502,0.541749772 1202.35021,0.76993242 C1202.35021,1.00179543 1202.09083,1.1858137 1201.76401,1.18949406 C1039.57277,1.64585936 855.733553,2.1611105 710.661494,60.943905 C670.867188,77.0675854 637.049031,99.1718594 604.335839,120.547421 C578.122747,137.679521 551.012195,155.3968 520.923944,169.989448 C462.308918,198.423951 389.5161,216.976672 291.838224,228.378444 C265.557693,231.447868 239.064469,233.836426 212.711311,235.69133 C229.202785,234.68291 245.813575,233.497832 262.471053,232.099293 C330.875136,226.354243 419.448723,216.181713 497.859743,188.269823 C537.228663,174.258672 571.648585,154.565037 604.932416,135.522827 C632.250473,119.895996 660.497116,103.731832 691.38945,90.7475032 C770.293295,57.5800511 862.389282,45.5194941 924.796465,39.3328 C1025.79442,29.3222064 1127.84028,27.7433297 1214.33882,27.5188274 C1214.66045,27.5188274 1214.92502,27.706526 1214.92502,27.9347087 C1214.92502,28.1628913 1214.66564,28.35059 1214.34401,28.35059 C1127.88179,28.5750922 1025.8878,30.1502886 924.957282,40.1572018 C862.648663,46.3328548 770.708305,58.3713297 691.986027,91.4614941 C661.16632,104.41638 632.950803,120.558462 605.663872,136.166891 C572.333352,155.238544 537.861554,174.957942 498.388881,189.009576 C419.811857,216.980353 331.10858,227.171284 262.605932,232.923695 C169.985994,240.700307 78.6837146,241.93691 1.58516461,242.120928 Z" id="Fill-37"></path>
                        </g>
                        <g id="Group-42" transform="translate(1.000000, 430.602740)" fill="#FFAD25">
                            <path d="M933.890036,259.182447 C837.265248,249.127689 759.793189,229.978748 697.043622,200.646237 C658.395782,182.583004 626.196166,158.793123 595.054826,135.787159 C569.018113,116.54989 542.094316,96.6611959 511.523615,80.2062827 C455.626907,50.115616 383.482543,29.4062005 290.966359,16.9039996 C192.183517,3.55531462 93.0271664,1.44278494 0.583608321,1.15571645 C0.00259381476,0.515332884 0.261975291,0.331314619 0.583608321,0.331314619 C79.2955111,0.552136537 168.501988,0.806081743 254.378007,8.58637398 C351.578622,17.3898078 430.274962,34.6286388 494.964702,61.2818443 C533.830422,77.3024744 566.98975,99.0129493 599.054488,120.009433 C625.672215,137.443324 653.197778,155.466073 683.856668,170.143369 C743.073459,198.496904 816.327976,216.869287 914.400112,227.954547 C1014.36573,239.253269 1115.25475,241.023525 1200.76764,241.266429 C1201.34865,241.906812 1201.08408,242.090831 1200.76245,242.090831 C1115.20806,241.851607 1014.25679,240.081351 914.213357,228.775269 C815.970029,217.664246 742.565071,199.258739 683.203027,170.835278 C652.466322,156.117497 624.909634,138.072666 598.260781,120.620374 C566.242732,99.6533329 533.130092,77.9686206 494.373312,62.0031959 C382.52802,15.9139813 247.037512,5.00169818 116.044679,2.20830092 C173.55474,4.18097672 232.434335,8.14841051 291.184239,16.0906388 C383.881991,28.6186023 456.187171,49.3758626 512.234321,79.5438169 C542.872461,96.0392142 569.827384,115.953671 595.90041,135.213022 C626.995061,158.185863 659.147989,181.942621 697.686888,199.958009 C841.078156,266.984821 1041.00421,267.647287 1186.97892,268.129415 C1187.55993,268.773479 1187.30055,268.957497 1186.97892,268.957497 C1100.35588,268.674109 1015.82346,267.709853 933.890036,259.182447 Z" id="Fill-40"></path>
                        </g>
                        <g id="Group-45" transform="translate(0.000000, 102.050228)" fill="#65B2FF">
                            <path d="M1.58516461,295.852916 C1.26353158,295.852916 1.0041501,295.668897 0.998962474,295.440715 C0.998962474,295.212532 1.25834395,295.024833 1.58516461,295.021153 C88.7580911,294.712002 191.15671,292.389692 289.68017,277.517336 C380.681567,263.782212 451.79878,240.879299 507.088536,207.509427 C537.036721,189.435153 563.031933,167.989664 588.176373,147.250806 C618.083057,122.577637 649.011704,97.0653448 686.79321,77.0625594 C747.618166,44.8630434 823.891883,23.6457375 919.982345,12.1998014 C1004.46289,2.13400229 1091.29862,0.989408683 1173.00379,0.680257998 C1173.32542,0.680257998 1173.5848,0.867956629 1173.58999,1.09613928 C1173.58999,1.32432193 1173.33061,1.50834019 1173.00897,1.51202056 C998.938066,2.17080594 818.066175,8.59672375 687.49354,77.7250251 C649.815787,97.6762854 618.928641,123.155454 589.063458,147.79182 C563.893079,168.556441 537.861554,190.024011 507.84593,208.14245 C452.400545,241.604331 381.122516,264.56245 289.923989,278.330696 C231.609845,287.13045 171.962481,291.543208 114.903744,293.740386 C240.558506,290.417016 381.98885,277.789683 490.877194,226.849747 C529.390155,208.834358 561.532708,185.092322 592.616984,162.130523 C618.700385,142.863811 645.676059,122.941993 676.329761,106.442916 C732.392474,76.2676005 804.697654,55.5103402 897.379843,42.9823767 C995.99668,29.6520936 1095.32422,27.5322032 1187.97529,27.2230525 L1187.98047,27.2230525 C1188.30211,27.2230525 1188.56149,27.4070708 1188.56668,27.6352534 C1188.56668,27.8634361 1188.30729,28.0511347 1187.98047,28.0511347 C1095.38647,28.3602854 996.121183,30.4838562 897.597724,43.7994178 C805.102289,56.3016187 732.952738,77.0073539 677.040467,107.105381 C646.454203,123.563975 619.514843,143.46371 593.462567,162.70466 C562.331603,185.699582 530.142361,209.474742 491.52046,227.541655 C428.802019,256.885208 351.329959,276.034148 254.679234,286.096267 C172.590184,294.638395 88.1200127,295.584249 1.58516461,295.852916 Z" id="Fill-43"></path>
                        </g>
                        <g id="Group-48" transform="translate(0.000000, 430.602740)" fill="#D1AFFF">
                            <path d="M1156.84328,321.6975 C988.769275,321.012952 798.590777,313.574934 668.900038,233.457062 C634.723935,212.342806 606.726299,186.679619 579.646873,161.862916 C557.609822,141.668751 534.825753,120.782678 508.830542,102.4655 C454.075112,63.8658288 381.07479,36.5501575 291.852749,21.2766416 C191.814502,4.1555822 88.9801217,1.49835846 1.58412708,1.15608448 C1.25730642,1.15608448 0.997924948,0.968385852 0.997924948,0.740203204 C1.00311258,0.512020555 1.26249405,0.331682656 1.58412708,0.331682656 L1.58931471,0.331682656 C83.1855395,0.622431514 169.93308,1.75230366 254.600382,11.8475457 C350.670093,23.3008425 426.94381,44.5181484 487.784329,76.7066233 C525.57621,96.702048 556.494482,122.218021 586.401166,146.89119 C611.545606,167.633728 637.540818,189.086578 667.499378,207.157171 C722.778759,240.508642 793.895972,263.407874 884.907744,277.1614 C983.602396,292.07792 1085.92839,294.381829 1173.00794,294.672578 C1173.32957,294.672578 1173.58895,294.860276 1173.58895,295.092139 C1173.58895,295.316642 1173.32438,295.50066 1173.00275,295.50066 C1085.86095,295.213591 983.46233,292.906002 884.663926,277.97476 C793.455023,264.191792 722.171806,241.233674 666.741985,207.790194 C636.715985,189.675436 610.68446,168.200505 585.514081,147.428523 C555.648898,122.792158 524.772127,97.3129886 487.089187,77.3727694 C389.78482,25.8918196 264.788886,9.1719201 135.518346,3.72865982 C186.746188,6.51101599 239.81045,11.5163128 292.127694,20.4706416 C381.557239,35.7772808 454.744316,63.1702397 509.655375,101.872961 C535.702463,120.234304 558.51247,141.138779 580.570271,161.358705 C607.613383,186.142285 635.579894,211.772349 669.672995,232.8314 C799.057663,312.761573 988.981968,320.18487 1156.84328,320.869418 C1157.1701,320.869418 1157.42949,321.057116 1157.42949,321.288979 C1157.4243,321.513482 1157.16492,321.6975 1156.84328,321.6975" id="Fill-46"></path>
                        </g>
                        <g id="Group-51" transform="translate(0.000000, 50.525114)" fill="#D1AFFF">
                            <path d="M1.58516461,347.37803 C1.26353158,347.37803 1.0041501,347.194011 0.998962474,346.965829 C0.998962474,346.737646 1.25834395,346.549947 1.58516461,346.546267 C91.9121699,346.152468 197.755375,343.024158 297.887,322.804231 C385.044364,305.204724 456.561024,273.895856 510.45012,229.742514 C532.284852,211.852258 551.774777,192.162304 570.621435,173.120094 C594.443029,149.050505 619.079082,124.163874 648.695259,102.666861 C770.993625,13.8854087 956.871578,0.95260503 1139.51764,0.20181051 C1139.83927,0.20181051 1140.10384,0.385828775 1140.10384,0.614011423 C1140.10903,0.842194071 1139.84446,1.0298927 1139.52283,1.03357307 C957.13096,1.78068722 771.533138,14.684048 649.530467,103.248358 C619.98173,124.697527 595.371615,149.558395 571.581146,173.598541 C552.713738,192.655473 533.208251,212.363829 511.332017,230.283527 C457.29248,274.562002 385.589065,305.959199 298.208633,323.60287 C247.33355,333.874769 194.990368,339.741272 143.964845,343.083043 C269.697421,336.281728 395.051301,316.415116 488.755453,258.51561 C522.843367,237.452879 550.80469,211.830176 577.847803,187.050276 C599.905603,166.826669 622.720798,145.918514 648.778261,127.557171 C703.68932,88.8581301 776.876397,61.4688516 866.300755,46.1511712 C966.375316,29.0080297 1069.32901,26.3508059 1156.83913,26.0158927 L1156.84432,26.0158927 C1157.16595,26.0158927 1157.42534,26.199911 1157.43052,26.4280936 C1157.43052,26.6562763 1157.17114,26.8439749 1156.84432,26.8439749 C1069.40164,27.1825685 966.530945,29.8361119 866.575699,46.9571712 C777.358846,62.238048 704.363711,89.5573996 649.603094,128.14603 C623.602695,146.470569 600.808251,167.356642 578.771201,187.558167 C551.691775,212.367509 523.699326,238.027016 489.52841,259.141272 C359.749482,339.32539 169.617673,346.730285 1.58516461,347.37803 Z" id="Fill-49"></path>
                        </g>
                        <g id="Group-54" transform="translate(1.000000, 430.602740)" fill="#65B2FF">
                            <path d="M1120.05642,372.924137 L1120.05123,372.924137 C948.319946,372.085013 756.528095,358.265242 636.17509,262.126739 C607.202179,238.977242 583.297582,212.629506 560.186693,187.146657 C542.014427,167.110748 523.219645,146.393972 502.085242,127.366484 C449.825062,80.3240543 380.7414,46.8032872 296.753678,27.7279539 C196.995562,5.07162512 91.0589798,1.58631919 0.58153327,1.15571645 C0.259900239,1.15571645 -0.00466886657,0.971698181 0.000518762952,0.739835167 C0.000518762952,0.515332884 0.265087869,0.331314619 0.586720899,0.331314619 L0.591908529,0.331314619 C183.331346,1.12995389 369.266363,14.0958808 491.409101,102.800045 C521.009715,124.293379 545.635392,149.176328 569.456987,173.234876 C588.31402,192.284447 607.809132,211.981762 629.649052,229.872018 C683.558898,274.043762 755.075559,305.35631 842.21736,322.937415 C942.426799,343.157342 1048.23369,346.289333 1138.52438,346.683132 C1138.84602,346.683132 1139.1054,346.870831 1139.1054,347.099013 C1139.10021,347.327196 1138.84083,347.511214 1138.51919,347.511214 C1048.15069,347.113735 942.240044,343.981744 841.895726,323.736054 C754.536045,306.107105 682.827442,274.706228 628.767155,230.416712 C606.885734,212.489653 587.369872,192.777616 568.502463,173.713324 C544.706806,149.680538 520.107067,124.827032 490.573892,103.381543 C406.726236,42.4862187 292.655451,17.3714059 170.196268,7.37185343 C212.522137,11.3245658 255.351207,17.452374 297.111624,26.9366753 C381.327602,46.0598534 450.598019,79.6799904 503.003453,126.858593 C524.174169,145.911844 542.979326,166.647022 561.167155,186.697653 C584.257294,212.154739 608.135953,238.476712 637.051799,261.571004 C757.098734,357.470283 948.584515,371.256931 1120.06161,372.096054 C1120.38324,372.096054 1120.64262,372.283753 1120.64262,372.515616 C1120.63744,372.740118 1120.37805,372.924137 1120.05642,372.924137" id="Fill-52"></path>
                        </g>
                        <g id="Group-57" fill="#65B2FF">
                            <path d="M1.58516461,397.903144 C1.26353158,397.903144 1.0041501,397.719126 0.998962474,397.490943 C0.998962474,397.26276 1.25834395,397.075062 1.57997698,397.071381 C92.1715513,396.618696 198.045882,392.783756 296.424089,367.757272 C377.262919,347.19139 443.835769,311.738432 494.285466,262.388413 C515.108611,242.021272 533.483195,219.997966 551.256014,198.699692 C573.894829,171.564358 597.301413,143.505253 626.02013,118.578139 C679.084393,72.5146872 749.983725,40.937153 842.764479,22.0458379 C934.938281,3.27597489 1034.55114,0.659235167 1101.456,0.328002291 C1101.76726,0.339043387 1102.0422,0.50834019 1102.04739,0.736522839 C1102.04739,0.968385852 1101.78801,1.15608448 1101.46638,1.15608448 C942.875354,1.94736302 745.615741,16.0689247 626.922778,119.104432 C598.266312,143.983701 574.875291,172.013363 552.257226,199.119253 C534.47922,220.435929 516.089073,242.473957 495.229615,262.877902 C444.639852,312.364094 377.885435,347.912742 296.823536,368.537509 C263.052068,377.127482 228.414266,383.225847 193.812777,387.550276 C303.899463,375.125363 408.559888,347.323884 484.589787,286.557372 C513.505634,263.448358 537.394668,237.122705 560.489994,211.661938 C578.677823,191.614989 597.48298,170.887171 618.643321,151.83392 C671.012441,104.666358 740.282858,71.0499018 824.529962,51.9156827 C924.262139,29.2630343 1030.39066,25.7519658 1121.04968,25.3066416 L1121.05487,25.3066416 C1121.3765,25.3066416 1121.64107,25.4906598 1121.64107,25.7188425 C1121.64625,25.9507055 1121.38169,26.1347238 1121.06005,26.1384041 C1030.48923,26.580048 924.469644,30.0874361 824.887908,52.7069612 C740.86906,71.7896553 671.785398,105.314103 619.561532,152.345491 C598.437504,171.372979 579.64791,192.082395 561.475644,212.110943 C538.349191,237.597473 514.439407,263.952569 485.466496,287.105747 C365.092741,383.310495 173.316452,397.100824 1.59035224,397.903144 L1.58516461,397.903144 Z" id="Fill-55"></path>
                        </g>
                        <g id="Group-60" transform="translate(1.000000, 430.602740)">
                            <mask id="mask-2" fill="white">
                                <use xlink:href="#path-1"></use>
                            </mask>
                            <g id="Clip-59"></g>
                            <path d="M0.58516461,1.15718859 C0.26353158,1.15718859 -0.0010375259,0.973170327 -0.0010375259,0.744987679 C-0.0010375259,0.513124665 0.26353158,0.3291064 0.58516461,0.3291064 C7.32389536,0.32174567 12.3507084,0.325426035 16.1117398,0.325426035 L26.8241947,0.325426035 L26.8241947,0.428476263 C27.296269,0.465279916 27.3273948,0.513124665 27.3637082,0.583051606 C27.4415227,0.708184026 27.4207721,0.855398638 27.3118319,0.969489962 C27.2028917,1.08358129 27.0213247,1.15350823 26.8241947,1.15350823 L0.58516461,1.15718859 Z" id="Fill-58" fill="#81BCA4" mask="url(#mask-2)"></path>
                        </g>
                    </g>
                </g>
            </g>
        </g>
    </g>
</svg>