<?xml version="1.0" encoding="UTF-8"?>
<svg width="42px" height="48px" viewBox="0 0 42 48" version="1.1" xmlns="http://www.w3.org/2000/svg" xmlns:xlink="http://www.w3.org/1999/xlink">
    <!-- Generator: Sketch 50.2 (55047) - http://www.bohemiancoding.com/sketch -->
    <title>girl-01</title>
    <desc>Created with Sketch.</desc>
    <defs>
        <polygon id="path-1" points="16.8795833 0.158870362 16.8795833 13.8731896 0.442509293 13.8731896 0.442509293 0.158870362 16.8795833 0.158870362"></polygon>
    </defs>
    <g id="Page-1" stroke="none" stroke-width="1" fill="none" fill-rule="evenodd">
        <g id="01-Jobs-Copy" transform="translate(-521.000000, -691.000000)">
            <g id="01--Hero">
                <g id="illustration" transform="translate(10.000000, 370.000000)">
                    <g id="girl-01" transform="translate(511.000000, 321.000000)">
                        <path d="M27.7968304,47.9964594 L8.30319804,45.1873592 C8.11053416,45.1602783 7.97715148,44.975835 8.00326343,44.7767534 L9.80710545,31.314591 C9.8332174,31.1155093 10.011061,30.9757131 10.2030191,31.0035259 L29.6966515,33.8126261 C29.8893154,33.840439 30.0234038,34.0241503 29.9965861,34.2239639 L28.1934498,47.6853944 C28.1666321,47.8852079 27.9887885,48.0242723 27.7968304,47.9964594" id="Fill-1" fill="#579AD4"></path>
                        <polygon id="Fill-3" fill="#F6FAFD" points="9.70031762 31 8 43.6624475 17.2996824 45 19 32.3375525"></polygon>
                        <polygon id="Fill-5" fill="#F6FAFD" points="29 34.3369114 19.7003176 33 18 45.6637975 27.2996824 47"></polygon>
                        <path d="M11,31 L9,44" id="Stroke-7" stroke="#C5CCDE" stroke-width="0.341"></path>
                        <path d="M11,31 L9,44" id="Stroke-9" stroke="#C5CCDE" stroke-width="0.341"></path>
                        <path d="M20,33 L18,46" id="Stroke-11" stroke="#C5CCDE" stroke-width="0.341"></path>
                        <path d="M29,34 L27,47" id="Stroke-13" stroke="#C5CCDE" stroke-width="0.341"></path>
                        <path d="M29,34 L27,47" id="Stroke-15" stroke="#C5CCDE" stroke-width="0.341"></path>
                        <path d="M17.2034221,46 C17.2034221,46 15.3534601,40.5985557 12.3591635,41.989199 C10.0793916,43.048875 10,43.2194392 10,43.2194392 L15.2857034,31.1180846 C15.2857034,31.1180846 18.689962,30.2855857 19,33.0414691 L17.2034221,46 Z" id="Fill-17" fill="#FFFFFF"></path>
                        <path d="M28.7216563,45 C29.3115849,44.8048539 29.9433141,44.441266 30.4051439,43.9893488 C31.0705833,43.3381771 32.2342595,43.5566038 33.2866921,42.4336579 C34.3391246,41.3113968 33.7586349,37.5858186 33.7586349,37.5858186 L34,37.3790323 C33.5213151,37.3886184 32.8781244,37.3215155 32.1263869,37.023661 C31.4501602,36.7552495 31.0645155,36.3649574 30.8332635,36 C30.7928112,36.0629945 30.7456169,36.1321516 30.7085357,36.1930919 C30.3464881,36.7846926 26.1010251,40.5191722 27.1730096,41.8783475 C27.415723,42.1857882 28.3326406,41.2477176 28.8268321,40.47535 C29.3216979,39.7022976 29.7174557,40.880706 29.0816813,42.4891205 L28.7216563,45 Z" id="Fill-19" fill="#EC998D"></path>
                        <path d="M29.480438,37.9991547 C29.7678795,38.3437302 30.2134139,38.6897566 30.9320178,38.8609563 C31.731379,39.0517423 32.3877039,39.0169221 32.8660887,38.9298714 C33.407437,38.831214 33.7202008,38.6643668 33.7202008,38.6643668 L38.1632257,33.7554346 L38.7887533,33.00027 C38.9098894,32.7688604 39.0050188,32.4576542 39.0768792,32.1174312 C39.2774039,31.1569722 41,16 41,16 L32.7860157,21.4225312 L32.4130261,29.5733754 C32.4130261,29.5733754 32.496521,30.7695967 31.7190601,32.0238517 L31.7183757,32.0238517 L29,37.0590074 C29,37.0590074 29.0862325,37.5269048 29.480438,37.9991547" id="Fill-21" fill="#262635"></path>
                        <path d="M5,32.2730984 L5.65570575,33.2874849 C5.65570575,33.2874849 4.58617681,37.147971 5.58139244,38.4604926 C6.57733662,39.7722871 7.85232003,39.6835737 8.48981174,40.4514534 C9.41872822,41.5720052 11.2080764,42.3769699 11.8033115,41.8177848 C12.3985466,41.2585997 10.5494564,40.8230316 10.0591342,39.048037 C9.56881198,37.2737695 9.97170674,35.641298 10.410301,36.5167972 C10.8481668,37.3922964 13.578817,38.6241034 12.8888688,37.683887 C12.1981921,36.7436707 9.41508541,32.8562798 9.0974324,32.1880208 C8.83296441,31.6310172 8.47742618,30.874772 8.06870293,30 C7.83629167,30.5111926 7.5179101,30.9809372 7.09534417,31.3517882 C6.61667897,31.7742675 5.92454511,32.1480271 5,32.2730984" id="Fill-23" fill="#EC998D"></path>
                        <path d="M0.199966887,27.3336961 C0.288266314,27.6626857 0.401173777,27.9613178 0.537965511,28.1815855 L0.86655518,28.6771878 L5.75052673,35 C5.9416009,34.9971761 6.10806703,34.9675246 6.28032329,34.9442271 C7.19805831,34.8227975 7.88635957,34.4606266 8.3618737,34.0511546 C8.78093409,33.6896897 9.0979435,33.2336226 9.32882479,32.7373143 C9.38672605,32.6137667 9.45910263,31.9155464 9.50614741,31.7877629 L7.41880687,26.1222239 C7.12133913,25.4910722 6.94474028,25.1154876 6.94474028,25.1154876 L11,16.9613473 L1.30298595,11 L0.114562524,24.4935138 C-0.0511798416,25.4360053 -0.0490085442,26.4081483 0.199966887,27.3336961" id="Fill-25" fill="#262635"></path>
                        <path d="M17.9480875,13.085439 C17.4337766,16.9048727 13.2344241,19.5138067 8.56904587,18.9142736 C3.90293607,18.3147404 0.537601319,14.7339766 1.05191226,10.914543 C1.5662232,7.09582389 5.7655757,4.4861753 10.4316855,5.08570848 C15.0970637,5.68524166 18.4623985,9.26671996 17.9480875,13.085439" id="Fill-27" fill="#262635"></path>
                        <g id="Group-31" transform="translate(25.000000, 8.000000)">
                            <mask id="mask-2" fill="white">
                                <use xlink:href="#path-1"></use>
                            </mask>
                            <g id="Clip-30"></g>
                            <path d="M16.8516042,8.07933 C16.3536458,11.82013 12.2878125,14.37653 7.77077083,13.78923 C3.25302083,13.20193 -0.00460416667,9.69353 0.492645833,5.95273 C0.990604167,2.21193 5.0564375,-0.34447 9.5741875,0.24283 C14.2378542,0.84903 17.2029375,5.43963 16.8516042,8.07933" id="Fill-29" fill="#262635" mask="url(#mask-2)"></path>
                        </g>
                        <path d="M5.65921385,22.1438647 C5.65921385,22.1438647 14.8550307,26.458515 35.4103859,25.9598863 C28.7518933,17.2848722 41,12.7149297 41,12.7149297 C41,12.7149297 36.025604,6.04005666 22.7288136,4.33388851 C9.43202308,2.62842364 3,8.01136306 3,8.01136306 L5.65921385,22.1438647 Z" id="Fill-32" fill="#262635"></path>
                        <path d="M41,18 C41,18 25.6657726,4.78380383 1,12.3252577" id="Stroke-34" stroke="#3F3F56" stroke-width="0.136" stroke-dasharray="0.6820000000000001,0.6820000000000001,0.6820000000000001,0.6820000000000001"></path>
                        <path d="M41,17 C41,17 25.6657726,3.78380383 1,11.3252577" id="Stroke-36" stroke="#3F3F56" stroke-width="0.136" stroke-dasharray="0.6820000000000001,0.6820000000000001,0.6820000000000001,0.6820000000000001"></path>
                        <path d="M8,22 L10.3071672,26.818361 C10.6748942,27.4880187 12.0712628,28.9195443 12.7399863,29.2279194 C13.9333242,29.7789132 16.0346212,30.5785721 18.5895427,30.8181675 C22.1219932,31.1492172 25.7921638,30.9504362 27.4220887,30.828749 C27.9829078,30.786423 29.3934744,29.8424021 29.8293515,29.4637357 C31.2945802,28.1894209 33.8260751,25.8992823 34,25.3067183 C34,25.3067183 33.9112628,23.2750706 32.7136655,22.9916376 C31.5153584,22.7082046 8,22 8,22" id="Fill-38" fill="#262635"></path>
                        <path d="M19,21.5354766 C19,21.5354766 19.5260504,20.848687 20.6319328,21.0306984 C21.7394958,21.2135187 22,22.0281207 22,22.0281207 C22,22.0281207 21.1142857,23.1242337 20.2865546,22.9883319 C19.4579832,22.85243 19,21.5354766 19,21.5354766" id="Fill-40" fill="#EC998D"></path>
                        <path d="M32.8415911,12.8497657 C31.82012,18.8374044 26.1372781,22.8636003 20.1503229,21.8414092 C14.1619127,20.8199457 10.1364147,15.137873 11.1586133,9.15023434 C12.1800843,3.16259565 17.8621988,-0.863600287 23.8498814,0.158590766 C29.8375641,1.18005428 33.8630621,6.8628545 32.8415911,12.8497657" id="Fill-42" fill="#633F30"></path>
                        <path d="M27,18.4663829 C26.1827568,19.5649891 25.8960541,19.7357184 25.5496216,20.2411582 C23.7717838,20.9409461 21.7747027,21.1859056 19.7417838,20.8532196 C17.7088649,20.5198587 15.9099459,19.6527156 14.4743243,18.4258937 C14.4012432,18.0270753 14.3056757,17.7821158 14,17 C17.6681081,19.9496362 23.4499459,19.722222 27,18.4663829" id="Fill-44" fill="#EC998D"></path>
                        <path d="M10,23.9963812 C10.8088779,24.0691734 11.2562973,23.0213849 12.6866303,22.8723008 C13.4511185,22.7925093 14.1979919,22.5951303 14.8955434,22.2745644 C16.0264224,21.7538198 17.4630967,21.2281757 18,21" id="Stroke-46" stroke="#2C2E38" stroke-width="0.341" stroke-linecap="round"></path>
                        <path d="M11.4740802,14 C11.4740802,14 9.90747042,15.2172505 10.8896854,18.0001345 C11.2104087,18.9080208 11.7524001,19.7371725 12.4069531,20.4848026 C13.2311194,21.4240433 13.9357854,22.3103299 9.13727202,23.9400659 C9.13727202,23.9400659 7.34862309,24.4215313 8.25759597,22.6552291" id="Stroke-48" stroke="#2C2E38" stroke-width="0.341" stroke-linecap="round"></path>
                        <polygon id="Fill-50" fill="#2C2E38" points="11.0926059 9 32 11.0183531 31.9073941 12 11 9.98092248"></polygon>
                        <polygon id="Fill-52" fill="#BF301D" points="13.2889792 8 31 9.79585572 30.7102965 13 13 11.2041443"></polygon>
                        <path d="M34.984626,12.2504658 C35.1418788,10.6504033 34.0752602,9.26332104 32.5885066,9 L32,14.9998472 C33.511374,15.0153367 34.8273732,13.8513028 34.984626,12.2504658" id="Fill-54" fill="#BF301D"></path>
                        <path d="M8.01537398,9.7491793 C7.8581212,11.3498097 8.92473981,12.7359386 10.4114934,13 L11,7.00015275 C9.48862605,6.98466527 8.17262676,8.14854891 8.01537398,9.7491793" id="Fill-56" fill="#BF301D"></path>
                        <path d="M10.2362147,12.9304058 L11.0263374,12.9989785 C11.1694243,13.0109964 11.2975736,12.9155602 11.311725,12.786898 L11.9988566,6.32551134 C12.0122219,6.19755609 11.9068722,6.08161873 11.7637853,6.06960084 L10.9728764,6.00102813 C10.8305757,5.98901024 10.7024264,6.08373954 10.688275,6.21240172 L10.0011434,12.6744953 C9.98777814,12.8031575 10.0931278,12.917681 10.2362147,12.9304058" id="Fill-58" fill="#2C2E38"></path>
                        <path d="M32.7768681,8.0788051 L31.9191093,8.00114441 C31.78469,7.98843629 31.6628957,8.08304114 31.6502706,8.21153429 L31.001196,14.6651381 C30.9878284,14.7936313 31.0880859,14.9087103 31.2232479,14.9200064 L32.0810066,14.9990791 C32.2161686,15.0103752 32.3364777,14.9164764 32.3498453,14.7872772 L32.9989199,8.33437939 C33.0115449,8.20588624 32.9120301,8.09151322 32.7768681,8.0788051" id="Fill-60" fill="#2C2E38"></path>
                    </g>
                </g>
            </g>
        </g>
    </g>
</svg>