<?xml version="1.0" encoding="UTF-8"?>
<svg width="152px" height="74px" viewBox="0 0 152 74" version="1.1" xmlns="http://www.w3.org/2000/svg" xmlns:xlink="http://www.w3.org/1999/xlink">
    <!-- Generator: Sketch 50.2 (55047) - http://www.bohemiancoding.com/sketch -->
    <title>group-01</title>
    <desc>Created with Sketch.</desc>
    <defs>
        <polygon id="path-1" points="0 84 209 84 209 0 0 0"></polygon>
    </defs>
    <g id="Page-1" stroke="none" stroke-width="1" fill="none" fill-rule="evenodd">
        <g id="01-Jobs-Copy" transform="translate(-1098.000000, -380.000000)">
            <g id="01--Hero">
                <g id="illustration" transform="translate(10.000000, 370.000000)">
                    <g id="group-01" transform="translate(1060.000000, 0.000000)">
                        <path d="M93.9993786,40.4698589 C93.9993786,40.471124 94,40.4717566 94,40.4730217 C94,41.3162123 93.3282933,42 92.5,42 C91.6710853,42 91,41.3162123 91,40.4730217 L91,32 L93.9993786,32 L93.9993786,40.4698589 Z" id="Fill-1" fill="#302F30"></path>
                        <path d="M92,32 L92,40.735183 C92,41.4333724 92.4474768,42 92.9994851,42 C93.5525232,42 94,41.4333724 94,40.735183 L94,32 L92,32 Z" id="Fill-3" fill="#F6FAFD"></path>
                        <path d="M92,41 L92,32" id="Stroke-5" stroke="#C5CCDE" stroke-width="0.341"></path>
                        <path d="M92,41 L92,32" id="Stroke-7" stroke="#C5CCDE" stroke-width="0.341"></path>
                        <path d="M93,41 L93,32" id="Stroke-9" stroke="#C5CCDE" stroke-width="0.341"></path>
                        <path d="M93,41 L93,32" id="Stroke-11" stroke="#C5CCDE" stroke-width="0.341"></path>
                        <mask id="mask-2" fill="white">
                            <use xlink:href="#path-1"></use>
                        </mask>
                        <g id="Clip-14"></g>
                        <polygon id="Fill-13" fill="#579AD4" mask="url(#mask-2)" points="95 39 98 39 98 36 95 36"></polygon>
                        <polygon id="Fill-15" fill="#F6FAFD" mask="url(#mask-2)" points="95 39 98 39 98 36 95 36"></polygon>
                        <path d="M95,39 L95,36" id="Stroke-16" stroke="#C5CCDE" stroke-width="0.341" mask="url(#mask-2)"></path>
                        <path d="M96,39 L96,36" id="Stroke-17" stroke="#C5CCDE" stroke-width="0.341" mask="url(#mask-2)"></path>
                        <path d="M96,39 L96,36" id="Stroke-18" stroke="#C5CCDE" stroke-width="0.341" mask="url(#mask-2)"></path>
                        <path d="M97,39 L97,36" id="Stroke-19" stroke="#C5CCDE" stroke-width="0.341" mask="url(#mask-2)"></path>
                        <polygon id="Fill-20" fill="#3E759E" mask="url(#mask-2)" points="97.7936918 48 95.3102378 48 95 39 98 39"></polygon>
                        <path d="M100,59.199253 C100,56.3271757 99.5527022,53.7264465 98.8277936,51.8443562 C98.1041853,49.9622658 97.1049167,50.0000563 96.0003251,50.0000563 C94.8950833,50.0000563 93.8958147,49.9622658 93.1722064,51.8443562 C92.4485981,53.7264465 92,56.3271757 92,59.199253 C92,62.0719498 92.4485981,64.6720595 93.1722064,66.5547694 C93.8958147,68.4368597 94.2150345,69 95.318976,69 C96.4229175,69 98.1041853,68.4368597 98.8277936,66.5547694 C99.5527022,64.6720595 100,62.0719498 100,59.199253" id="Fill-21" fill="#E29088" mask="url(#mask-2)"></path>
                        <path d="M91,59.199253 C91,56.3271757 90.5527385,53.7264465 89.8285389,51.8443562 C89.1049894,49.9622658 88.1045019,50.0000563 87,50.0000563 C85.8954981,50.0000563 84.8956607,49.9622658 84.1721112,51.8443562 C83.4485617,53.7264465 83,56.3271757 83,59.199253 C83,62.0719498 83.4485617,64.6720595 84.1721112,66.5547694 C84.8956607,68.4368597 86.5767918,69 87.6819438,69 C88.7864456,69 89.1049894,68.4368597 89.8285389,66.5547694 C90.5527385,64.6720595 91,62.0719498 91,59.199253" id="Fill-22" fill="#E29088" mask="url(#mask-2)"></path>
                        <path d="M78,66.8740412 C78,75.0074996 79.6932524,84 91.4996952,84 C103.306138,84 105,75.0074996 105,66.8740412 C105,58.7399864 98.955979,56 91.4996952,56 C84.044021,56 78,58.7399864 78,66.8740412" id="Fill-23" fill="#3473B2" mask="url(#mask-2)"></path>
                        <path d="M107.363508,72 L104.249524,69.5817533 L101.133755,67.5101932 L104.272718,60.3545063 C104.272718,60.3545063 99.8247631,51.0936302 98.3986105,48.2143574 C98.1232524,47.6597809 97.4987903,46.9401156 96.9147694,46.166032 C96.642385,45.8058937 94.9723947,45.1553211 95.0003469,44.8477666 C95.0746876,44.0259907 96.525224,44.981672 97.6766133,44.7523819 C98.2529027,44.6374311 98.1595307,43.7967005 98.0667535,42.3066203 C97.9686237,40.7358299 97.8996355,39.0201282 98.3825529,39.0005621 C99.0498353,38.9742702 98.631743,39.873699 99.200301,40.9877434 C99.9996125,42.5548651 100.139373,42.3041745 100.687116,43.5674104 C101.300873,44.981672 101.181333,47.2085379 101.181333,47.2085379 L108.498245,58.1777785 C108.615406,58.3648793 108.71532,58.6210728 108.795608,58.9035583 C109.022199,59.6990422 109.047772,60.5403842 108.934179,61.3603258 L107.363508,72 Z" id="Fill-25" fill="#EC998D" mask="url(#mask-2)"></path>
                        <path d="M74.3051631,76 L76.9433822,73.0297704 L79.6381978,70.4059232 L78.6719316,63.2339506 C78.6719316,63.2339506 82.0470835,56.6594877 82.959701,53.534623 C83.1359753,52.9327835 85.9027155,48.6753719 84.696504,47.7401392 C84.4235441,47.5279799 83.8558112,48.5627975 83.6070227,49.3539104 C83.3594133,50.1444046 82.7386212,49.1955641 82.92197,47.6417913 C83.1053189,46.0886371 84.5343788,45.4936015 83.9919963,45.0958802 C83.4496138,44.6987774 82.1119336,45.5968977 81.4993951,46.6546013 C81.0796382,47.3795303 80.0485219,47.4611776 79.4065062,48.6889797 C78.7633113,49.9161633 80.074462,53.0336055 80.074462,53.0336055 L74.1825375,61.8255347 C74.0994115,62.0333642 74.0451732,62.3067589 74.0133377,62.6024211 C73.9249058,63.4355946 74.3051631,76 74.3051631,76" id="Fill-26" fill="#EC998D" mask="url(#mask-2)"></path>
                        <path d="M80.1366833,67.5226131 C81.9300533,67.1035941 80.7098032,65.1275709 84.4152043,64.2396363 C86.2030695,63.8109782 87.5554369,64.077472 88.6698708,64.1302037 C90.5586589,64.218657 92.4401072,64.218657 94.3301186,64.1302037 C95.4445526,64.077472 96.7963083,63.8109782 98.5853968,64.2396363 C102.290186,65.1275709 101.070548,67.1035941 102.863306,67.5226131 C104.038906,67.797045 97.3516903,68.1582292 93.5355799,67.9251889 C92.1770959,67.8418387 90.8228935,67.8418387 89.4644096,67.9251889 C85.6489108,68.1582292 78.9610839,67.797045 80.1366833,67.5226131" id="Fill-27" fill="#353035" mask="url(#mask-2)"></path>
                        <path d="M107.994813,73.3736406 C107.994813,75.2665069 107.491652,77.1835576 105.761765,78.8257327 C105.106112,79.5671889 104.315871,80.2555576 103.339182,80.8218249 C100.24366,82.6167742 96.0140179,83.9976406 91.3306048,83.9994101 C91.3219615,83.9994101 91.3133182,84 91.3052924,84 C91.202808,84 91.1027931,83.9994101 91.0003087,83.9994101 C90.8978243,83.9994101 90.7978094,84 90.695325,84 C90.6866818,84 90.6780385,83.9994101 90.6700126,83.9994101 C85.9865995,83.9976406 81.7563402,82.6167742 78.6608177,80.8218249 C77.6841292,80.2555576 76.8945055,79.5677788 76.2394697,78.8263226 C74.5083478,77.1841475 74.0051865,75.2665069 74.0051865,73.3736406 C74.0051865,73.2892903 73.7471234,70.0450507 76.8716626,69.1814931 C79.0929808,68.5668571 82.7379678,68.2442028 86.4020934,68.0990968 C87.0169998,68.0719631 87.6442536,68.0530876 88.2820029,68.0395207 C88.9290127,68.0241843 89.5630577,68.0135668 90.1872247,68.0082581 C90.3600899,68.0076682 90.521225,68 90.695325,68 C90.7941052,68 90.9002938,68.0023594 91.0003087,68.0023594 C91.1003236,68.0023594 91.2065122,68 91.3052924,68 C91.478775,68 91.6405274,68.0076682 91.8127753,68.0082581 C92.4375596,68.0135668 93.0703699,68.0241843 93.7179971,68.0395207 C94.355129,68.0530876 94.9830002,68.0719631 95.5979066,68.0990968 C99.2620322,68.2442028 102.907637,68.5668571 105.128337,69.1814931 C108.252877,70.0450507 107.994813,73.2892903 107.994813,73.3736406" id="Fill-28" fill="#353035" mask="url(#mask-2)"></path>
                        <path d="M99,67 L97.6463176,65.163894 C96.81747,64.0394331 95.288231,62 95.288231,62 L94,65.418053 L99,67 Z" id="Fill-29" fill="#664926" mask="url(#mask-2)"></path>
                        <path d="M83,67 L84.3545744,65.163894 C85.1832192,64.0394331 86.7108611,62 86.7108611,62 L88,65.418053 L83,67 Z" id="Fill-30" fill="#664926" mask="url(#mask-2)"></path>
                        <path d="M83,71 C83,75.4181614 86.5822185,79 91.0003084,79 C95.4183984,79 99,75.4181614 99,71 C99,66.5818386 95.4183984,63 91.0003084,63 C86.5822185,63 83,66.5818386 83,71" id="Fill-31" fill="#EC998D" mask="url(#mask-2)"></path>
                        <path d="M90,62.6166071 C90,62.6166071 90.261642,63 90.9986541,63 C91.7372813,63 92,62.6166071 92,62.6166071 C92,62.6166071 91.5520861,62 90.9997308,62 C90.4479139,62 90,62.6166071 90,62.6166071" id="Fill-32" fill="#EC998D" mask="url(#mask-2)"></path>
                        <path d="M82.0229229,72.0839101 C82.0520412,70.8303343 82.2936611,69.6042761 82.7465436,68.5335389 C82.7998239,68.4075698 82.8661145,68.2748743 82.9423177,68.1397327 C83.8815378,66.4740057 84.4985979,65.4142755 86.4073953,65.1262589 C87.1886331,65.0088508 88.3093779,65.7903483 88.3093779,65.7903483 C88.3093779,65.7903483 91.7899439,64.6193251 95.4557519,65.1280934 C97.3682666,65.394096 99.1184622,66.4740057 100.057063,68.1397327 C100.133266,68.2748743 100.200176,68.4075698 100.253456,68.5335389 C100.705719,69.6042761 100.947959,70.8303343 100.977077,72.0839101 C100.979555,72.1634051 101,72.2386196 101,72.3181147 C101,73.6548545 100.734218,74.9279983 100.253456,76.0867915 C99.7726947,77.2449731 99.0769532,78.2881928 98.2182731,79.1644728 C97.3577344,80.0407528 96.3342572,80.7494817 95.198024,81.2392935 C94.0617908,81.7291053 92.8115625,82 91.5,82 C90.1884375,82 88.9382092,81.7291053 87.801976,81.2392935 C86.6657428,80.7494817 85.6422656,80.0407528 84.7817269,79.1644728 C83.9224273,78.2881928 83.2266858,77.2449731 82.7465436,76.0867915 C82.2651624,74.9279983 82,73.6548545 82,72.3181147 C82,72.2386196 82.0204448,72.1634051 82.0229229,72.0839101" id="Fill-33" fill="#664926" mask="url(#mask-2)"></path>
                        <path d="M125.919926,53.6928343 L116.642174,59.9706845 C116.560731,60.0254073 116.451732,60.0012275 116.398457,59.9172344 L108.028212,46.5597814 C107.975549,46.4757882 107.998819,46.3625248 108.079649,46.3084383 L117.358626,40.0293155 C117.439457,39.9745927 117.547843,39.9987725 117.601118,40.0827656 L125.971363,53.4408549 C126.024638,53.5248481 126.001369,53.6381115 125.919926,53.6928343" id="Fill-34" fill="#FFB452" mask="url(#mask-2)"></path>
                        <polygon id="Fill-35" fill="#F6FAFD" mask="url(#mask-2)" points="119 45.0333545 112.901145 48 112 46.9671528 118.099534 44"></polygon>
                        <path d="M125.409093,58.9813396 L115.200005,55.1761038 C115.042555,55.117552 114.960754,54.9374896 115.018568,54.7782036 L120.200914,40.2051074 C120.258728,40.043303 120.43463,39.9601972 120.592081,40.018749 L130.800553,43.8239848 C130.957389,43.8825366 131.038575,44.0619695 130.981991,44.2225147 L125.798414,58.7930925 C125.741215,58.956156 125.567158,59.0398914 125.409093,58.9813396" id="Fill-36" fill="#8A5493" mask="url(#mask-2)"></path>
                        <polygon id="Fill-37" fill="#F6FAFD" mask="url(#mask-2)" points="127.467021 47 121 45.1515202 121.531694 44 128 45.8484798"></polygon>
                        <path d="M78.0012134,36.0106097 L78.0012134,25 L82,25 L82,36.0148258 C82,37.1110082 81.1051115,38 80.0003034,38 C78.8961019,38 78,37.1110082 78,36.0148258 C78,36.0130189 78.0012134,36.0124166 78.0012134,36.0106097" id="Fill-38" fill="#8E2A91" mask="url(#mask-2)"></path>
                        <path d="M82,25 L82,36.3560082 C82,37.2638935 81.3286199,38 80.5005656,38 C79.6719457,38 79,37.2638935 79,36.3560082 L79,25 L82,25 Z" id="Fill-39" fill="#F6FAFD" mask="url(#mask-2)"></path>
                        <path d="M81,37 L81,25" id="Stroke-40" stroke="#C5CCDE" stroke-width="0.341" mask="url(#mask-2)"></path>
                        <path d="M81,37 L81,25" id="Stroke-41" stroke="#C5CCDE" stroke-width="0.341" mask="url(#mask-2)"></path>
                        <path d="M80,37 L80,25" id="Stroke-42" stroke="#C5CCDE" stroke-width="0.341" mask="url(#mask-2)"></path>
                        <path d="M79,37 L79,25" id="Stroke-43" stroke="#C5CCDE" stroke-width="0.341" mask="url(#mask-2)"></path>
                        <path d="M82.0006068,37.0392639 L82.0006068,25 L86,25 L86,37.0434193 C86,38.1238128 85.1049757,39 84,39 C82.8956311,39 82,38.1238128 82,37.0434193 C82,37.0416384 82.0006068,37.0410448 82.0006068,37.0392639" id="Fill-44" fill="#8E2A91" mask="url(#mask-2)"></path>
                        <path d="M86,25 L86,37.3837478 C86,38.2763141 85.3284933,39 84.5008486,39 C83.6715067,39 83,38.2763141 83,37.3837478 L83,25 L86,25 Z" id="Fill-45" fill="#F6FAFD" mask="url(#mask-2)"></path>
                        <path d="M85,38 L85,25" id="Stroke-46" stroke="#C5CCDE" stroke-width="0.341" mask="url(#mask-2)"></path>
                        <path d="M85,38 L85,25" id="Stroke-47" stroke="#C5CCDE" stroke-width="0.341" mask="url(#mask-2)"></path>
                        <path d="M84,38 L84,25" id="Stroke-48" stroke="#C5CCDE" stroke-width="0.341" mask="url(#mask-2)"></path>
                        <path d="M83,38 L83,25" id="Stroke-49" stroke="#C5CCDE" stroke-width="0.341" mask="url(#mask-2)"></path>
                        <path d="M86.0012134,37.0392639 L86.0012134,25 L90,25 L90,37.0434193 C90,38.1238128 89.1051115,39 87.9996966,39 C86.8961019,39 86,38.1238128 86,37.0434193 C86,37.0416384 86.0012134,37.0410448 86.0012134,37.0392639" id="Fill-50" fill="#332933" mask="url(#mask-2)"></path>
                        <path d="M91,25 L91,37.3837478 C91,38.2763141 90.3284933,39 89.5002829,39 C88.6715067,39 88,38.2763141 88,37.3837478 L88,25 L91,25 Z" id="Fill-51" fill="#F6FAFD" mask="url(#mask-2)"></path>
                        <path d="M90,38 L90,25" id="Stroke-52" stroke="#C5CCDE" stroke-width="0.341" mask="url(#mask-2)"></path>
                        <path d="M90,38 L90,25" id="Stroke-53" stroke="#C5CCDE" stroke-width="0.341" mask="url(#mask-2)"></path>
                        <path d="M89,38 L89,25" id="Stroke-54" stroke="#C5CCDE" stroke-width="0.341" mask="url(#mask-2)"></path>
                        <path d="M88,38 L88,25" id="Stroke-55" stroke="#C5CCDE" stroke-width="0.341" mask="url(#mask-2)"></path>
                        <path d="M62.3945141,60.455259 C55.3466552,62.5323842 47.9528597,58.4871076 45.8814438,51.4224737 C43.8094273,44.3566356 44.7385315,37 55.8493444,37 C65.0581063,37 69.8381582,38.9314254 71.4050831,43.9014742 C73.6188375,50.9227595 69.442373,58.3781338 62.3945141,60.455259" id="Fill-57" fill="#606572" mask="url(#mask-2)"></path>
                        <path d="M63,65 L63.1397843,60 C63.1397843,60 65.7001955,61.7904281 66.5452289,60.6214851 C66.7684236,60.3127511 67.1296769,59.8622748 67.2234417,60.2674165 C67.3511458,60.820039 67.0594971,60.8682429 67.1452085,61.1758292 C67.233796,61.489728 67.3551725,61.3835648 67.3983158,61.2291978 C67.5127894,60.8188913 67.3914129,60.4659704 67.5795177,60.467692 C67.7365593,60.4688397 67.8688655,61.0053942 67.9885162,61.9327442 C68.0960868,62.7705727 67.4230513,63.6875933 67.0094509,63.8086767 L63,65 Z" id="Fill-58" fill="#EC998D" mask="url(#mask-2)"></path>
                        <path d="M65.1993154,57.8439532 C65.3528208,56.0193458 68.6251666,56.2489732 68.9754269,52.468188 C69.1453794,50.6442012 68.3912535,49.5301977 68.0196729,48.5359729 C67.3892042,46.8516244 66.8933574,45.1343833 66.5284774,43.3687343 C66.3128388,42.3285839 66.3548701,40.9737819 65.2431741,39.5339556 C62.9412019,36.5487986 60.3115078,38.5465575 59.2132131,37.0968014 C58.4938087,36.1472608 59.7163697,42.4142288 61.0686794,45.7928556 C61.5505159,46.9962276 61.9074769,48.2318716 62.1407808,49.5084762 C62.7986611,53.095009 65.0988059,59.0386366 65.1993154,57.8439532" id="Fill-59" fill="#D68178" mask="url(#mask-2)"></path>
                        <path d="M60,39 L62.6144821,39.6395182 C64.2139754,40.0318325 65.8502017,40.3358188 67.4748281,40.6724978 C68.0148666,40.7843418 68.0058444,41.4485231 67.9981112,41.6613134 C67.963956,42.6317752 63.391029,43 63.391029,43 L60,39 Z" id="Fill-60" fill="#323E46" mask="url(#mask-2)"></path>
                        <path d="M65,55 L66.6662875,52.9986621 C67.6851678,51.7738484 68.7823777,50.6116164 69.8516976,49.4251181 C70.2071485,49.0311087 69.8279613,48.4142317 69.7039392,48.2201006 C69.1336748,47.3279918 65.3857147,49.4359741 65.3857147,49.4359741 L65,55 Z" id="Fill-61" fill="#323E46" mask="url(#mask-2)"></path>
                        <path d="M68.0957457,46.4150376 C67.728624,45.2506022 68.4500821,44.0179715 69.6981741,43.6752899 L73.5751742,43.0711929 C74.5730391,42.7978432 75.6299599,43.3360181 75.9234138,44.268021 C76.2168676,45.1994557 75.6409188,46.1865832 74.6418363,46.4605012 L71.0321106,47.9107887 C69.7840185,48.252902 68.4628674,47.5806096 68.0957457,46.4150376" id="Fill-62" fill="#D7D2CE" mask="url(#mask-2)"></path>
                        <polyline id="Fill-64" fill="#EC998D" mask="url(#mask-2)" points="61 35.023 60.9801762 35 58 35.251"></polyline>
                        <path d="M74.9281044,42.930058 C74.4931279,41.2380417 73.5477706,40.4892121 72.2908255,40.0952449 C71.8627039,39.9604206 70.954114,39.8069193 70.7771321,39.4187886 C69.7389216,37.1582922 66.1394597,29.3799199 64.6182882,29.0373144 C62.814195,28.6322577 54.0043622,31.6585096 54,31.6590933 L59.5998555,37.3754119 L63.5227456,34.9865113 C63.5794545,35.1044097 68.3455011,41.224034 68.8328244,41.6816196 C68.8328244,41.6816196 67.7360354,43.6666308 68.5717138,43.8032061 C69.0247625,43.877914 68.018334,41.9553539 70.4767615,41.8777277 C73.7783455,41.7726698 72.4304168,45.7765442 74.0058046,44.8648748 C74.3672464,44.6559263 75.2577643,44.211181 74.9281044,42.930058" id="Fill-65" fill="#EC998D" mask="url(#mask-2)"></path>
                        <path d="M70.0776999,46.9985496 C68.9738943,47.040174 68.0442401,46.1807821 68.0015908,45.0772275 C67.957926,43.9731652 68.8185288,43.0437224 69.9223344,43.0015904 C71.0266478,42.9579355 71.9557942,43.8183427 71.9984435,44.9218973 C72.0416006,46.025452 71.1820132,46.9554023 70.0776999,46.9985496" id="Fill-66" fill="#D7D2CE" mask="url(#mask-2)"></path>
                        <path d="M70.6142979,46.9368786 C70.1213343,47.0740666 69.6238943,46.9811915 69.217661,46.7207771 C68.8114276,46.4603626 68.1494799,46.1422806 68.0224621,45.6080972 C67.8965633,45.0733066 68.3302146,44.421967 68.5702616,43.9812656 C68.809749,43.5411713 69.2047913,43.2000223 69.6977549,43.0628342 C70.1918376,42.9262532 70.6887181,43.0185213 71.0943919,43.2795428 C71.5011848,43.5399572 71.8150923,43.9691251 71.9415506,44.5027016 C72.0685685,45.0380991 71.9823978,45.5783528 71.7429104,46.0178402 C71.5017443,46.4585415 71.1072615,46.7990835 70.6142979,46.9368786" id="Fill-67" fill="#614D3F" mask="url(#mask-2)"></path>
                        <path d="M63.1653507,65.8400121 C60.9949176,66.4713185 58.2127888,65.2025526 55.6250364,62.5948758 C53.036663,59.9859684 50.641424,56.0399959 49.2404234,51.3181196 C47.8394228,46.5974739 47.6984533,41.9937368 48.4511185,38.4132575 C49.2031627,34.8321628 51.9989538,31.9383676 54.1706289,31.306446 C56.341683,30.673909 56.5907083,30.821583 58.3065614,33.6839974 C60.0205515,36.5464119 62.0506361,42.4576793 63.4516367,47.1795556 C64.8526373,51.9014319 65.8661271,56.2498161 65.9878452,59.5755577 C66.1089424,62.9031453 65.3364048,65.2074751 63.1653507,65.8400121" id="Fill-68" fill="#D68178" mask="url(#mask-2)"></path>
                        <path d="M61.199887,55.6564374 C56.9528052,56.9332234 52.5246765,54.5408649 51.3108808,50.3117806 C50.0952807,46.0833116 52.5523448,41.6204062 56.8006296,40.3436202 C61.0465085,39.0668343 65.4734342,41.4585774 66.6896358,45.6870464 C67.9040329,49.9161307 65.4469688,54.3784208 61.199887,55.6564374" id="Fill-69" fill="#EC998D" mask="url(#mask-2)"></path>
                        <path d="M67.6067781,47 C67.6067781,47 67.192203,46.891103 67.0416611,46.1535223 C66.8907292,45.4159416 67.1984431,45 67.1984431,45 C67.1984431,45 67.8704214,45.2020769 67.9831328,45.7544204 C68.0958442,46.306764 67.6067781,47 67.6067781,47" id="Fill-70" fill="#EC998D" mask="url(#mask-2)"></path>
                        <path d="M60.7195592,57.4989524 C61.9325448,57.1135308 63.0598202,56.534163 63.9740623,55.7954382 C64.0833739,55.7089654 64.1933065,55.607051 64.3038603,55.4958717 C65.6615595,54.1228072 66.1956955,52.144433 65.9367017,50.2370901 C65.8311166,49.4563642 65.6528643,48.6929329 65.3547418,48.2111559 L64.3498208,46.5897908 L64.3125555,44.6861539 C64.301997,44.1203747 64.0361712,43.3828852 63.6995413,42.6688669 C62.8803257,40.924587 61.3536904,39.5484341 59.4643395,39.1259527 C59.3109307,39.0907459 59.1631116,39.0654218 59.0246089,39.0499802 C57.8544784,38.9233593 56.5905635,39.0400976 55.3608085,39.3686942 C55.2825514,39.3903124 55.2036731,39.3915478 55.1260371,39.4144013 C53.8229936,39.7948816 52.6578318,40.4119268 51.6647115,41.2019176 C50.6722122,41.9919084 49.8523755,42.9548449 49.2418456,44.0258723 C48.6319368,45.098135 48.2300926,46.2784887 48.0735784,47.5057849 C47.9170641,48.7324633 48.0065008,50.0048488 48.3779117,51.2593221 C48.7487014,52.5137954 49.3654422,53.6311475 50.164783,54.5798777 C50.9635027,55.5267549 51.9435801,56.3031571 53.0410433,56.8769659 C54.1366433,57.450157 55.35025,57.8176664 56.614786,57.9479933 C57.8793219,58.0770849 59.1954082,57.9689938 60.4978306,57.5885135 C60.5754667,57.5650423 60.6431653,57.5236589 60.7195592,57.4989524" id="Fill-71" fill="#323E46" mask="url(#mask-2)"></path>
                        <path d="M88.2904894,26.7060709 L95.9516268,22.0911578 C96.241236,21.9166012 96.6244499,22.000268 96.8066336,22.2777527 L98.9048869,25.4751465 C99.0870706,25.7526311 98.9997481,26.1191998 98.7095106,26.2937563 L91.0483732,30.9086695 C90.758764,31.083226 90.3755501,31.0001611 90.1933664,30.7226765 L88.0951131,27.5246807 C87.9129294,27.2471961 88.0002519,26.8806274 88.2904894,26.7060709" id="Fill-72" fill="#E4E6EA" mask="url(#mask-2)"></path>
                        <path d="M89.0540125,26.0227979 L95.4470271,22.0178654 C95.5015664,21.9835124 95.5724049,22.0003766 95.6068838,22.0540921 L97.9821664,25.8185538 C98.0160185,25.872894 98.0003462,25.9434737 97.9464338,25.9778267 L91.5521654,29.9821346 C91.4982529,30.0164876 91.4274145,29.9996234 91.3929356,29.9459079 L89.0176529,26.1814462 C88.9838009,26.1277306 89.0001,26.0565263 89.0540125,26.0227979" id="Fill-73" fill="#283338" mask="url(#mask-2)"></path>
                        <path d="M89.0768303,27.7661793 C88.92967,27.5326887 89.0003303,27.2238974 89.2339181,27.0767983 C89.4675059,26.9296993 89.7764257,27.0003302 89.9230021,27.2338207 C90.0701624,27.4673113 90.000086,27.7766863 89.7664982,27.9232017 C89.5323265,28.0703007 89.2239906,27.9996698 89.0768303,27.7661793" id="Fill-74" fill="#D6D3D2" mask="url(#mask-2)"></path>
                        <path d="M89.090304,28.2670049 L89.4676185,28.0295458 C89.5577235,27.9732314 89.6769248,27.9995115 89.7332404,28.0905531 L89.9697659,28.4678596 C90.0270201,28.5579627 90.0007395,28.6771615 89.909696,28.7334759 L89.5323815,28.9699964 C89.4422765,29.0272494 89.3230752,29.0000307 89.2667596,28.9099277 L89.0302341,28.5316826 C88.9729799,28.4425181 88.9992605,28.3233193 89.090304,28.2670049 Z" id="Stroke-75" stroke="#323E46" stroke-width="0.1" mask="url(#mask-2)"></path>
                        <path d="M96.693,24 L96,23" id="Stroke-76" stroke="#323E46" stroke-width="0.1" mask="url(#mask-2)"></path>
                        <polygon id="Fill-77" fill="#CE3E30" mask="url(#mask-2)" points="174.775412 27 175 27.0667849 174.224588 29 174 28.9332151"></polygon>
                        <polygon id="Fill-78" fill="#C4C4C4" mask="url(#mask-2)" points="174.887528 23 175 23.0441836 174.112472 26 174 25.9551761"></polygon>
                        <path d="M174.296243,26.8675256 C174.268806,26.9701506 174.182005,27.025013 174.102687,26.9888683 C174.02287,26.9540146 173.980967,26.841708 174.008404,26.739083 L174.703808,24.1327954 C174.731245,24.0301704 174.818046,23.975308 174.897364,24.0108072 C174.976682,24.0463064 175.019084,24.158613 174.991647,24.261238 L174.296243,26.8675256 Z" id="Fill-79" fill="#C4C4C4" mask="url(#mask-2)"></path>
                        <path d="M173.566664,28 L173.955454,28.6681683 C174.00162,28.7469885 174.012482,28.8459001 173.985326,28.9350235 L173.74816,29.7160129 C173.681626,29.9359881 173.470711,30.0529305 173.277448,29.9766861 L173,29.8679864 L173.566664,28 Z" id="Fill-80" fill="#CE3E30" mask="url(#mask-2)"></path>
                        <path d="M172.389238,28.2708218 L173,28 L172.481928,30 L172.228271,29.8830667 C172.051995,29.8014341 171.957649,29.5449531 172.018477,29.3088803 L172.235306,28.4732488 C172.260134,28.3772752 172.316824,28.302813 172.389238,28.2708218" id="Fill-81" fill="#ED443B" mask="url(#mask-2)"></path>
                        <polygon id="Fill-82" fill="#FF5050" mask="url(#mask-2)" points="173.085464 29.9781779 173.170928 30 173.818115 28.6012002 174 28 173.647188 28.5575559 173 29.9563557"></polygon>
                        <path d="M175.207714,23.141815 C175.187714,23.197815 175.127714,23.226815 175.071714,23.206815 C175.016714,23.188815 174.986714,23.126815 175.005714,23.071815 C175.024714,23.015815 175.086714,22.986815 175.142714,23.005815 C175.197714,23.024815 175.227714,23.085815 175.207714,23.141815" id="Fill-83" fill="#C4C4C4" mask="url(#mask-2)"></path>
                        <polygon id="Fill-84" fill="#CE3E30" mask="url(#mask-2)" points="172.892351 24 173 24.1493797 171.108278 25 171 24.8511166"></polygon>
                        <polygon id="Fill-85" fill="#C4C4C4" mask="url(#mask-2)" points="174.95168 22 175 22.0714286 173.04878 23 173 22.9289555"></polygon>
                        <path d="M172.21099,23.9708114 C172.143407,24.0316782 172.057308,23.9942781 172.018425,23.8872111 C171.980004,23.7794108 172.003612,23.6430103 172.071195,23.5821435 L173.788547,22.0296719 C173.856593,21.9680717 173.942692,22.0054718 173.981575,22.1132721 C174.019996,22.2196058 173.996388,22.3567396 173.928805,22.4183398 L172.21099,23.9708114 Z" id="Fill-86" fill="#C4C4C4" mask="url(#mask-2)"></path>
                        <path d="M172,24 L171.87395,25.0716442 C171.859544,25.1982109 171.794118,25.3094783 171.698679,25.3734571 L170.862545,25.9256216 C170.627251,26.0807005 170.327131,25.9854278 170.192677,25.7128227 L170,25.3213005 L172,24 Z" id="Fill-87" fill="#CE3E30" mask="url(#mask-2)"></path>
                        <path d="M170.237471,24.01826 L171,24.254975 L169.22821,25 L169.056987,24.7789615 C168.938407,24.625332 169.010725,24.4293759 169.219702,24.3415875 L169.96043,24.0304093 C170.044978,23.9943534 170.147605,23.9904342 170.237471,24.01826" id="Fill-88" fill="#ED443B" mask="url(#mask-2)"></path>
                        <polygon id="Fill-89" fill="#FF5050" mask="url(#mask-2)" points="169.036535 24.9466866 169.07307 25 170.461402 24.3303438 171 24 170.388922 24.2232187 169 24.8933732"></polygon>
                        <path d="M175.159829,22.1998626 C175.107829,22.2288626 175.043829,22.2118626 175.013829,22.1598626 C174.984829,22.1088626 175.002829,22.0438626 175.054829,22.0138626 C175.104829,21.9848626 175.170829,22.0028626 175.199829,22.0538626 C175.228829,22.1048626 175.210829,22.1708626 175.159829,22.1998626" id="Fill-90" fill="#C4C4C4" mask="url(#mask-2)"></path>
                        <polygon id="Fill-91" fill="#CE3E30" mask="url(#mask-2)" points="177.113797 29 177 28.8552005 177.886203 27 178 27.1441196"></polygon>
                        <polygon id="Fill-92" fill="#C4C4C4" mask="url(#mask-2)" points="175.106061 31 175 30.9342204 176.893308 29 177 29.0657796"></polygon>
                        <path d="M177.662468,28.0589293 C177.726758,27.9921048 177.844828,27.9805486 177.927045,28.0323 C178.00988,28.0845538 178.024098,28.1805199 177.959808,28.2473444 L176.337108,29.9410707 C176.273437,30.0078952 176.155366,30.0194514 176.073149,29.9677 C175.990932,29.9154462 175.975478,29.8194801 176.039768,29.7526556 L177.662468,28.0589293 Z" id="Fill-93" fill="#C4C4C4" mask="url(#mask-2)"></path>
                        <path d="M178.298238,27 L178.013648,26.1632909 C177.980421,26.0643313 178.008591,25.9592562 178.090213,25.878643 L178.800965,25.1759185 C179.00249,24.9768874 179.373035,24.9418623 179.631622,25.0958613 L180,25.3176865 L178.298238,27 Z" id="Fill-94" fill="#CE3E30" mask="url(#mask-2)"></path>
                        <path d="M178.976935,27.999977 L178,27.9914217 L179.480794,26 L179.801204,26.2619253 C180.026118,26.4448781 180.065698,26.7831434 179.891672,27.0180864 L179.272842,27.8499294 C179.201849,27.9460125 179.093162,28.0012932 178.976935,27.999977" id="Fill-95" fill="#ED443B" mask="url(#mask-2)"></path>
                        <polygon id="Fill-96" fill="#FF5050" mask="url(#mask-2)" points="178.960065 26.0490006 178.92013 26 178.240831 27.379755 178 28 178.320701 27.478401 179 26.0980013"></polygon>
                        <path d="M175.02207,32.0420703 C175.05907,31.9950703 175.12607,31.9860703 175.17207,32.0220703 C175.21907,32.0590703 175.22707,32.1260703 175.19107,32.1730703 C175.15507,32.2190703 175.08707,32.2280703 175.04207,32.1910703 C174.99507,32.1550703 174.98607,32.0880703 175.02207,32.0420703" id="Fill-97" fill="#C4C4C4" mask="url(#mask-2)"></path>
                        <path d="M156.500267,15 C155.119666,15 154,16.1192513 154,17.5 C154,18.8807487 155.119666,20 156.500267,20 C157.880868,20 159,18.8807487 159,17.5 C159,16.1192513 157.880868,15 156.500267,15 M156.500267,15.3647059 C157.677682,15.3647059 158.635333,16.3224599 158.635333,17.5 C158.635333,18.6775401 157.677682,19.6358289 156.500267,19.6358289 C155.322853,19.6358289 154.364667,18.6775401 154.364667,17.5 C154.364667,16.3224599 155.322853,15.3647059 156.500267,15.3647059" id="Fill-98" fill="#AA2525" mask="url(#mask-2)"></path>
                        <path d="M159,17 C159,18.1050089 158.1045,19 157,19 C155.8955,19 155,18.1050089 155,17 C155,15.8954996 155.8955,15 157,15 C158.1045,15 159,15.8954996 159,17" id="Fill-99" fill="#ECEBEA" mask="url(#mask-2)"></path>
                        <path d="M159,17 C159,18.1043711 158.104504,19 157.000297,19 C155.895496,19 155,18.1043711 155,17 C155,15.8962236 155.895496,15 157.000297,15 C158.104504,15 159,15.8962236 159,17 Z" id="Stroke-100" stroke="#C4C0BC" stroke-width="0.204" mask="url(#mask-2)"></path>
                        <path d="M156.499808,19 C156.223841,19 156,18.6065574 156,18.1208174 L156,16.8785089 C156,16.3934426 156.223841,16 156.499808,16 C156.776543,16 157,16.3934426 157,16.8785089 L157,18.1208174 C157,18.6065574 156.776543,19 156.499808,19" id="Fill-101" fill="#E5E5E5" mask="url(#mask-2)"></path>
                        <path d="M158.499373,18 C158.22522,18 158,17.7898444 158,17.5327267 L158,16.4678603 C158,16.2101556 158.22522,16 158.499373,16 C158.774153,16 159,16.2101556 159,16.4678603 L159,17.5327267 C159,17.7898444 158.774153,18 158.499373,18" id="Fill-102" fill="#C1C1C1" mask="url(#mask-2)"></path>
                        <path d="M158.758,17.379 C158.758,17.588 158.588,17.758 158.378,17.758 C158.169,17.758 158,17.588 158,17.379 C158,17.17 158.169,17 158.378,17 C158.588,17 158.758,17.17 158.758,17.379" id="Fill-103" fill="#ECEBEA" mask="url(#mask-2)"></path>
                        <path d="M159,16.500401 C159,16.776263 158.776263,17 158.499599,17 C158.223737,17 158,16.776263 158,16.500401 C158,16.222935 158.223737,16 158.499599,16 C158.776263,16 159,16.222935 159,16.500401" id="Fill-104" fill="#ECEBEA" mask="url(#mask-2)"></path>
                        <path d="M165,20.6262042 L165.531956,20.9804394 C165.531956,20.9804394 165.90917,21.1241504 166.685481,20.6325073 C167.325287,20.2265866 167.653526,19.8610058 167.792636,19.6782154 C167.848385,19.6057295 167.885898,19.515595 167.906738,19.4197876 L168,19 L165,20.6262042 Z" id="Fill-105" fill="#ECEBEA" mask="url(#mask-2)"></path>
                        <path d="M162,12.8224186 L162.00129,15.8127853 L165.285161,20.8557502 C165.285161,20.8557502 165.852903,21.3305365 167.292903,20.5573693 C168.733548,19.7835464 169,19.1638322 169,19.1638322 L167.540645,13.0191533 L165.398065,11 L162,12.8224186 Z" id="Fill-106" fill="#AA2525" mask="url(#mask-2)"></path>
                        <polygon id="Fill-107" fill="#892929" mask="url(#mask-2)" points="166.987224 12.6652244 165.058653 11 162 12.5029746 162.001161 14.9691725 162.022648 15 167 12.7171444"></polygon>
                        <path d="M162.037783,12.8832998 C162.037783,12.8832998 161.690543,11.9418025 163.10142,11.2374762 C164.51181,10.5337027 165.114245,11.5172164 164.982264,12.5808929 C164.849797,13.6451222 163.699959,14.3461314 162.884699,13.8225858 C162.133725,13.339951 162.037783,12.8832998 162.037783,12.8832998" id="Fill-108" fill="#ECEBEA" mask="url(#mask-2)"></path>
                        <path d="M162.656102,11.5857606 C162.656102,11.5857606 164.289559,10.2718308 164.896746,11.5797272 C164.896746,11.5797272 165.387105,12.4498705 164.230609,13.6598926 C163.458361,14.4080281 162.40208,13.7839115 162.081069,13.1128687 C161.725224,12.3714369 162.656102,11.5857606 162.656102,11.5857606 Z" id="Stroke-109" stroke="#C4C0BC" stroke-width="0.204" mask="url(#mask-2)"></path>
                        <path d="M163.029639,13.2983818 C163.029639,13.2983818 163.18721,12.9937388 163.479907,12.7507288 C163.8736,12.4249546 164.220535,12.1590523 164.220535,12.1590523 C164.220535,12.1590523 164.627787,11.8027551 164.905522,12.1567044 C165.18279,12.5106537 164.761511,12.8851474 164.761511,12.8851474 L163.826375,13.8237295 C163.826375,13.8237295 163.442502,14.1935273 163.141856,13.8618832 C162.913215,13.6088946 163.029639,13.2983818 163.029639,13.2983818" id="Fill-110" fill="#E5E5E5" mask="url(#mask-2)"></path>
                        <path d="M163.830232,12 C163.830232,12 162.891766,12.3697173 163.010363,12.7135942 C163.128224,13.0564772 163.707215,13.0470355 164.026176,12.9153485 C164.3444,12.7831646 165,12.3622633 165,12.3622633 L163.830232,12 Z" id="Fill-111" fill="#444444" mask="url(#mask-2)"></path>
                        <path d="M163.363637,12.9947724 C163.131267,12.9569798 162.970271,12.7154616 163.004617,12.4603617 L163.149513,11.4009885 C163.184395,11.1447076 163.402812,10.9663739 163.635182,11.0053475 C163.868089,11.0437306 164.030157,11.2846582 163.995275,11.5403487 L163.850379,12.6003124 C163.815497,12.8560028 163.596543,13.0331555 163.363637,12.9947724" id="Fill-112" fill="#C1C1C1" mask="url(#mask-2)"></path>
                        <path d="M163.753271,12.4352235 C163.722271,12.6422235 163.529271,12.7852235 163.321271,12.7532235 C163.114271,12.7222235 162.973271,12.5302235 163.004271,12.3232235 C163.035271,12.1162235 163.228271,11.9732235 163.434271,12.0042235 C163.642271,12.0362235 163.784271,12.2292235 163.753271,12.4352235" id="Fill-113" fill="#ECEBEA" mask="url(#mask-2)"></path>
                        <path d="M163.994218,11.5749822 C163.953301,11.8476461 163.698971,12.035303 163.425386,11.9944034 C163.152604,11.9535038 162.964063,11.6984829 163.005783,11.4258191 C163.045898,11.1523533 163.30103,10.9646964 163.573812,11.0055959 C163.847397,11.0464955 164.035938,11.3007145 163.994218,11.5749822" id="Fill-114" fill="#ECEBEA" mask="url(#mask-2)"></path>
                        <polygon id="Fill-115" fill="#BA4747" mask="url(#mask-2)" points="162 15.6585794 164.508713 17 166.079345 16.6118117 167 13"></polygon>
                        <polygon id="Fill-116" fill="#602525" mask="url(#mask-2)" points="162 15 163.384758 14.9606148 165.630344 14.1229587 167 13"></polygon>
                        <path d="M42,18.9997053 C42,22.8664281 38.8659707,26 35,26 C31.1346186,26 28,22.8664281 28,18.9997053 C28,15.1335719 31.1346186,12 35,12 C38.8659707,12 42,15.1335719 42,18.9997053" id="Fill-117" fill="#C85536" mask="url(#mask-2)"></path>
                        <path d="M42,18.9993779 C42,22.8660802 38.8660802,26 35,26 C31.1339198,26 28,22.8660802 28,18.9993779 C28,15.1339198 31.1339198,12 35,12 C38.8660802,12 42,15.1339198 42,18.9993779" id="Fill-118" fill="#D86448" mask="url(#mask-2)"></path>
                        <path d="M42,18.9996945 C42,22.3141897 39.3138523,25 36.0003055,25 C32.6867586,25 30,22.3141897 30,18.9996945 C30,15.6864213 32.6867586,13 36.0003055,13 C39.3138523,13 42,15.6864213 42,18.9996945" id="Fill-119" fill="#5F4E3B" mask="url(#mask-2)"></path>
                        <path d="M37.9432715,21.2017778 C37.9432715,21.2017778 37.1931656,20.7477778 37.0382227,21.2017778 C37.0382227,21.2017778 36.804897,21.8257778 37.4912028,21.7687778 C37.4912028,21.7687778 38.2021173,21.6557778 37.9432715,21.2017778" id="Fill-120" fill="#493929" mask="url(#mask-2)"></path>
                        <path d="M37.6255,21.1397447 C37.6255,21.1397447 37.2275,20.9147447 37.0975,21.0357447 C36.9675,21.1577447 36.9675,21.4517447 37.0975,21.4867447 C37.2275,21.5207447 37.3135,21.5907447 37.3995,21.4867447 L37.6255,21.1397447 Z" id="Fill-121" fill="#493929" mask="url(#mask-2)"></path>
                        <path d="M38.9978679,22.1025125 C38.9978679,22.1025125 38.6066417,21.7295125 38.0017534,22.4065125 C38.0017534,22.4065125 37.9490696,22.6845125 38.4212727,22.5775125 C38.4212727,22.5775125 39.0407954,22.5855125 38.9978679,22.1025125" id="Fill-122" fill="#493929" mask="url(#mask-2)"></path>
                        <path d="M39.3861621,22.000902 C39.3861621,22.000902 38.9041621,21.972902 39.0171621,22.228902 C39.1301621,22.482902 39.3861621,22.709902 39.3861621,22.709902 C39.3861621,22.709902 39.6981621,22.738902 39.6981621,22.482902 C39.6981621,22.228902 39.6411621,22.170902 39.3861621,22.000902" id="Fill-123" fill="#BE8736" mask="url(#mask-2)"></path>
                        <path d="M35.6153795,14 C35.6153795,14 35,16.3650108 35,17.2636126 C35,18.1622144 35.2797179,18.9704445 36.0621921,19 C36.0621921,19 36.9999833,18.6567011 36.9999833,17.7904968 C36.9999833,16.9242924 37.0205941,15.7818575 35.6153795,14" id="Fill-124" fill="#3E7237" mask="url(#mask-2)"></path>
                        <path d="M34,22 C34,22 35.2614542,20.8095214 35.6229158,20.292843 C35.985043,19.7761647 36.1707664,19.2341821 35.7893346,19.0023242 C35.7893346,19.0023242 35.1802419,18.9417116 34.8314281,19.4395588 C34.4826144,19.9379945 34.0119822,20.5894329 34,22" id="Fill-125" fill="#3E7237" mask="url(#mask-2)"></path>
                        <path d="M39,21.9909265 C39,21.9909265 37.7835174,20.7067583 37.2638884,20.3495247 C36.7436858,19.9922911 36.2085711,19.8273587 36.0003754,20.2544545 C36.0003754,20.2544545 35.9694041,20.9163449 36.4701063,21.2606143 C36.971382,21.605604 37.6263669,22.0708719 39,21.9909265" id="Fill-126" fill="#3E7237" mask="url(#mask-2)"></path>
                        <path d="M39,17 C39,17 36.8000491,17.5096057 36.0624833,17.906915 C35.3249174,18.3042244 34.7802891,18.9047657 35.0873668,19.5992941 C35.0873668,19.5992941 35.7646759,20.2639176 36.4755897,19.8812556 C37.1865035,19.4979833 38.1326504,19.010959 39,17" id="Fill-127" fill="#325B2F" mask="url(#mask-2)"></path>
                        <path d="M35.3034489,23 C35.3034489,23 36.5320924,21.2572016 36.8112675,20.5529835 C37.0904426,19.848251 37.1163806,19.1640947 36.4972808,19 C36.4972808,19 35.6372304,19.0992798 35.3689766,19.7782922 C35.0993576,20.4578189 34.7280342,21.3497942 35.3034489,23" id="Fill-128" fill="#325B2F" mask="url(#mask-2)"></path>
                        <path d="M34,15 C34,15 34.1562384,17.0266885 34.3833292,17.7575038 C34.6098143,18.4877895 35.0149442,19.0968022 35.5835794,18.98718 C35.5835794,18.98718 36.1697763,18.5486908 35.9511636,17.8448839 C35.7319453,17.1405474 35.4582253,16.2079635 34,15" id="Fill-129" fill="#367738" mask="url(#mask-2)"></path>
                        <path d="M32,16 C32,16 33.4283417,17.7643497 34.0962207,18.3164167 C34.7640997,18.8673513 35.5143462,19.2212405 35.9536395,18.8418713 C35.9536395,18.8418713 36.2001035,18.1539108 35.5564877,17.6222278 C34.912872,17.0905448 34.0745114,16.3782367 32,16" id="Fill-130" fill="#3E7237" mask="url(#mask-2)"></path>
                        <path d="M31,19.1317732 C31,19.1317732 32.852349,19.7534964 33.5675573,19.8983259 C34.2827656,20.0425031 34.9397239,20.0633794 35,19.7606726 C35,19.7606726 34.7720653,19.3372745 34.0826896,19.1989688 C33.3933139,19.0593584 32.4851209,18.8675571 31,19.1317732" id="Fill-131" fill="#325B2F" mask="url(#mask-2)"></path>
                        <path d="M38,16 C38,16 36.3509967,17.707989 35.7987423,18.4089379 C35.2451946,19.1098867 34.8358538,19.8028773 35.0647742,20 C35.0647742,20 35.5711152,19.9412305 36.1046163,19.2659933 C36.6381173,18.5895317 37.347512,17.7030915 38,16" id="Fill-132" fill="#325B2F" mask="url(#mask-2)"></path>
                        <path d="M34,21 C34,21 35.2229284,20.2353633 35.58905,19.8941596 C35.9537951,19.5529558 36.1630074,19.1862327 35.8409306,19.0066518 C35.8409306,19.0066518 35.3020713,18.9348194 34.9497137,19.2632634 C34.5973562,19.5921801 34.1245639,20.021284 34,21" id="Fill-133" fill="#439138" mask="url(#mask-2)"></path>
                        <path d="M35,16 C35,16 35.1523852,17.5525985 35.2812619,18.1028038 C35.4101387,18.6523557 35.6108001,19.0986624 35.8521816,18.9810413 C35.8521816,18.9810413 36.0881058,18.6105349 35.9638468,18.0805865 C35.8395878,17.5499847 35.6817453,16.8475253 35,16" id="Fill-134" fill="#439138" mask="url(#mask-2)"></path>
                        <path d="M34,19.000592 C34,19.000592 34.8023511,19.6370371 35.1470434,19.8175523 C35.4928943,19.9980675 35.8520695,20.0857463 35.9992155,19.8851165 C35.9992155,19.8851165 36.0304985,19.568957 35.6979718,19.3951467 C35.3642864,19.2213363 34.929221,18.9866666 34,19.000592" id="Fill-135" fill="#439138" mask="url(#mask-2)"></path>
                        <path d="M37,19.0299656 C37,19.0299656 36.015835,18.958123 35.6530802,19.0369181 C35.2897943,19.1157132 34.9764336,19.3134734 35.0013962,19.6711413 C35.0013962,19.6711413 35.1835703,20.0666617 35.5330471,19.9901842 C35.8830551,19.9152516 36.3461915,19.823324 37,19.0299656" id="Fill-136" fill="#439138" mask="url(#mask-2)"></path>
                    </g>
                </g>
            </g>
        </g>
    </g>
</svg>