<?xml version="1.0" encoding="UTF-8"?>
<svg width="50px" height="57px" viewBox="0 0 50 57" version="1.1" xmlns="http://www.w3.org/2000/svg" xmlns:xlink="http://www.w3.org/1999/xlink">
    <!-- Generator: Sketch 50.2 (55047) - http://www.bohemiancoding.com/sketch -->
    <title>lady-in-chair-01</title>
    <desc>Created with Sketch.</desc>
    <defs></defs>
    <g id="Page-1" stroke="none" stroke-width="1" fill="none" fill-rule="evenodd">
        <g id="01-Jobs-Copy" transform="translate(-985.000000, -576.000000)">
            <g id="01--Hero">
                <g id="illustration" transform="translate(10.000000, 370.000000)">
                    <g id="lady-in-chair-01" transform="translate(975.000000, 206.000000)">
                        <path d="M42.3947464,50 L39,52.0493503 L41.1676645,55.1168173 C41.7251218,55.9063262 43.1184274,56.2773454 43.9718439,55.7626655 L44.3792945,55.5165686 C45.2327111,55.0012641 45.1191925,53.8569759 44.5624108,53.0680916 L42.3947464,50 Z" id="Fill-1" fill="#47535A"></path>
                        <path d="M48.7799915,44.7483259 C47.6926371,43.0776815 42.8800378,44.2982315 38.0304896,47.4747063 C33.1816012,50.651843 30.132654,54.5809021 31.2200085,56.2515465 C32.3073629,57.9221909 37.120622,56.7023027 41.9695104,53.525166 C46.8183988,50.3486912 49.867346,46.4183084 48.7799915,44.7483259" id="Fill-3" fill="#678492"></path>
                        <path d="M29.5932705,5.50779698 L3.38782692,22.9153059 C1.98830124,23.8447696 1.55584909,25.6638256 2.51392659,27.0567139 L18.8218064,50.7704577 C21.1061561,54.0902511 25.5913211,55.0053349 28.9269215,52.7895248 L45.6968119,41.6503401 C48.9797213,39.4691724 49.9551483,34.96696 47.9901577,31.515133 L33.7340159,6.46013779 C32.8838908,4.96659026 31.0140012,4.56395337 29.5932705,5.50779698" id="Fill-5" fill="#597B8C"></path>
                        <path d="M49.6865914,22.898781 L40.0636172,7.03140781 C39.4139941,5.96088104 38.0506032,5.69006326 37.0123382,6.37762182 L35.0030974,7.70685922 C33.9635747,8.395055 33.6830986,9.80713078 34.3930932,10.8400617 L44.876362,26.0950681 C45.5567998,27.0853053 46.8415819,27.2713731 47.8389703,26.6112149 L48.9677926,25.864395 C49.9670676,25.2035997 50.3110597,23.9285258 49.6865914,22.898781" id="Fill-7" fill="#47535A"></path>
                        <g id="Group-11" transform="translate(0.000000, 28.000000)" fill="#47535A">
                            <path d="M16.3095385,17.3845294 L6.30438462,1.27211765 C5.62961538,0.185058824 4.21142308,-0.0892941176 3.13192308,0.608235294 L1.04288462,1.958 C-0.0379230769,2.65682353 -0.329538462,4.09070588 0.408653846,5.13958824 L11.3082692,20.6301765 C12.0157308,21.6357059 13.3515385,21.8246471 14.3885385,21.1542941 L15.5621923,20.3959412 C16.6011538,19.7249412 16.9588077,18.4301765 16.3095385,17.3845294" id="Fill-9"></path>
                        </g>
                        <path d="M17.7852469,8.82646969 C19.1387387,10.7880243 19.8786292,11.4765169 21.1875079,10.6678628 C22.4957002,9.85920869 22.1271276,8.94078546 20.7736359,6.97923089 C20.1215988,6.03482681 18.2059824,2 18.2059824,2 L14,4.59938456 C14,4.59938456 17.1338962,7.88206561 17.7852469,8.82646969" id="Fill-12" fill="#DE877C"></path>
                        <path d="M13.7339549,0.27973908 C12.7051708,1.00265974 12.8900305,2.46456595 13.4824999,4 L17,1.52785851 C15.9321772,0.326698029 14.7621649,-0.442563696 13.7339549,0.27973908" id="Fill-14" fill="#323E46"></path>
                        <path d="M8.78524693,13.8263128 C10.1387387,15.788009 10.8786292,16.4765513 12.1875079,15.6678388 C13.4957002,14.8591264 13.1271276,13.9412864 11.7736359,11.9795903 C11.1215988,11.035118 9.20598245,7 9.20598245,7 L5,9.5989226 C5,9.5989226 8.13389619,12.8818406 8.78524693,13.8263128" id="Fill-16" fill="#DE877C"></path>
                        <path d="M5.73401724,5.27972807 C4.70525276,6.00265087 4.89010888,7.46456141 5.48199291,9 L9,6.52846907 C7.9316235,5.32668716 6.76220763,4.55742316 5.73401724,5.27972807" id="Fill-18" fill="#323E46"></path>
                        <path d="M37.9943987,23.366508 C41.713665,29.2357012 40.1119325,37.1012499 34.4163866,40.9332515 C28.7208407,44.7659117 21.0880038,43.1153452 17.3687375,37.246152 C13.6494713,31.3769588 18.0852348,27.9829568 23.7807807,24.1496379 C29.4763266,20.3169777 34.2751325,17.4973148 37.9943987,23.366508" id="Fill-20" fill="#606572"></path>
                        <path d="M17.7424166,17.552718 C16.1482827,15.0358919 14.3422264,13.0002524 12.7109904,11.7460546 C11.0803832,10.4905598 10.2918057,11.0696698 9.39758151,11.6721257 C8.50272844,12.2745816 7.67138918,12.7862476 8.13044944,14.8309661 C8.58888084,16.8750361 9.66924457,19.3989957 11.2633785,21.9164702 C12.8575124,24.4332963 13.4712696,32.5855819 15.1025057,33.8404282 C16.7337417,35.0952745 19.5994096,28.5558068 20.4942627,27.9527024 C21.3884869,27.3502465 22.3393076,26.8619264 21.8808762,24.8178564 C21.4230737,22.7724894 19.3365505,20.070841 17.7424166,17.552718" id="Fill-22" fill="#606572"></path>
                        <path d="M19.2965722,16.6534775 C17.6861078,14.1965916 16.5940414,11.7340097 16.131549,9.73850198 C15.6684214,7.74362711 16.5076417,7.2442755 17.4110265,6.65568615 C18.3150465,6.06772969 19.1117023,5.50319023 20.7590136,6.72783581 C22.4069603,7.95248139 24.231518,9.93912867 25.8419824,12.3953817 C27.4524468,14.8522675 34.5143492,18.6173407 34.9781121,20.6128485 C35.4412398,22.6077233 28.411102,22.6824046 27.5070819,23.270361 C26.6030618,23.8583175 25.7790885,24.5431064 24.1311419,23.3178279 C22.4831953,22.0931823 20.9070366,19.1103634 19.2965722,16.6534775" id="Fill-24" fill="#606572"></path>
                        <path d="M14,31 C14,31 14.7781892,34.3915493 16.9572535,38 L20,32.843322 L14,31 Z" id="Fill-26" fill="#606572"></path>
                        <path d="M32.7547084,18 C32.7547084,18 35.5646616,19.9878932 38,23.293698 L32,24 L32.7547084,18 Z" id="Fill-28" fill="#606572"></path>
                        <path d="M36.8216612,25.3624656 C34.9908924,25.7587549 34.2333548,22.3305584 30.4317205,23.1179141 C28.5965143,23.4978818 27.7331116,24.6097117 26.8722446,25.292609 C25.4135885,26.4507923 23.8826653,27.4803611 22.2661624,28.3904556 C21.3127427,28.927111 19.9770676,29.2940214 18.9013008,30.8719972 C16.6730626,34.1402417 19.416046,36.2333284 18.3282347,37.8008584 C17.6150717,38.8271629 23.376795,35.6712112 26.2750895,33.2575676 C27.3071156,32.3977438 28.4088732,31.6573944 29.5873355,31.0299907 C32.8989476,29.266601 38.0210429,25.103278 36.8216612,25.3624656" id="Fill-30" fill="#BA3F3F"></path>
                        <polyline id="Fill-34" fill="#E29388" points="16.0077751 37 16 37.0235369 17 40"></polyline>
                        <path d="M21.35845,20.3114504 C19.6869664,21.2698693 19.1733132,22.4295244 19.131104,23.7840473 C19.1168178,24.2451073 19.2265617,25.1812374 18.8661602,25.4779971 C16.769338,27.2050616 9.90807331,33.6891955 10.0009335,35.2857112 C10.1113267,37.1789866 16.1647726,43.9949054 16.1667208,44 L20.0480173,37.0573534 L15.7998256,34.306914 C15.9076213,34.2145746 20.6519332,27.1108118 20.9928535,26.4892723 C20.9928535,26.4892723 21.9863927,26.5204766 22.7520023,26.0301228 C24.0812668,25.179327 24.156594,24.5909023 23.5890428,24.5794395 C23.2968254,24.5737081 22.6338166,25.0213948 22.5110853,25.0506887 C22.0734086,25.1564013 21.6759929,25.1672273 21.5746909,24.9978324 C20.8986946,23.8693816 25.1423407,21.8595676 23.6981373,20.6050259 C23.3663082,20.3178186 22.6247254,19.5854719 21.35845,20.3114504" id="Fill-36" fill="#E29388"></path>
                        <path d="M20.8334939,20.501846 C22.3979565,19.3266886 23.6855747,19.3320546 24.9654128,19.8659732 C25.400454,20.0470762 26.2296905,20.5474572 26.6511164,20.3328165 C29.1018701,19.0811934 37.9005945,15.3383973 39.3515963,16.1017131 C41.072959,17.0085697 44.9961099,25.6203544 45,25.6243789 L37.4940806,26 L36.1118036,21.1712565 C35.9821341,21.234978 27.4557157,22.7126446 26.7392916,22.7723415 C26.7392916,22.7723415 25.3142237,23.9099368 24.3112301,24.1842744 C24.0175287,24.2640939 23.7504095,24.2171412 23.577949,24.1118332 C23.1662484,23.8603012 24.2113846,23.628221 24.5913162,23.0453375 C22.053684,20.6467285 20.7576373,24.7356325 20.1682894,22.8380752 C20.0334331,22.4034279 19.6483146,21.3919339 20.8334939,20.501846" id="Fill-38" fill="#E29388"></path>
                        <path d="M15.2093324,44.6156175 C16.2020949,46.1406422 17.6462882,47.3984011 20.0151762,47.7352203 C20.9745469,47.9580491 22.0231764,48.0623794 23.1706968,47.9612692 C26.8084714,47.6418383 30.5207353,45.2718676 34.5996663,42.6017864 C34.6073721,42.5966343 34.6144357,42.5927702 34.6214994,42.5882621 C34.7114002,42.5296568 34.7980904,42.4723396 34.8873491,42.4137344 C34.9766078,42.3551291 35.0639401,42.2984559 35.1531988,42.2404946 C35.1609046,42.2353425 35.1673261,42.2301904 35.1750319,42.2250383 C39.2526786,39.5530251 42.9090755,37.0974005 44.6634268,33.8857037 C45.2163172,32.87267 45.5438132,31.8680084 45.7248992,30.8968356 C46.3709012,28.5867582 45.8032414,26.7551829 44.8104789,25.2295142 C44.7661706,25.1618928 44.7225045,25.1129477 44.6788384,25.0485464 C43.5152642,23.2227672 43.2892277,22.4010056 40.1144427,23.4868129 C37.8585729,24.2589854 34.5136183,26.0776804 31.2463637,28.0509387 C30.6973263,28.3793857 30.1412252,28.7226451 29.5787026,29.0749206 C29.0071899,29.4317043 28.4498045,29.7846238 27.9026934,30.1368994 C27.7524306,30.2347895 27.607947,30.3204433 27.4563998,30.4196214 C27.3703519,30.4756506 27.2791667,30.538764 27.1924766,30.5947932 C27.1051443,30.6521104 27.0113905,30.7107157 26.9253425,30.7673889 C26.7737953,30.866567 26.6376597,30.9651011 26.4873969,31.0636352 C25.9460652,31.4242829 25.4002384,31.7939469 24.8447795,32.175847 C24.2970263,32.5506631 23.7595475,32.9235471 23.2387646,33.295787 C20.1236994,35.5028223 17.1184417,37.8412364 15.5060053,39.6032581 C13.2385769,42.0814232 13.898064,42.6198188 15.0975985,44.4217694 C15.1380539,44.4881028 15.1656663,44.5486401 15.2093324,44.6156175" id="Fill-40" fill="#BA3F3F"></path>
                        <path d="M23.3884325,40 L23.317041,37.141995 C23.2736462,35.3932085 23.116865,33.6355864 23.0013788,31.880683 C22.9628834,31.2968479 23.7411902,31.0793541 23.9917602,31.0141059 C25.137523,30.7170909 27,35.2090184 27,35.2090184 L23.3884325,40 Z" id="Fill-42" fill="#3A351E"></path>
                        <path d="M38,30.7048699 L35.5808992,29.4837081 C34.1008666,28.7358065 32.6551206,27.8831164 31.1960409,27.0680954 C30.7109508,26.7975632 30.2404643,27.4071167 30.0937944,27.6057353 C29.4213987,28.5104771 32.5846428,32 32.5846428,32 L38,30.7048699 Z" id="Fill-44" fill="#3A351E"></path>
                        <path d="M39.5576652,33.9406741 C42.1730645,37.9023295 41.1331443,43.1549625 37.2353935,45.6726261 C33.3376427,48.1902896 28.0574481,47.0208233 25.4420488,43.0591679 C22.8272996,39.0975125 23.8665698,33.8448795 27.7643206,31.327216 C31.6627213,28.8095525 36.942266,29.9796617 39.5576652,33.9406741" id="Fill-46" fill="#E29388"></path>
                        <path d="M28.9976445,30.3533564 C28.9976445,30.3533564 29.0751321,31.150136 28.3412416,31.7058044 C27.6060703,32.2614728 27.0066623,31.8593736 27.0066623,31.8593736 C27.0066623,31.8593736 26.9093226,30.5588573 27.4587799,30.1426624 C28.0088775,29.7264675 28.9976445,30.3533564 28.9976445,30.3533564" id="Fill-48" fill="#E29388"></path>
                        <path d="M42.125251,33.5746498 C41.3715874,32.5057051 40.4478465,31.5778939 39.4299788,30.9026044 C39.309886,30.8228607 39.1742136,30.7450157 39.0288039,30.6709681 C37.2384473,29.7513844 35.0858648,29.8146731 33.2442253,30.6310962 C32.4905618,30.9652601 31.7758472,31.3646113 31.3811638,31.7975054 L30.0523531,33.256941 L28.147746,33.8562842 C27.5823361,34.0347581 26.9195536,34.5119542 26.3022117,35.0499075 C24.7955337,36.3663107 23.8711437,38.2618048 24.0146059,40.2300808 C24.0256414,40.390201 24.0438177,40.5420937 24.071082,40.6813287 C24.2950388,41.8616614 24.7948846,43.059082 25.4959669,44.1622026 C25.5407583,44.2318201 25.5660752,44.3083993 25.6121649,44.3773839 C26.3878995,45.5355656 27.3603267,46.4912238 28.454145,47.2260046 C29.5486125,47.9614183 30.7651202,48.4772206 32.0270684,48.7563234 C33.2896658,49.0354262 34.599002,49.0778295 35.8804248,48.8677113 C37.1618475,48.6569602 38.416006,48.1943204 39.5663004,47.4608054 C40.7172439,46.7285561 41.6559153,45.7963147 42.3686824,44.7368633 C43.0820986,43.6767789 43.5683122,42.4913831 43.8143401,41.252192 C44.059719,40.0130009 44.064263,38.7200144 43.813691,37.4479132 C43.563119,36.1751791 43.0574309,34.9233303 42.2816962,33.7651486 C42.2349574,33.6955311 42.172639,33.6423686 42.125251,33.5746498" id="Fill-50" fill="#3A351E"></path>
                        <path d="M19.293955,22.7613383 C19.293955,22.7613383 20.8370041,24.3500258 20.8533292,24.3673593 C21.6454234,25.1960369 21.9817206,25.0967022 22.5537524,24.7153639 L22.5609354,24.7106972 L24.4011015,23.4840144 L24.4082846,23.4793477 C24.9803163,23.0980093 25.2042968,22.8240058 24.779191,21.749325 C24.7707019,21.7279914 23.9603236,19.6366306 23.9603236,19.6366306 C23.5228108,18.7859528 22.8495633,18.9152878 22.2801436,19.2892927 C22.2801436,19.2892927 22.2918977,19.3159597 22.2886326,19.3179598 L22.2821026,19.3232932 L19.6811865,21.0566492 L19.6740035,21.061316 L19.6544134,21.0459824 C19.0902176,21.4279874 18.7062511,22.0099951 19.293955,22.7613383" id="Fill-52" fill="#D5D0CD"></path>
                        <path d="M24.9404038,23.5015635 L22.5910631,24.9821128 C22.4838863,25.0493817 22.260985,24.9116709 22.1801093,24.821556 L20.0918064,22.480473 C19.993835,22.3719544 19.9517534,22.0984367 20.0806285,22.0165718 L23.2288634,20.0321406 C23.3616837,19.9483719 23.5668318,20.039756 23.6266667,20.1749283 L24.9423764,23.059239 C24.9897183,23.1658538 25.0449505,23.4355638 24.9404038,23.5015635" id="Fill-54" fill="#BDBAB8"></path>
                        <path d="M23.9423644,25 C23.9423644,25 22.8562771,24.6902182 23.0160441,24.345639 C23.1101534,24.144493 23.1883955,23.9306163 23.699431,23.7710575 C24.2104665,23.6106499 24.4933416,24.3413954 24.8090456,23.1506452 C24.9682655,22.5514508 25,23.9331625 25,23.9331625 C25,23.9331625 24.7390108,24.2505827 24.4709086,24.5382978 C24.28652,24.7360489 24.0501524,24.9456821 23.9423644,25" id="Fill-56" fill="#E29388"></path>
                    </g>
                </g>
            </g>
        </g>
    </g>
</svg>