<?xml version="1.0" encoding="UTF-8"?>
<svg width="47px" height="45px" viewBox="0 0 47 45" version="1.1" xmlns="http://www.w3.org/2000/svg" xmlns:xlink="http://www.w3.org/1999/xlink">
    <!-- Generator: Sketch 50.2 (55047) - http://www.bohemiancoding.com/sketch -->
    <title>man-03</title>
    <desc>Created with Sketch.</desc>
    <defs></defs>
    <g id="Page-1" stroke="none" stroke-width="1" fill="none" fill-rule="evenodd">
        <g id="01-Jobs-Copy" transform="translate(-416.000000, -683.000000)">
            <g id="01--Hero">
                <g id="illustration" transform="translate(10.000000, 370.000000)">
                    <g id="man-03" transform="translate(406.000000, 313.000000)">
                        <path d="M17,39 C7.61116128,39 0,31.3890105 0,22.0003838 C0,12.611757 7.61116128,5 17,5 C26.3888387,5 34,12.611757 34,22.0003838 C34,31.3890105 26.3888387,39 17,39" id="Fill-1" fill="#4B515A"></path>
                        <path d="M16,0 L18.4177718,3.14277376 L20.8347713,6.2847895 L30.413966,4.81952619 C30.413966,4.81952619 36.8997102,7.60602797 39.7777157,9.04551841 C40.8850568,9.59963506 41.2672979,11.9775611 41.8510844,12.4407147 C42.3993494,12.8758213 43.1105496,13.4253898 43.7036026,13.7983384 C44.2958833,14.1712869 44.7692445,14.3683735 44.8418317,14.0985165 C44.9406739,13.729358 44.6835299,13.4109873 44.423297,13.1358241 C44.1622919,12.8614188 43.8989703,12.6309791 43.9854571,12.4376826 C44.0742606,12.2398379 44.2580453,12.2330157 44.4541852,12.3171565 C44.6495529,12.4005393 44.8565036,12.5748852 44.9908672,12.7401347 C45.3468534,13.1767574 45.3707917,13.6626518 45.4016799,14.0750177 C45.4333403,14.4873835 45.4711783,14.827737 45.855736,14.9717618 C46.1785174,15.0930459 46.4781327,14.8133345 46.6904889,14.3304723 C46.9020729,13.846852 47.0256256,13.1600809 46.9955096,12.4664875 C46.9692547,11.8403585 46.7792924,11.1884565 46.3746573,10.5865843 C45.9715667,9.98547004 45.353031,8.70213286 44.4688571,8.27688054 L42.0163361,6.55767869 L33.4556789,0.556390724 C32.8935141,0.199360709 32.2371405,0.00909630612 31.5676393,0.00909630612 L16,0 Z" id="Fill-3" fill="#E29388"></path>
                        <path d="M14.7545904,45 C9.25513541,45 5,34.9262891 5,22.5003884 C5,10.0737109 10.7130041,0 16.2124591,0 C21.7119141,0 23,10.0737109 23,22.5003884 C23,34.9262891 20.2540454,45 14.7545904,45" id="Fill-5" fill="#2A67A1"></path>
                        <path d="M21.9542728,35.8397661 C22.7923885,33.7340848 26.7442881,35.1667138 28.5206866,30.8167591 C29.3775836,28.7172035 28.8454466,27.1306683 28.7405844,25.8220831 C28.5629445,23.6046093 28.562162,21.3955582 28.7405844,19.1773187 C28.8454466,17.8694992 29.3775836,16.2821983 28.5206866,14.1834084 C26.7442881,9.83345367 22.7923885,11.2660826 21.9542728,9.16040136 C21.4057022,7.78060584 20.6834045,15.6313514 21.1498069,20.1107098 C21.3157084,21.7056676 21.3157084,23.2944999 21.1498069,24.888692 C20.6834045,29.3680504 21.4057022,37.2187959 21.9542728,35.8397661" id="Fill-7" fill="#2A67A1"></path>
                        <polygon id="Fill-9" fill="#109982" points="31 29.8057821 30.2445439 30 28 23.1949592 28.7554561 23"></polygon>
                        <path d="M20.13206,35.6108332 C20.13206,35.6108332 26.4514683,33.7314689 27.9065292,30.4494305 C28.2899679,29.5837175 28.9125735,28.3148922 29.2651519,28.7587071 C29.7458003,29.3653324 29.0591597,29.758269 29.3600471,30.0674522 C29.6686497,30.3844629 29.9957683,30.1668605 29.947935,29.8224539 C29.8584402,29.1876499 29.5012328,28.6060724 29.5336361,28.2201804 C29.5436656,28.1059 29.6755932,28.0495426 29.7913192,28.0127537 C30.1770723,27.8906459 30.9809819,28.6561679 31.5773563,29.8451534 C32.1166392,30.9190758 32.2354512,32.1534604 31.3613345,33.0778791 L23.5313169,42.3424169 C23.5104862,42.3674646 23.487341,42.3909469 23.4618813,42.412081 C22.44195,43.2691838 21.1411903,43.6073284 20.3812566,43.8358892 C18.8266713,44.3024036 16.1657461,45.0405296 15,44.9982615 C15,44.9982615 19.6776428,40.3902576 20.13206,35.6108332" id="Fill-11" fill="#E29388"></path>
                        <path d="M29,28.5208951 L29.3346008,29.7540187 C29.3346008,29.7540187 29.4296578,30.0226663 29.5604563,29.9984568 C29.6912548,29.9734663 30,29.3510474 30,29.3510474 L29.5977186,28 C29.5977186,28 29.5209125,28.0656 29.3155894,28.326438 C29.1893536,28.4865332 29,28.5208951 29,28.5208951" id="Fill-13" fill="#138E77"></path>
                        <path d="M29.3950197,28 C29.3950197,28 29.2432642,28.1244875 29.2432642,28.1789042 C29.2432642,28.4241521 29.5583439,29.1121878 29.0214154,29.4178159 C28.8383561,29.5221767 29.8890756,30 29.8890756,30 L30,28.9668282 L29.6400061,28.0782706 L29.3950197,28 Z" id="Fill-15" fill="#1F7F6D"></path>
                        <path d="M29.6747782,29.5534964 C29.6747782,29.5534964 29.8004747,29.8087089 30.0855049,29.7056001 C30.0855049,29.7056001 30.5971428,29.5571527 30.4068277,29.0854848 C30.2820163,28.7754272 30.9839695,29.4035864 30.9839695,29.4694006 C30.9839695,29.5344834 31.0538992,30.7571636 30.9016471,30.7571636 C30.749395,30.7571636 29.6429114,31.0313891 29.5871447,30.9970195 C29.5322631,30.9626499 28.8409322,30.2430822 29.0339029,30.1399734 C29.2277588,30.0375958 29.6747782,29.5534964 29.6747782,29.5534964" id="Fill-17" fill="#E29388"></path>
                        <path d="M28.4557531,21 C28.4557531,21 29.0587279,21.1886792 28.792461,21.8015094 C28.6135409,22.2135849 28.909393,24.0264151 28.9537708,24.1290566 C29.0587279,24.3728302 28.9770164,24.5781132 28.788939,24.6445283 C28.6727113,24.6860377 28.6114277,24.9864151 28.6579187,25.1977358 C28.7149759,25.4573585 28.4043312,25.554717 28.4148974,25.6083019 C28.4148974,25.6083019 28.3522049,25.9056604 28,26 L28.1908951,21.1781132 L28.4557531,21 Z" id="Fill-19" fill="#FFFFFF"></path>
                        <path d="M16.5912864,35 C13.1144425,35 9.96642613,33.6571019 7.6880103,31.4846746 C5.40959447,29.3138124 4,26.3134212 4,23 C4,19.6857963 5.40959447,16.6861876 7.6880103,14.5145428 C9.96642613,12.3428981 13.1144425,11 16.5912864,11 C20.0681302,11 27,14.5145428 27,14.5145428 C27,14.5145428 26.9244164,19.6857963 26.9244164,23 C26.9244164,26.3134212 27,31.4846746 27,31.4846746 C27,31.4846746 20.0681302,35 16.5912864,35" id="Fill-21" fill="#313E45"></path>
                        <path d="M28.7675805,24 C28.7675805,24 28,23.6073256 28,22.501212 C28,21.3934824 28.7675805,21 28.7675805,21 C28.7675805,21 30,21.6714247 30,22.500404 C30,23.3285753 28.7675805,24 28.7675805,24" id="Fill-23" fill="#E29388"></path>
                        <path d="M18.5,32 C12.7011632,32 8,27.522998 8,22.0003855 C8,16.477002 12.7011632,12 18.5,12 C24.2988368,12 29,16.477002 29,22.0003855 C29,27.522998 24.2988368,32 18.5,32" id="Fill-25" fill="#E29388"></path>
                        <path d="M16.2634843,34.9710447 C17.8138138,34.9342637 19.3301116,34.628277 20.6535636,34.0569975 C20.8101091,33.9896961 20.9742171,33.905178 21.1413502,33.8089214 C23.2013978,32.6233207 24.5097246,30.4078518 24.8659222,27.9967393 C25.0118801,27.0106952 25.067087,26.0191731 24.8848287,25.3273771 L24.2715032,23 L24.8848287,20.6718404 C25.067087,19.9808269 25.0118801,18.9893048 24.8659222,18.0024782 C24.5097246,15.5913656 23.2013978,13.3766793 21.1413502,12.1910786 C20.9742171,12.094822 20.8101091,12.0103039 20.6535636,11.9430025 C19.3301116,11.371723 17.8138138,11.0665188 16.2634843,11.0281727 C16.1651707,11.025825 16.0721509,11 15.9738374,11 C14.3206568,11 12.7453708,11.3357245 11.3130176,11.9430025 C9.8806644,12.5502804 8.59048777,13.4283292 7.50676965,14.5145428 C6.42305153,15.6007565 5.54730444,16.8927873 4.9407853,18.3288118 C4.33502242,19.7648363 4,21.3432894 4,23 C4,24.6567106 4.33502242,26.2351637 4.9407853,27.6704056 C5.54730444,29.1064302 6.42305153,30.3992435 7.50676965,31.4854572 C8.59048777,32.5708882 9.8806644,33.4497196 11.3130176,34.0569975 C12.7453708,34.6642755 14.3206568,35 15.9738374,35 C16.0721509,35 16.1651707,34.9733925 16.2634843,34.9710447" id="Fill-27" fill="#313E45"></path>
                        <path d="M30,28 C30,28 30.1725082,28.5840419 30.1286966,28.8371485 C30.0843373,29.0902551 30.4353779,30 30.4353779,30 L31,29.264225 L30.5,28.088947 L30,28 Z" id="Fill-29" fill="#E29388"></path>
                    </g>
                </g>
            </g>
        </g>
    </g>
</svg>