<?xml version="1.0" encoding="UTF-8"?>
<svg width="36px" height="44px" viewBox="0 0 36 44" version="1.1" xmlns="http://www.w3.org/2000/svg" xmlns:xlink="http://www.w3.org/1999/xlink">
    <!-- Generator: Sketch 50.2 (55047) - http://www.bohemiancoding.com/sketch -->
    <title>man-05</title>
    <desc>Created with Sketch.</desc>
    <defs>
        <polygon id="path-1" points="0.683269231 34 21.4098077 34 21.4098077 0.374627168 0.683269231 0.374627168"></polygon>
        <polygon id="path-3" points="25.7190323 0.122373637 25.7190323 25.9571247 0.517742006 25.9571247 0.517742006 0.122373637 25.7190323 0.122373637"></polygon>
    </defs>
    <g id="Page-1" stroke="none" stroke-width="1" fill="none" fill-rule="evenodd">
        <g id="01-Jobs-Copy" transform="translate(-834.000000, -767.000000)">
            <g id="01--Hero">
                <g id="illustration" transform="translate(10.000000, 370.000000)">
                    <g id="man-05" transform="translate(824.000000, 397.000000)">
                        <g id="Group-3" transform="translate(3.000000, 10.000000)">
                            <mask id="mask-2" fill="white">
                                <use xlink:href="#path-1"></use>
                            </mask>
                            <g id="Clip-2"></g>
                            <path d="M21.4098077,34.000255 L18.4753462,31.612605 L15.1745,25.963505 L6.40326923,25.576755 C6.40326923,25.576755 6.57503846,4.467855 6.30596154,3.687555 C6.05380769,2.954005 5.71703846,2.016455 5.38619231,1.316905 C5.05534615,0.616505 1.92034615,-0.012495 1.53788462,0.664955 C1.19265385,1.276955 0.9845,2.007105 1.00480769,2.815455 C1.02511538,3.622955 0.8415,5.203955 1.41180769,6.122805 L2.67596154,9.188755 L0.683269231,31.138305 C1.02934615,32.392905 2.04219231,33.350005 3.31142308,33.618605 L21.4098077,34.000255 Z" id="Fill-1" fill="#DE877C" mask="url(#mask-2)"></path>
                        </g>
                        <path d="M20,0 L17.6510993,2.99746827 L15.6723594,9.27243034 L7.14074949,11.6253277 C7.14074949,11.6253277 10.7357446,27.1317407 10.9668819,29.5708655 C11.0973763,30.9385511 12.6718392,33.9539478 12.5822842,34.7778034 C12.4978466,35.552996 12.2965609,35.8688784 12.2965609,35.8688784 C12.2965609,35.8688784 9.05978602,36.7234685 8.5071035,34.0692022 L7.24053939,29.3301118 L0.364418308,10.4761986 C-0.427930549,8.43832994 0.074430567,5.99920523 1.8459145,4.7203082 C2.00029033,4.60846874 2.15381325,4.51626522 2.30221874,4.44796631 L20,0 Z" id="Fill-4" fill="#EC998D"></path>
                        <path d="M7.29138507,8.00436633 C8.44060174,8.09215146 8.55023348,8.40519653 8.9534943,9.80975852 C9.16279127,10.5385407 8.58549964,12.4184674 8.79556326,13.72365 C8.94812772,14.6752077 6.11533545,12.8640183 6.11533545,12.8640183 C6.11533545,12.8640183 3.94953352,11.4660816 4.00089944,10.3049991 C4.05303202,9.1447448 6.1421684,7.91740937 7.29138507,8.00436633" id="Fill-6" fill="#DE877C"></path>
                        <path d="M19.8037673,0.0428407014 C25.9187603,-0.650606764 33.2260165,7.11210527 34.7416769,20.5868577 C36.2581816,34.0624578 30.8609108,43.2654721 24.7467622,43.9597673 C18.6317692,44.6532147 16.2447097,36.3326929 14.728205,22.8570928 C13.2117002,9.38234037 13.6887744,0.736288167 19.8037673,0.0428407014" id="Fill-8" fill="#2C6CAC"></path>
                        <path d="M15,10 C15,10 6.97646189,16.2366532 6.00246195,18.2382759 C3.57600596,23.2220839 6.28526369,25.6760751 6.53474438,25.8742556 C7.67107764,26.7764076 12.3155195,22.5284523 12.3155195,22.5284523 L15,10 Z" id="Fill-10" fill="#562C1A"></path>
                        <path d="M11,16.034473 L10.5250584,18 C10.5250584,18 9.72768711,17.0827056 10.0981913,16.3530891 C10.3559693,15.8453401 11,16.034473 11,16.034473" id="Fill-12" fill="#EC998D"></path>
                        <path d="M29,31.1627945 C29,31.1627945 20.5987189,35.8533752 18.4918733,35.9787661 C13.2463744,36.2902469 12.0995587,33.0764045 12.0179929,32.7904811 C11.6493153,31.487054 17.0685495,29 17.0685495,29 L29,31.1627945 Z" id="Fill-14" fill="#562C1A"></path>
                        <path d="M22,33.3804686 L20,33 C20,33 20.5841621,34.0182912 21.3922652,33.9997498 C21.9550645,33.9864001 22,33.3804686 22,33.3804686" id="Fill-16" fill="#EC998D"></path>
                        <path d="M26.9818898,31.0778195 C32.0789647,27.6477247 33.5336075,20.8026714 30.2298708,15.7891325 C26.9261341,10.7755935 20.1156098,9.49235624 15.0185349,12.9224511 C9.92062781,16.3525459 8.46681722,23.1975992 11.7697218,28.2102972 C15.0734585,33.2238362 21.8839827,34.5079143 26.9818898,31.0778195" id="Fill-18" fill="#EC998D"></path>
                        <g id="Group-22" transform="translate(10.000000, 8.000000)">
                            <mask id="mask-4" fill="white">
                                <use xlink:href="#path-3"></use>
                            </mask>
                            <g id="Clip-21"></g>
                            <path d="M19.4084968,23.9714129 C17.9558516,24.8914774 16.3740452,25.5507032 14.8123677,25.8543161 C14.6286903,25.8903806 14.4274,25.9163806 14.2160452,25.9331548 C11.6093355,26.1419935 9.08565806,24.9703161 7.32520645,23.0387677 C6.60475484,22.2470258 5.96398065,21.3982516 5.72159355,20.6685742 L4.90552903,18.2153484 L2.95636774,16.5152839 C2.37765806,16.0112194 1.84004516,15.0919935 1.38881935,14.1232839 C0.28423871,11.7530903 0.176883871,8.97276774 1.37456129,6.64870323 C1.4710129,6.45915484 1.57249677,6.28386452 1.67649677,6.12870323 C2.55965806,4.80438065 3.77830323,3.59999355 5.18649677,2.61367097 C5.2754,2.55076774 5.34585161,2.47025161 5.43643226,2.40986452 C6.96288387,1.39334839 8.61598065,0.724896774 10.299271,0.386058065 C11.9825613,0.0472193548 13.6952065,0.0379935484 15.3407548,0.340767742 C16.9854645,0.643541935 18.5630774,1.25747742 19.9746258,2.1658 C21.3870129,3.07412258 22.6333355,4.27683226 23.6179806,5.75463871 C24.6017871,7.23244516 25.2308194,8.84612258 25.5243677,10.5000581 C25.8179161,12.1531548 25.7768194,13.8448323 25.4212065,15.4794774 C25.0664323,17.1141226 24.3971419,18.6908968 23.4351419,20.1125097 C22.4731419,21.5358 21.219271,22.8030903 19.6928194,23.8196065 C19.6022387,23.8799935 19.5007548,23.9135419 19.4084968,23.9714129" id="Fill-20" fill="#562C1A" mask="url(#mask-4)"></path>
                        </g>
                        <path d="M12.8653964,28.9870755 C12.8653964,28.9870755 13.2599155,28.0809587 12.6981144,26.9799159 C12.1363134,25.878873 11.3413538,26.0043205 11.3413538,26.0043205 C11.3413538,26.0043205 10.7262593,27.5019704 11.1474251,28.3250988 C11.5678506,29.1491923 12.8653964,28.9870755 12.8653964,28.9870755" id="Fill-23" fill="#EC998D"></path>
                    </g>
                </g>
            </g>
        </g>
    </g>
</svg>