<?xml version="1.0" encoding="UTF-8"?>
<svg width="42px" height="50px" viewBox="0 0 42 50" version="1.1" xmlns="http://www.w3.org/2000/svg" xmlns:xlink="http://www.w3.org/1999/xlink">
    <!-- Generator: Sketch 50.2 (55047) - http://www.bohemiancoding.com/sketch -->
    <title>man-06</title>
    <desc>Created with Sketch.</desc>
    <defs>
        <polygon id="path-1" points="0.735771429 0.348 29.6200883 0.348 29.6200883 23.8444418 0.735771429 23.8444418 0.735771429 0.348"></polygon>
    </defs>
    <g id="Page-1" stroke="none" stroke-width="1" fill="none" fill-rule="evenodd">
        <g id="01-Jobs-Copy" transform="translate(-354.000000, -754.000000)">
            <g id="01--Hero">
                <g id="illustration" transform="translate(10.000000, 370.000000)">
                    <g id="man-06" transform="translate(344.000000, 384.000000)">
                        <path d="M25.1254093,44.2282836 C14.9451686,47.1708776 4.26524172,41.4400691 1.27319656,31.4318377 C-1.7197161,21.4219004 -0.377676713,11 15.6712753,11 C28.9728202,11 35.8773396,13.736186 38.1406756,20.7770885 C41.3383208,30.7239093 35.3056499,41.2856895 25.1254093,44.2282836" id="Fill-1" fill="#606572"></path>
                        <path d="M26,50 L26.195698,43 C26.195698,43 29.7802737,45.5065993 30.9633205,43.8700792 C31.2757931,43.4378515 31.7815476,42.8071847 31.9128183,43.3743831 C32.0916042,44.1480546 31.6832959,44.21554 31.8032919,44.6461609 C31.9273145,45.0856192 32.0972415,44.9369907 32.1576422,44.7208769 C32.3179052,44.1464478 32.1479781,43.6523585 32.4113248,43.6547687 C32.6311831,43.6563755 32.8164116,44.4075519 32.9839227,45.7058418 C33.1345216,46.8788018 32.1922719,48.1626306 31.6132312,48.3321474 L26,50 Z" id="Fill-3" fill="#EC998D"></path>
                        <path d="M28.6790415,39.7845068 C28.8939491,37.2648108 33.4752332,37.5819154 33.9655977,32.3608311 C34.2035311,29.8419922 33.1477549,28.3036064 32.6275421,26.9306292 C31.7448859,24.6046241 31.0507003,22.233196 30.5398684,19.7949188 C30.2379744,18.3585207 30.2968181,16.4876035 28.7404437,14.499272 C25.5176827,10.3769123 21.8361109,13.1357223 20.2984983,11.1336781 C19.2913322,9.82240778 21.0029176,18.4767921 22.8961512,23.1425148 C23.5707222,24.8043143 24.0704676,26.5106799 24.3970931,28.27361 C25.3181256,33.2264409 28.5383282,41.4343077 28.6790415,39.7845068" id="Fill-5" fill="#D68178"></path>
                        <path d="M22,14 L25.5949129,14.9592773 C27.7942162,15.5477488 30.0440274,16.0037281 32.2778887,16.5087468 C33.0204415,16.6765128 33.0080361,17.6727846 32.9974029,17.9919702 C32.9504395,19.4476627 26.6626649,20 26.6626649,20 L22,14 Z" id="Fill-7" fill="#323E46"></path>
                        <path d="M28,35 L30.3328025,32.4268513 C31.7592349,30.8520908 33.2953288,29.3577925 34.7923766,27.8322947 C35.2900079,27.3257111 34.7591458,26.5325836 34.5855149,26.2829865 C33.7871448,25.1359895 28.5400006,27.8462524 28.5400006,27.8462524 L28,35 Z" id="Fill-9" fill="#323E46"></path>
                        <path d="M31.1316503,23.4640602 C30.626858,21.6009635 31.6188629,19.6287543 33.3349894,19.0804638 L38.6658646,18.1139086 C40.0379287,17.6765491 41.4911949,18.5376289 41.894694,20.0288337 C42.298193,21.5191291 41.5062634,23.0985331 40.132525,23.5368018 L35.169152,25.8572619 C33.4530255,26.4046431 31.6364427,25.3289753 31.1316503,23.4640602" id="Fill-11" fill="#D7D2CE"></path>
                        <polyline id="Fill-15" fill="#EC998D" points="21 7.023 20.9735683 7 17 7.251"></polyline>
                        <g id="Group-19" transform="translate(11.000000, 0.000000)">
                            <mask id="mask-2" fill="white">
                                <use xlink:href="#path-1"></use>
                            </mask>
                            <g id="Clip-18"></g>
                            <path d="M29.5212,20.8045714 C28.9229143,18.3197143 27.6226286,17.22 25.8937714,16.6414286 C25.3049143,16.4434286 24.0552,16.218 23.8117714,15.648 C22.3837714,12.3282857 17.4329143,0.905142857 15.3406286,0.402 C12.8592,-0.192857143 0.741771429,4.25142857 0.735771429,4.25228571 L8.43805714,12.6471429 L13.8337714,9.13885714 C13.9117714,9.312 20.4672,18.2991429 21.1374857,18.9711429 C21.1374857,18.9711429 19.6289143,21.8862857 20.7783429,22.0868571 C21.4014857,22.1965714 20.0172,19.3731429 23.3986286,19.2591429 C27.9397714,19.1048571 26.0857714,24.9848571 28.2526286,23.646 C28.7497714,23.3391429 29.9746286,22.686 29.5212,20.8045714" id="Fill-17" fill="#EC998D" mask="url(#mask-2)"></path>
                        </g>
                        <path d="M34.6359748,25.9974618 C32.7043149,26.0703045 31.0774202,24.5663687 31.0027839,22.6351481 C30.9263705,20.7030391 32.4324254,19.0765143 34.3640852,19.0027832 C36.2966336,18.9263872 37.9226398,20.4320997 37.9972761,22.3633203 C38.072801,24.2945409 36.5685231,25.9219541 34.6359748,25.9974618" id="Fill-20" fill="#D7D2CE"></path>
                        <path d="M34.9214469,24.9053179 C34.1820015,25.1110999 33.4358415,24.9717873 32.8264915,24.5811656 C32.2171415,24.1905439 31.2242199,23.713421 31.0336931,22.9121457 C30.844845,22.10996 31.4953219,21.1329505 31.8553924,20.4718984 C32.2146235,19.8117569 32.807187,19.3000334 33.5466324,19.0942514 C34.2877564,18.8893799 35.0330771,19.0277819 35.6415878,19.4193142 C36.2517771,19.8099358 36.7226385,20.4536876 36.912326,21.2540523 C37.1028528,22.0571486 36.9735967,22.8675293 36.6143656,23.5267603 C36.2526165,24.1878123 35.6608923,24.6986253 34.9214469,24.9053179" id="Fill-22" fill="#614D3F"></path>
                        <path d="M25.0629871,49.780588 C22.0484967,50.6463796 18.1844289,48.9063579 14.5903283,45.3301154 C10.9953653,41.7521852 7.66864438,36.3405658 5.72281024,29.8648497 C3.7769761,23.3908213 3.58118516,17.0771247 4.62655351,12.1667531 C5.67105933,7.25553759 9.55410247,3.28690418 12.5703179,2.42026873 C15.5856708,1.55278943 15.9315394,1.75531378 18.3146687,5.68091077 C20.6952104,9.60650776 23.5147724,17.7133887 25.4606066,24.1891048 C27.4064407,30.6648209 28.8140654,36.6283192 28.9831184,41.1893363 C29.1513088,45.752885 28.07834,48.9131087 25.0629871,49.780588" id="Fill-24" fill="#D68178"></path>
                        <path d="M22.6623376,36.5276014 C16.5571574,38.2831821 10.1917225,34.9936892 8.44689122,29.1786983 C6.69946606,23.3645534 10.2314956,17.2280585 16.338405,15.4724778 C22.4418559,13.7168971 28.8055616,17.0055439 30.5538514,22.8196888 C32.2995473,28.6346798 28.7675177,34.7703286 22.6623376,36.5276014" id="Fill-26" fill="#EC998D"></path>
                        <path d="M31.2135562,25 C31.2135562,25 30.3844059,24.8366545 30.0833222,23.7302835 C29.7814585,22.6239124 30.3968861,22 30.3968861,22 C30.3968861,22 31.7408428,22.3031154 31.9662656,23.1316306 C32.1916884,23.9601459 31.2135562,25 31.2135562,25" id="Fill-28" fill="#EC998D"></path>
                        <path d="M22.6660544,39.3143559 C24.3507567,38.7869369 25.916417,37.9941178 27.1861977,36.9832312 C27.3380193,36.8649 27.4907035,36.7254383 27.6442504,36.5732981 C29.5299438,34.6943677 30.2717994,31.9871188 29.9120857,29.3770706 C29.7654398,28.3087089 29.5178671,27.2640134 29.1038081,26.6047396 L27.7080845,24.3860296 L27.6563271,21.7810527 C27.6416625,21.0068285 27.27246,19.9976324 26.8049184,19.0205548 C25.667119,16.6336454 23.5467922,14.7504888 20.9226938,14.1723564 C20.7096259,14.1241787 20.5043217,14.0895245 20.3119568,14.068394 C18.6867755,13.8951233 16.9313382,14.0548704 15.2233451,14.504529 C15.1146547,14.5341118 15.0051016,14.5358022 14.8972737,14.5670755 C13.0874911,15.0877327 11.4692108,15.9321104 10.089877,17.0131504 C8.71140584,18.0941905 7.57274378,19.411893 6.7247856,20.8775094 C5.87769004,22.3448163 5.31957311,23.9600372 5.10219217,25.6394951 C4.88481123,27.3181077 5.00902891,29.0592668 5.52487732,30.7759145 C6.03986312,32.4925621 6.89644753,34.0215703 8.00664303,35.3198326 C9.11597592,36.6155593 10.4771946,37.6780044 12.0014491,38.4632165 C13.5231156,39.2475833 15.2086805,39.7504909 16.9649805,39.928833 C18.7212805,40.1054845 20.5491781,39.9575705 22.3580981,39.4369132 C22.4659259,39.4047948 22.5599518,39.3481648 22.6660544,39.3143559" id="Fill-30" fill="#323E46"></path>
                    </g>
                </g>
            </g>
        </g>
    </g>
</svg>