<?xml version="1.0" encoding="UTF-8"?>
<svg width="49px" height="46px" viewBox="0 0 49 46" version="1.1" xmlns="http://www.w3.org/2000/svg" xmlns:xlink="http://www.w3.org/1999/xlink">
    <!-- Generator: Sketch 50.2 (55047) - http://www.bohemiancoding.com/sketch -->
    <title>man-04</title>
    <desc>Created with Sketch.</desc>
    <defs></defs>
    <g id="Page-1" stroke="none" stroke-width="1" fill="none" fill-rule="evenodd">
        <g id="01-Jobs-Copy" transform="translate(-1134.000000, -729.000000)">
            <g id="01--Hero">
                <g id="illustration" transform="translate(10.000000, 370.000000)">
                    <g id="man-04" transform="translate(1124.000000, 359.000000)">
                        <path d="M17.5,40 C7.83501896,40 0,32.1651579 0,22.5003951 C0,12.8356322 7.83501896,5 17.5,5 C27.164981,5 35,12.8356322 35,22.5003951 C35,32.1651579 27.164981,40 17.5,40" id="Fill-1" fill="#4B515A"></path>
                        <path d="M17,0 L19.4957644,3.35229202 L21.9907317,6.70377547 L31.8789327,5.14082794 C31.8789327,5.14082794 38.5738944,8.1130965 41.5447388,9.64855297 C42.6878005,10.2396107 43.082372,12.7760652 43.6849903,13.2700956 C44.2509414,13.7342094 44.9850835,14.3204158 45.5972672,14.7182276 C46.2086537,15.1160394 46.6972847,15.3262651 46.7722134,15.0384176 C46.874244,14.6446486 46.608805,14.3050531 46.3401775,14.0115457 C46.070753,13.7188468 45.798937,13.4730443 45.8882138,13.2668614 C45.979882,13.0558271 46.1695951,13.0485501 46.3720621,13.1383003 C46.573732,13.2272419 46.7873586,13.4132109 46.9260564,13.5894771 C47.2935261,14.0552079 47.3182366,14.5734952 47.3501212,15.0133522 C47.3828029,15.4532091 47.4218614,15.8162528 47.8188243,15.9698793 C48.152018,16.099249 48.4612983,15.8008902 48.6805047,15.2858371 C48.898914,14.7699755 49.0264522,14.0374196 48.9953648,13.2975867 C48.9682629,12.6297157 48.7721728,11.9343536 48.354485,11.2923566 C47.9383914,10.651168 47.299903,9.28227505 46.3872073,8.82867258 L43.8555727,6.99485727 L35.0187653,0.593483439 C34.4384662,0.212651423 33.7609192,0.00970272653 33.0698212,0.00970272653 L17,0 Z" id="Fill-3" fill="#E29388"></path>
                        <path d="M15.2965121,46 C9.49153182,46 5,35.7024288 5,23.000397 C5,10.2975712 11.0303932,0 16.8353735,0 C22.6403538,0 24,10.2975712 24,23.000397 C24,35.7024288 21.1014924,46 15.2965121,46" id="Fill-5" fill="#2A67A1"></path>
                        <path d="M22.9542728,36.8338315 C23.7923885,34.650162 27.7442881,36.1358514 29.5206866,31.6247872 C30.3775836,29.4474702 29.8454466,27.8021745 29.7405844,26.4451232 C29.5629445,24.1455207 29.562162,21.8546529 29.7405844,19.5542564 C29.8454466,18.1979991 30.3775836,16.5519094 29.5206866,14.3753864 C27.7442881,9.86432232 23.7923885,11.3500116 22.9542728,9.16634215 C22.4057022,7.73544309 21.6834045,15.876957 22.1498069,20.5222175 C22.3157084,22.1762479 22.3157084,23.8239258 22.1498069,25.4771621 C21.6834045,30.1224226 22.4057022,38.2639365 22.9542728,36.8338315" id="Fill-7" fill="#2A67A1"></path>
                        <polygon id="Fill-9" fill="#109982" points="31 30.8057821 30.2445439 31 28 24.1949592 28.7554561 24"></polygon>
                        <path d="M21.13206,36.6108332 C21.13206,36.6108332 27.4514683,34.7314689 28.9065292,31.4494305 C29.2899679,30.5837175 29.9125735,29.3148922 30.2651519,29.7587071 C30.7458003,30.3653324 30.0591597,30.758269 30.3600471,31.0674522 C30.6686497,31.3844629 30.9957683,31.1668605 30.947935,30.8224539 C30.8584402,30.1876499 30.5012328,29.6060724 30.5336361,29.2201804 C30.5436656,29.1059 30.6755932,29.0495426 30.7913192,29.0127537 C31.1770723,28.8906459 31.9809819,29.6561679 32.5773563,30.8451534 C33.1166392,31.9190758 33.2354512,33.1534604 32.3613345,34.0778791 L24.5313169,43.3424169 C24.5104862,43.3674646 24.487341,43.3909469 24.4618813,43.412081 C23.44195,44.2691838 22.1411903,44.6073284 21.3812566,44.8358892 C19.8266713,45.3024036 17.1657461,46.0405296 16,45.9982615 C16,45.9982615 20.6776428,41.3902576 21.13206,36.6108332" id="Fill-11" fill="#E29388"></path>
                        <path d="M30,29.5208951 L30.3346008,30.7540187 C30.3346008,30.7540187 30.4296578,31.0226663 30.5604563,30.9984568 C30.6912548,30.9734663 31,30.3510474 31,30.3510474 L30.5977186,29 C30.5977186,29 30.5209125,29.0656 30.3155894,29.326438 C30.1893536,29.4865332 30,29.5208951 30,29.5208951" id="Fill-13" fill="#138E77"></path>
                        <path d="M30.3950197,29 C30.3950197,29 30.2432642,29.1244875 30.2432642,29.1789042 C30.2432642,29.4241521 30.5583439,30.1121878 30.0214154,30.4178159 C29.8383561,30.5221767 30.8890756,31 30.8890756,31 L31,29.9668282 L30.6400061,29.0782706 L30.3950197,29 Z" id="Fill-15" fill="#1F7F6D"></path>
                        <path d="M29.6747782,29.5534964 C29.6747782,29.5534964 29.8004747,29.8087089 30.0855049,29.7056001 C30.0855049,29.7056001 30.5971428,29.5571527 30.4068277,29.0854848 C30.2820163,28.7754272 30.9839695,29.4035864 30.9839695,29.4694006 C30.9839695,29.5344834 31.0538992,30.7571636 30.9016471,30.7571636 C30.749395,30.7571636 29.6429114,31.0313891 29.5871447,30.9970195 C29.5322631,30.9626499 28.8409322,30.2430822 29.0339029,30.1399734 C29.2277588,30.0375958 29.6747782,29.5534964 29.6747782,29.5534964" id="Fill-17" fill="#E29388"></path>
                        <path d="M28.4557531,21 C28.4557531,21 29.0587279,21.1886792 28.792461,21.8015094 C28.6135409,22.2135849 28.909393,24.0264151 28.9537708,24.1290566 C29.0587279,24.3728302 28.9770164,24.5781132 28.788939,24.6445283 C28.6727113,24.6860377 28.6114277,24.9864151 28.6579187,25.1977358 C28.7149759,25.4573585 28.4043312,25.554717 28.4148974,25.6083019 C28.4148974,25.6083019 28.3522049,25.9056604 28,26 L28.1908951,21.1781132 L28.4557531,21 Z" id="Fill-19" fill="#FFFFFF"></path>
                        <path d="M17.5912864,35 C14.1144425,35 10.9664261,33.6571019 8.6880103,31.4846746 C6.40959447,29.3138124 5,26.3134212 5,23 C5,19.6857963 6.40959447,16.6861876 8.6880103,14.5145428 C10.9664261,12.3428981 14.1144425,11 17.5912864,11 C21.0681302,11 28,14.5145428 28,14.5145428 C28,14.5145428 27.9244164,19.6857963 27.9244164,23 C27.9244164,26.3134212 28,31.4846746 28,31.4846746 C28,31.4846746 21.0681302,35 17.5912864,35" id="Fill-21" fill="#313E45"></path>
                        <path d="M28.7675805,24 C28.7675805,24 28,23.6073256 28,22.501212 C28,21.3934824 28.7675805,21 28.7675805,21 C28.7675805,21 30,21.6714247 30,22.500404 C30,23.3285753 28.7675805,24 28.7675805,24" id="Fill-23" fill="#E29388"></path>
                        <path d="M18.5,34 C12.7011632,34 8,29.2991479 8,23.5004048 C8,17.7008521 12.7011632,13 18.5,13 C24.2988368,13 29,17.7008521 29,23.5004048 C29,29.2991479 24.2988368,34 18.5,34" id="Fill-25" fill="#E29388"></path>
                        <path d="M17.8474597,34.9710447 C19.4716144,34.9342637 21.0601169,34.628277 22.4465905,34.0569975 C22.6105905,33.9896961 22.7825132,33.905178 22.957605,33.8089214 C25.11575,32.6233207 26.4863781,30.4078518 26.8595376,27.9967393 C27.0124458,27.0106952 27.0702816,26.0191731 26.8793444,25.3273771 L26.2368129,23 L26.8793444,20.6718404 C27.0702816,19.9808269 27.0124458,18.9893048 26.8595376,18.0024782 C26.4863781,15.5913656 25.11575,13.3766793 22.957605,12.1910786 C22.7825132,12.094822 22.6105905,12.0103039 22.4465905,11.9430025 C21.0601169,11.371723 19.4716144,11.0665188 17.8474597,11.0281727 C17.7444646,11.025825 17.6470153,11 17.5440201,11 C15.8121166,11 14.161817,11.3357245 12.6612565,11.9430025 C11.160696,12.5502804 9.80908242,13.4283292 8.67375868,14.5145428 C7.53843494,15.6007565 6.62098561,16.8927873 5.9855846,18.3288118 C5.35097587,19.7648363 5,21.3432894 5,23 C5,24.6567106 5.35097587,26.2351637 5.9855846,27.6704056 C6.62098561,29.1064302 7.53843494,30.3992435 8.67375868,31.4854572 C9.80908242,32.5708882 11.160696,33.4497196 12.6612565,34.0569975 C14.161817,34.6642755 15.8121166,35 17.5440201,35 C17.6470153,35 17.7444646,34.9733925 17.8474597,34.9710447" id="Fill-27" fill="#313E45"></path>
                        <path d="M30,29 C30,29 30.1725082,29.5840419 30.1286966,29.8371485 C30.0843373,30.0902551 30.4353779,31 30.4353779,31 L31,30.264225 L30.5,29.088947 L30,29 Z" id="Fill-29" fill="#E29388"></path>
                    </g>
                </g>
            </g>
        </g>
    </g>
</svg>