<?xml version="1.0" encoding="UTF-8"?>
<svg width="42px" height="42px" viewBox="0 0 42 42" version="1.1" xmlns="http://www.w3.org/2000/svg" xmlns:xlink="http://www.w3.org/1999/xlink">
    <!-- Generator: Sketch 50.2 (55047) - http://www.bohemiancoding.com/sketch -->
    <title>man-02</title>
    <desc>Created with Sketch.</desc>
    <defs>
        <polygon id="path-1" points="1.05032085e-20 0.265812303 1.05032085e-20 41 30.7072141 41 30.7072141 0.265812303"></polygon>
        <polygon id="path-3" points="13.7736667 7.43738202 13.7736667 0.45710273 0.1141 0.45710273 0.1141 7.43738202 13.7736667 7.43738202"></polygon>
    </defs>
    <g id="Page-1" stroke="none" stroke-width="1" fill="none" fill-rule="evenodd">
        <g id="01-Jobs-Copy" transform="translate(-1103.000000, -576.000000)">
            <g id="01--Hero">
                <g id="illustration" transform="translate(10.000000, 370.000000)">
                    <g id="man-02" transform="translate(1093.000000, 206.000000)">
                        <path d="M37.8235023,28.1500927 L37.8235023,28.150883 C38.4011351,29.8136467 37.5137457,31.6479026 35.8503845,32.2256024 L31.2522377,33.8235625 C29.5888764,34.4012623 27.754833,33.5129798 27.17641,31.8502161 C26.5987772,30.1858718 27.4869568,28.3516158 29.150318,27.7731258 L33.7484648,26.1767462 C35.4110359,25.5982562 37.2458695,26.487329 37.8235023,28.1500927" id="Fill-1" fill="#D3D2C2"></path>
                        <path d="M21.7178654,4.73072832 L21.7185969,4.7314741 C22.4135274,6.23422428 21.7763859,8.04349075 20.3024018,8.75347496 L16.2264519,10.7126436 C14.7524679,11.421882 12.9771035,10.7723061 12.282173,9.26955591 C11.5857795,7.76605995 12.2236525,5.9560477 13.6976366,5.24680928 L17.772855,3.2868949 C19.2468391,2.57840226 21.022935,3.22797814 21.7178654,4.73072832" id="Fill-3" fill="#D3D2C2"></path>
                        <g id="Group-7" transform="translate(0.000000, 1.000000)">
                            <mask id="mask-2" fill="white">
                                <use xlink:href="#path-1"></use>
                            </mask>
                            <g id="Clip-6"></g>
                            <path d="M28.529145,39.9229148 C26.33202,41.2356741 21.498345,41.6046741 16.891745,39.5592296 C12.607545,37.6565259 6.54317,33.3560815 3.757045,28.0572111 C3.75162,28.0473407 3.746195,28.0389889 3.74232,28.0291185 C3.68032,27.9129519 3.62142,27.7998222 3.56097,27.6836556 C3.499745,27.5682481 3.44007,27.4551185 3.378845,27.3389519 C3.37342,27.3290815 3.369545,27.3192111 3.364895,27.3101 C0.58187,22.0097111 -0.262105,16.380563 0.06727,11.7840074 C0.17112,10.3338222 0.533045,9.02106296 1.039895,7.82826667 C1.997795,4.86867407 3.73612,1.83847037 6.083595,0.805877778 C7.470845,0.196951852 8.51322,-0.561548148 13.077195,2.6653037 C16.668545,5.20426667 22.226845,10.8129148 25.38497,16.1262111 C28.036245,20.5853407 30.740995,29.1475074 30.706895,32.089637 C30.630945,38.6314148 29.919495,39.0915259 28.529145,39.9229148" id="Fill-5" fill="#7F979B" mask="url(#mask-2)"></path>
                        </g>
                        <path d="M12.7985714,12.2198139 C7.6149033,14.9293525 5.51724407,21.2816807 8.11405433,26.4067839 C10.710099,31.5326647 17.0176225,33.4909363 22.2012906,30.7798423 C27.3857243,28.0703037 29.482618,21.7179755 26.8858077,16.5928724 C24.289763,11.4669915 17.9822395,9.50949761 12.7985714,12.2198139" id="Fill-8" fill="#EC998D"></path>
                        <path d="M26.2162831,16 C26.2162831,16 25.7345641,16.7945564 26.2089621,17.9007897 C26.6840922,19.0079009 27.5033073,18.9999992 27.5033073,18.9999992 C27.5033073,18.9999992 28.2602942,17.6839328 27.9052278,16.8560138 C27.5494293,16.0272168 26.2162831,16 26.2162831,16" id="Fill-10" fill="#EC998D"></path>
                        <path d="M11.2900033,11.3245242 C12.7721922,10.5986964 14.3475516,10.1367347 15.8677852,10.0138059 C16.0463621,9.99971218 16.2404675,9.99658024 16.4446664,10.0036271 C18.9470733,10.0850576 20.6132741,10.287068 22.0822638,12.331444 C22.6839905,13.1684559 23.3423961,16.1923473 23.3423961,16.1923473 C23.3423961,16.1923473 25.9620426,16.7537481 28.6344858,21.9895745 C29.7804841,24.2351779 27.9892794,27.8032445 26.6002612,29.9039955 C26.4869036,30.0754694 26.3727696,30.2328496 26.25553,30.372221 C25.274133,31.5466998 23.9852732,32.5716283 22.5380233,33.3655759 C22.4464055,33.41647 22.3710926,33.4869387 22.277922,33.5347009 C20.7165382,34.3450912 19.0705243,34.8078359 17.4322747,34.9519053 C15.7940251,35.0944087 14.1619869,34.9182369 12.6293306,34.4500113 C11.0951215,33.9817858 9.65951793,33.2215065 8.41258481,32.1965781 C7.1656517,31.1716496 6.10816546,29.8828549 5.32941458,28.3575984 C4.5506637,26.832342 4.12596108,25.2146932 4.02424984,23.5962615 C3.92253861,21.9770467 4.14226593,20.357049 4.65548062,18.8263117 C5.1686953,17.2955743 5.97539736,15.8540974 7.04297708,14.5934902 C8.11133323,13.331317 9.44134345,12.2507965 11.0027273,11.4396232 C11.0958979,11.391861 11.1968327,11.3707204 11.2900033,11.3245242" id="Fill-12" fill="#333333"></path>
                        <g id="Group-16" transform="translate(28.000000, 4.000000)">
                            <mask id="mask-4" fill="white">
                                <use xlink:href="#path-3"></use>
                            </mask>
                            <g id="Clip-15"></g>
                            <path d="M1.34687778,1.69767273 C1.34687778,1.69767273 3.53943333,1.93258182 3.59387778,1.79003636 C3.72376667,1.44167273 8.14543333,0.163854545 8.44643333,0.518763636 C8.83143333,0.973309091 8.10576667,1.71512727 7.39098889,2.01476364 C5.73043333,2.70858182 8.61676667,2.77767273 9.29654444,2.9384 C11.0939889,3.36458182 11.2277667,3.28894545 12.6907667,3.82276364 C15.2916556,4.77185455 12.5437667,6.63730909 11.3576556,7.02276364 C8.81121111,7.8504 6.18232222,7.3064 4.00998889,6.54785455 C2.74065556,6.10567273 2.53765556,5.73112727 0.1141,5.0504 L1.34687778,1.69767273 Z" id="Fill-14" fill="#F2ABA5" mask="url(#mask-4)"></path>
                        </g>
                        <g id="Group-21" transform="translate(32.000000, 4.000000)" fill="#020202">
                            <path d="M4.26152727,0.518036364 C4.22007273,0.467127273 4.09134545,0.453309091 3.91170909,0.462763636 C3.69789091,0.830036364 3.53134545,1.34494545 3.3968,1.95003636 C4.02152727,1.62130909 4.59970909,0.944945455 4.26152727,0.518036364" id="Fill-17"></path>
                            <path d="M7.29563636,3.4896 C6.66581818,3.29323636 6.25345455,3.24232727 5.05636364,2.93832727 C4.72109091,2.85396364 3.81418182,2.7936 3.25709091,2.65396364 C3.19236364,3.02487273 3.13272727,3.41178182 3.07818182,3.8096 C2.81927273,5.69687273 2.83236364,6.76087273 2.37781818,5.47796364 C1.35890909,2.60305455 0.38,2.84378182 0.651272727,4.01978182 C0.794545455,4.63796364 1.07745455,5.83578182 1.31818182,6.94414545 C3.08036364,7.45905455 5.05563636,7.69250909 6.98363636,7.02269091 C6.99309091,7.01978182 7.00472727,7.01469091 7.01345455,7.01105455 C7.03672727,6.91723636 7.06290909,6.82487273 7.08254545,6.73105455 C7.40472727,5.24887273 7.476,4.35287273 7.29563636,3.4896" id="Fill-19"></path>
                        </g>
                        <path d="M30.8628852,7.96061906 C31.4023525,6.38410159 30.1758777,5.41688073 30.1758777,5.41688073 C30.1758777,5.41688073 22.0399844,1.02724379 18.757027,0.485480054 C15.4740696,-0.056283684 11.3384058,-0.594295596 6.55053888,1.54499584 C4.08321366,2.64803282 10.7089012,8.41083823 10.7089012,8.41083823 L18.9681229,7.646216 L29.168065,9.96184328 C29.168065,9.96184328 30.0124486,10.4465793 30.8628852,7.96061906" id="Fill-22" fill="#7F979B"></path>
                        <path d="M37.8993195,17 L38.4993573,14.5264228 C38.4993573,14.5264228 39.3071582,12.81157 39.6799317,11.0869224 C40.0609557,9.32610914 40.1022083,8.36319971 39.8014393,7.33775391 C39.3641618,5.8414017 37.8018133,3.72948063 36.9835118,4.02860038 C36.1652103,4.32922704 35.8171883,6.10510929 35.5501715,8.06031271 C35.2831547,10.0147627 35.2966555,11.1170604 34.827876,9.78872759 C33.7770598,6.81109218 32.7674962,7.05973076 33.0472638,8.27730638 C33.3270315,9.49488199 34.1325822,12.8854081 34.1625841,13.6780378 C34.1865856,14.3388137 34.2773413,15.1480193 34.0133247,15.9316075 C34.4566026,15.5262513 36.9422592,16.7332786 37.8993195,17" id="Fill-24" fill="#EF968F"></path>
                        <path d="M29.3036279,39.8521363 C33.0537741,37.683635 36.4197776,30.5412711 36.4806319,30.1774591 L39,16.5250532 C38.8638385,16.3692418 38.7223523,16.2535178 38.5816267,16.1264483 C37.8361615,15.4525263 37.0450556,15.1424162 36.3619661,15.0410632 C35.7602692,14.9510556 35.1502048,15.0145904 34.5652428,15.177209 C34.4191925,15.2180528 34.2739029,15.2596529 34.1324166,15.3125985 L30.1685196,27.4825271 L26,31.8944098 C26,31.8944098 26.8344646,41.2801552 29.3036279,39.8521363" id="Fill-26" fill="#7F979B"></path>
                    </g>
                </g>
            </g>
        </g>
    </g>
</svg>