<?xml version="1.0" encoding="UTF-8"?>
<svg width="46px" height="38px" viewBox="0 0 46 38" version="1.1" xmlns="http://www.w3.org/2000/svg" xmlns:xlink="http://www.w3.org/1999/xlink">
    <!-- Generator: Sketch 50.2 (55047) - http://www.bohemiancoding.com/sketch -->
    <title>man-07</title>
    <desc>Created with Sketch.</desc>
    <defs>
        <polygon id="path-1" points="18.4475385 0.312645455 18.4475385 16.3969636 0.29545 16.3969636 0.29545 0.312645455 18.4475385 0.312645455"></polygon>
        <polygon id="path-3" points="43.7141492 0.51675 0.331640678 0.51675 0.331640678 23.405325 43.7141492 23.405325 43.7141492 0.51675"></polygon>
    </defs>
    <g id="Page-1" stroke="none" stroke-width="1" fill="none" fill-rule="evenodd">
        <g id="01-Jobs-Copy" transform="translate(-920.000000, -729.000000)">
            <g id="01--Hero">
                <g id="illustration" transform="translate(10.000000, 370.000000)">
                    <g id="man-07" transform="translate(910.000000, 359.000000)">
                        <path d="M1.95026615,3 L9.04973385,3 C9.57170096,3 10,3.44635502 10,3.99123656 L10,29.008017 C10,29.553645 9.57170096,30 9.04973385,30 L1.95026615,30 C1.42829904,30 1,29.553645 1,29.008017 L1,3.99123656 C1,3.44635502 1.42829904,3 1.95026615,3" id="Fill-1" fill="#474D56"></path>
                        <path d="M2.98764515,4 L9.0116117,4 C9.55559684,4 10,4.45017083 10,5.00046326 L10,28.9995367 C10,29.5498292 9.55559684,30 9.0116117,30 L2.98764515,30 C2.44440316,30 2,29.5498292 2,28.9995367 L2,5.00046326 C2,4.45017083 2.44440316,4 2.98764515,4 Z" id="Stroke-3" stroke="#595E66" stroke-width="0.136" stroke-dasharray="0.6820000000000001,0.6820000000000001,0.6820000000000001,0.6820000000000001"></path>
                        <g id="Group-9" transform="translate(3.000000, 11.000000)" fill="#68433C">
                            <path d="M1.13688,7.76453333 L3.31048,7.76453333 C3.60248,7.76453333 3.84168,7.9838 3.84168,8.25146667 L3.84168,10.1038667 C3.84168,10.3722667 3.60248,10.5908 3.31048,10.5908 L1.13688,10.5908 C0.84488,10.5908 0.60568,10.3722667 0.60568,10.1038667 L0.60568,8.25146667 C0.60568,7.9838 0.84488,7.76453333 1.13688,7.76453333" id="Fill-5"></path>
                            <path d="M1.13688,0.05236 L3.31048,0.05236 C3.60248,0.05236 3.84168,0.271626667 3.84168,0.539293333 L3.84168,2.39169333 C3.84168,2.66009333 3.60248,2.87862667 3.31048,2.87862667 L1.13688,2.87862667 C0.84488,2.87862667 0.60568,2.66009333 0.60568,2.39169333 L0.60568,0.539293333 C0.60568,0.271626667 0.84488,0.05236 1.13688,0.05236" id="Fill-7"></path>
                        </g>
                        <path d="M4.36909394,12 L4.63035019,12 C4.83379655,12 5,12.2274413 5,12.505087 L5,19.494913 C5,19.7725587 4.83379655,20 4.63035019,20 L4.36909394,20 C4.16620345,20 4,19.7725587 4,19.494913 L4,12.505087 C4,12.2274413 4.16620345,12 4.36909394,12" id="Fill-10" fill="#875548"></path>
                        <path d="M11,21.0739562 C11,18.8652779 13.0147255,18 15.4996475,18 C17.9845696,18 20,18.8652779 20,21.0739562 C20,23.2833621 18.2200204,26 15.4996475,26 C12.7792747,26 11,23.2833621 11,21.0739562" id="Fill-12" fill="#7F979B"></path>
                        <path d="M23,21.0739562 C23,18.8652779 25.0147255,18 27.5003525,18 C29.9845696,18 32,18.8652779 32,21.0739562 C32,23.2833621 30.2200204,26 27.5003525,26 C24.7799796,26 23,23.2833621 23,21.0739562" id="Fill-14" fill="#7F979B"></path>
                        <path d="M0,14 L7,16.5059266 C7,16.5059266 3.41118188,21.3125294 4.71196037,23.1582212 C5.0552017,23.6452029 5.54069356,24.413916 4.93135173,24.3741146 C4.09837226,24.3194852 4.1507431,23.8434294 3.68223638,23.8371861 C3.20169851,23.8309427 3.30007077,24.0674098 3.50106157,24.205544 C4.03255485,24.5707803 4.58244869,24.5450264 4.50176929,24.8353424 C4.43453645,25.0788333 3.62137297,25.0398123 2.26326964,24.8002236 C1.03609342,24.5840474 0.0205237084,23.1199807 0.0205237084,22.4222858 L0,14 Z" id="Fill-16" fill="#EC998D"></path>
                        <path d="M22,28 C23.6501931,28 25,29.3044776 25,30.8992537 L24.3992278,35.6813433 C24.3992278,36.9567164 23.3196911,38 22,38 C20.6803089,38 19.6007722,36.9567164 19.6007722,35.6813433 L19,30.8992537 C19,29.3044776 20.3498069,28 22,28" id="Fill-18" fill="#D7D2CE"></path>
                        <path d="M43,17 L43.001,17 L43,17 Z" id="Fill-20" fill="#EC998D"></path>
                        <path d="M21.1082443,36.9900035 C23.3221923,37.101282 24.5548068,36.2746414 25.4603101,34.9536818 C25.768092,34.5040256 26.2609891,33.5017617 26.794775,33.435903 C29.9075355,33.0536195 40.6226574,31.705408 41.5526941,30.0566687 C42.6559509,28.1013457 44.1227472,21.3436342 45,15 L35.2067368,21.1581699 L34.6521347,26.6032488 C34.4893225,26.6267157 25.4075262,29.9416052 24.683421,30.3435705 C24.683421,30.3435705 22.6278245,28.3382857 22.17879,29.2618219 C21.9356869,29.7621969 24.6239462,29.2928588 23.8916632,32.186858 C22.9088427,36.0740372 18.4690517,33.0377226 19.0526478,35.2065187 C19.1872094,35.7046227 19.431056,36.9052198 21.1082443,36.9900035" id="Fill-22" fill="#EC998D"></path>
                        <path d="M19.0918017,30.2662431 C19.496818,28.6606849 21.1275415,27.6862351 22.7339031,28.0920021 C24.3402647,28.4970078 25.3132174,30.1269272 24.9082011,31.734008 C24.5024235,33.3395661 22.8724613,34.3132546 21.2653384,33.9082489 C19.659738,33.5032433 18.6867854,31.8725625 19.0918017,30.2662431" id="Fill-24" fill="#D7D2CE"></path>
                        <path d="M19.0015755,30.6440277 C19.0251066,30.0164979 19.3272152,29.4560059 19.7948005,29.0593076 C20.2631449,28.6619181 20.8969659,27.9784081 21.5869578,28.0005237 C22.2769498,28.0219482 22.8917941,28.7455426 23.3282576,29.1712677 C23.7647211,29.5969928 24.0220449,30.1747626 23.9985138,30.8029835 C23.9749827,31.4318956 23.672874,31.9910053 23.2052887,32.3883948 C22.7377034,32.7857843 22.1031234,33.0200713 21.4131315,32.9986468 C20.7231395,32.9765313 20.1082952,32.7028508 19.6718317,32.2757435 C19.2353681,31.8500184 18.9772853,31.2722487 19.0015755,30.6440277" id="Fill-26" fill="#614D3F"></path>
                        <path d="M18,14.9996157 C18,19.4179678 13.9702899,23 9,23 C4.02971014,23 0,19.4179678 0,14.9996157 C0,10.5820322 4.02971014,7 9,7 C13.9702899,7 18,10.5820322 18,14.9996157" id="Fill-28" fill="#C8C9CA"></path>
                        <g id="Group-32" transform="translate(27.000000, 6.000000)">
                            <mask id="mask-2" fill="white">
                                <use xlink:href="#path-1"></use>
                            </mask>
                            <g id="Clip-31"></g>
                            <path d="M18.4477577,8.35441818 C18.4477577,12.7960545 14.38395,16.3969636 9.37160385,16.3969636 C4.35852692,16.3969636 0.29545,12.7960545 0.29545,8.35441818 C0.29545,3.91355455 4.35852692,0.312645455 9.37160385,0.312645455 C14.38395,0.312645455 18.4477577,3.91355455 18.4477577,8.35441818" id="Fill-30" fill="#C8C9CA" mask="url(#mask-2)"></path>
                        </g>
                        <g id="Group-35" transform="translate(1.000000, 0.000000)">
                            <mask id="mask-4" fill="white">
                                <use xlink:href="#path-3"></use>
                            </mask>
                            <g id="Clip-34"></g>
                            <path d="M5.54675932,21.497325 C5.54675932,21.497325 17.3313017,25.790325 38.6347593,21.497325 C30.0756407,12.628575 43.7141492,10.255575 43.7141492,10.255575 C43.7141492,10.255575 36.9754373,0.516075 22.1869627,0.516075 C7.39848814,0.516075 0.331640678,10.458825 0.331640678,10.458825 L5.54675932,21.497325 Z" id="Fill-33" fill="#C8C9CA" mask="url(#mask-4)"></path>
                        </g>
                        <path d="M20,24.7667859 C20,24.7667859 20.3925687,24 21.4983845,24 C22.6058158,24 23,24.7667859 23,24.7667859 C23,24.7667859 22.3287561,26 21.4991922,26 C20.6712439,26 20,24.7667859 20,24.7667859" id="Fill-36" fill="#EC998D"></path>
                        <path d="M34,13.5003709 C34,19.851466 28.851466,25 22.4996291,25 C16.1492759,25 11,19.851466 11,13.5003709 C11,7.14853401 16.1492759,2 22.4996291,2 C28.851466,2 34,7.14853401 34,13.5003709" id="Fill-38" fill="#323E46"></path>
                        <path d="M30,21 C29.3431193,22.3793876 29.0722936,22.622106 28.8007339,23.2516804 C27.0554128,24.3599701 24.9944954,25 22.7845872,25 C20.5761468,25 18.5137615,24.3599701 16.7684404,23.2516804 C16.6165138,22.8185213 16.4689908,22.56236 16,21.742345 C20.426422,24.3704257 26.4873394,23.0560119 30,21" id="Fill-40" fill="#EC998D"></path>
                        <path d="M4,3 C4,3 5.17125307,7.78973267 5.2445861,16.4802201 C5.30615818,23.899566 4,30 4,30 L6.11489701,30 C7.1851442,18.9844359 6.98520791,16.373483 6.98520791,16.373483 C6.98520791,16.373483 6.91049124,9.86700025 5.92810532,3 L4,3 Z" id="Fill-42" fill="#231916"></path>
                        <path d="M4.18617332,30 L7.81382668,30 C7.91665044,30 8,30.106 8,30.238 C8,30.37 7.91665044,30.478 7.81382668,30.478 L4.18617332,30.478 C4.08334956,30.478 4,30.37 4,30.238 C4,30.106 4.08334956,30 4.18617332,30" id="Fill-44" fill="#231916"></path>
                        <path d="M4.18617332,3 L7.81382668,3 C7.91665044,3 8,3.107 8,3.239 C8,3.371 7.91665044,3.478 7.81382668,3.478 L4.18617332,3.478 C4.08334956,3.478 4,3.371 4,3.239 C4,3.107 4.08334956,3 4.18617332,3" id="Fill-46" fill="#231916"></path>
                    </g>
                </g>
            </g>
        </g>
    </g>
</svg>