<?xml version="1.0" encoding="UTF-8"?>
<svg width="39px" height="49px" viewBox="0 0 39 49" version="1.1" xmlns="http://www.w3.org/2000/svg" xmlns:xlink="http://www.w3.org/1999/xlink">
    <!-- Generator: Sketch 50.2 (55047) - http://www.bohemiancoding.com/sketch -->
    <title>man-01</title>
    <desc>Created with Sketch.</desc>
    <defs>
        <polygon id="path-1" points="7.63466667 0.587144609 7.63466667 8.48180924 0.0322651794 8.48180924 0.0322651794 0.587144609 7.63466667 0.587144609"></polygon>
        <polygon id="path-3" points="25.491173 0.448375 0.474254054 0.448375 0.474254054 16.3978458 25.491173 16.3978458 25.491173 0.448375"></polygon>
    </defs>
    <g id="Page-1" stroke="none" stroke-width="1" fill="none" fill-rule="evenodd">
        <g id="01-Jobs-Copy" transform="translate(-1299.000000, -459.000000)">
            <g id="01--Hero">
                <g id="illustration" transform="translate(10.000000, 370.000000)">
                    <g id="man-01" transform="translate(1289.000000, 89.000000)">
                        <path d="M32,39.8768888 C32,39.8768888 32.2149793,39.7898652 32.3099925,39.3107622 C32.3622978,39.0388134 32.5676798,38.9886802 32.7015621,39.0019229 C32.7015621,39.0019229 32.8440819,39.02226 32.864716,39.1603627 C32.8848704,39.2979925 32.8728737,39.4332575 32.9875614,39.5164975 C33.102249,39.6006834 32.3963682,40.2708599 32,39.8768888" id="Fill-1" fill="#EC998D"></path>
                        <path d="M22.2206099,10.6282954 C23.3975052,11.7073807 23.1903771,13.1800471 21.9435336,14.6266121 C20.6973693,16.0738641 19.6936467,15.8520025 18.3646311,17.5657631 C17.0356156,19.2788368 14,15.370501 14,15.370501 C14,15.370501 14.9541476,12.9252154 16.7646512,11.4085888 C18.5744757,9.89264903 21.0443938,9.54921004 22.2206099,10.6282954" id="Fill-3" fill="#323E46"></path>
                        <path d="M32.9222879,31.7031714 C32.4884767,30.1691522 31.0734257,29.7018621 29.2107918,30.1786887 C27.3488465,30.6555153 27.0920027,31.6541263 24.9532445,32.0866762 C22.8144862,32.5199072 24.9429156,36.9761921 24.9429156,36.9761921 C24.9429156,36.9761921 27.5685064,37.2037065 29.74858,36.2520969 C31.9293422,35.3011684 33.3560991,33.2371906 32.9222879,31.7031714" id="Fill-5" fill="#323E46"></path>
                        <path d="M15,11.2012865 C15,11.2012865 16.0447034,10.793498 16.9485906,11.1387684 C17.8518436,11.4840389 18.8584886,11.7817103 19.7471524,14.2618322 C20.6358163,16.741954 18.896547,20 18.896547,20 L15,11.2012865 Z" id="Fill-7" fill="#5C6777"></path>
                        <path d="M26.6310015,38 C26.6310015,38 27.6737112,37.6427309 28.202294,36.8155104 C28.7302482,35.9882899 29.3663074,35.1312417 28.7403045,32.7264693 C28.1149301,30.3223597 25,29 25,29 L26.6310015,38 Z" id="Fill-9" fill="#5C6777"></path>
                        <path d="M22,47.8274342 C22,47.8274342 27.2328691,48.9961115 31.3595237,45.2507916 C35.4861784,41.5048107 35.2668909,39.7022185 34.6753735,39.2804899 C33.4602137,38.4747107 32.3861242,39.6612355 32.3861242,39.6612355 C32.3861242,39.6612355 31.6179197,40.5291502 27.5925284,40.6719298 C23.5664387,40.8147094 22,47.8274342 22,47.8274342" id="Fill-11" fill="#EC998D"></path>
                        <g id="Group-15" transform="translate(31.000000, 16.000000)">
                            <mask id="mask-2" fill="white">
                                <use xlink:href="#path-1"></use>
                            </mask>
                            <g id="Clip-14"></g>
                            <path d="M1.84006667,7.89493846 C0.0527333333,6.75193846 -0.503266667,4.31986154 0.5974,2.46447692 C1.69873333,0.6084 4.04006667,0.0310153846 5.82673333,1.17401538 C7.61406667,2.31701538 8.17073333,4.74909231 7.0694,6.60447692 C5.96873333,8.46055385 3.6274,9.03793846 1.84006667,7.89493846" id="Fill-13" fill="#A38A77" mask="url(#mask-2)"></path>
                        </g>
                        <g id="Group-20" transform="translate(6.000000, 0.000000)">
                            <mask id="mask-4" fill="white">
                                <use xlink:href="#path-3"></use>
                            </mask>
                            <g id="Clip-19"></g>
                            <path d="M23.5397676,16.3978458 C22.8525243,15.8814708 15.9793892,8.68267917 15.6751189,7.7356375 C13.9556054,8.92492917 10.6051189,10.7467625 10.6051189,10.7467625 L0.474254054,5.17997083 C6.74095676,3.28659583 13.6513351,0.2492625 15.9442541,0.458220833 C17.8773892,0.635304167 23.7843081,10.2580125 25.491173,13.0566375 L23.5397676,16.3978458 Z" id="Fill-18" fill="#EC998D" mask="url(#mask-4)"></path>
                        </g>
                        <path d="M28,14.1117551 C28.355799,14.5284006 29.0532779,15.2500064 29.0963409,16.0344768 C29.1394038,16.8182785 29.0109209,17.3339023 29.1464633,17.5973988 C29.2820058,17.8608953 29.4655529,18 29.4655529,18 L30.9155749,17.4950766 C30.9155749,17.4950766 31.2367823,17.19346 30.6261353,16.1862883 C30.0147823,15.1784477 28.9212652,13.5600176 28,14.1117551" id="Fill-21" fill="#EC998D"></path>
                        <path d="M29.1400044,25.3306474 C27.0245189,24.0270397 26.3659626,21.2556911 27.6688909,19.1395237 C28.9724947,17.0240317 31.7438347,16.3661488 33.8599956,17.6690812 C35.9754811,18.9720135 36.6340374,21.7440375 35.3311091,23.8595295 C34.0275053,25.9756969 31.2554899,26.6342552 29.1400044,25.3306474" id="Fill-23" fill="#A38A77"></path>
                        <path d="M32,17.6147873 C32,17.6147873 31.0734529,16.9063046 30.5160655,17.010452 C29.9579485,17.1145994 29.8550799,17.853906 30.195057,17.9795368 C30.5350341,18.1047005 32,17.6147873 32,17.6147873" id="Fill-25" fill="#A38A77"></path>
                        <path d="M28.9023357,25.4050473 C27.0216223,24.2470602 26.436244,21.7831526 27.5949673,19.9024854 C28.7529828,18.0218182 31.2169509,17.4364543 33.0976643,18.5944414 C34.9783777,19.7531362 35.563756,22.2170438 34.4050327,24.0977111 C33.2470172,25.9783783 30.7830491,26.5637421 28.9023357,25.4050473" id="Fill-27" fill="#D5D0CD"></path>
                        <path d="M32.705345,25.8814939 C34.4879755,25.3506788 35.4255602,23.3656584 34.8122206,21.4920353 C34.1981636,19.6184123 32.5841118,19.1761782 32.2720618,19.0594123 C31.6321799,18.9077508 30.7591573,19.0943078 30.7591573,19.0943078 C28.9212903,19.4922514 26.7326362,22.0315743 27.0267523,23.6354279 C27.3072386,25.1654639 31.0217097,26.3948613 32.705345,25.8814939" id="Fill-29" fill="#7D3B20"></path>
                        <path d="M30.4320776,11.2737191 C31.6414874,13.080815 33.0379802,12.8728884 33.7384362,13.9878169 C34.4396287,15.1027453 33.5896537,15.8377415 32.8486876,16.3820808 C32.1077215,16.9264201 31.2540638,17.3388193 30.2228983,16.6017507 C29.0083326,15.6754068 28,14.4989985 28,14.4989985 C28,14.4989985 29.4863515,9.84102912 30.4320776,11.2737191" id="Fill-31" fill="#EC998D"></path>
                        <polygon id="Fill-33" fill="#A38A77" points="37 24 34 26 34.2958004 25.2364532 35.7839318 24.0837438"></polygon>
                        <path d="M33.5453787,14 C33.5453787,14 34.7803443,15.9379304 34.912016,16.3792766 C35.0002795,16.6038712 35.0567103,17.0637553 34.9083987,17.4958325 C34.7593636,17.9279097 34.6124989,17.9428827 34.5488334,18.0740744 C34.4844445,18.2052662 34.7166788,18.5325326 34.6124989,18.7706741 C34.508319,19.0088157 34.2312295,19.1236085 33.9772911,18.8034721 C33.159045,17.8623138 32.2973907,17.4209677 30.9459463,17.1293512 C29.9294691,16.8954876 30.0010927,16.1247361 30.0010927,16.1247361 L33.5453787,14 Z" id="Fill-35" fill="#EC998D"></path>
                        <path d="M17.3928046,30.6104129 C21.5022737,28.8147707 26.6715119,31.1151413 28.9399904,35.7483584 C31.2084689,40.3815755 29.7161996,45.5932682 25.6067304,47.3895871 C21.4979774,49.1852293 16.3280232,46.8848587 14.0595446,42.2516416 C11.7917822,37.6184245 13.2840515,32.4060552 17.3928046,30.6104129" id="Fill-37" fill="#BFA270"></path>
                        <path d="M5.39280459,5.61041012 C9.50227372,3.81477615 14.6722279,6.11513618 16.9399904,10.7483319 C19.2084689,15.3815276 17.7161996,20.5938728 13.6067304,22.3895068 C9.49797736,24.1851408 4.32802316,21.8854573 2.05954464,17.251585 C-0.208217816,12.6183893 1.28405151,7.4060441 5.39280459,5.61041012" id="Fill-39" fill="#BFA270"></path>
                        <g id="Group-43" transform="translate(0.000000, 8.000000)" fill="#BFA270">
                            <path d="M29.5812558,31.2365797 C29.5812558,31.2365797 28.4768372,18.4369356 15.2866047,0.454613559 C10.7475349,12.2125797 2.65172093,0.540088136 2.65172093,0.540088136 C2.65172093,0.540088136 -3.48153488,10.9763254 2.90706977,24.7335627 C9.29637209,38.4908 21.5831163,40.8118169 21.5831163,40.8118169 L29.5812558,31.2365797 Z" id="Fill-41"></path>
                        </g>
                        <path d="M10.5829843,16.845832 C16.7432388,14.4066053 23.7146827,17.4227475 26.153879,23.5830789 C28.5937788,29.7434104 25.5769707,36.7142377 19.4174197,39.154168 C13.2571651,41.5933947 6.28572128,38.5772525 3.84582147,32.4169211 C1.4066252,26.2565896 4.42272973,19.2857623 10.5829843,16.845832" id="Fill-44" fill="#323E46"></path>
                        <path d="M19,18 C20.477242,18.1136352 20.7937,18.2803455 21.4581306,18.3055221 C23.0870361,19.5514263 24.4099883,21.2702434 25.2103252,23.3646689 C26.010662,25.4590945 26.1820221,27.6508244 25.8176357,29.7146297 C25.4834508,30.0194713 25.3061818,30.2528657 24.7395774,31 C25.4978949,25.8340225 22.1205916,20.5714211 19,18" id="Fill-46" fill="#EC998D"></path>
                        <path d="M26.3564667,26 C26.3564667,26 25.5264738,25.9162497 25.1384434,24.8101132 C24.7497125,23.7023966 25.3030411,23 25.3030411,23 C25.3030411,23 26.649941,23.1746115 26.9406136,24.0034238 C27.2319866,24.832236 26.3564667,26 26.3564667,26" id="Fill-48" fill="#EC998D"></path>
                        <path d="M33.0810727,38 C33.0810727,38 33.7971033,38.0885778 34.0539403,38.2685014 C34.2390014,38.3750716 34.8996865,38.8788577 35,39.6788259 C34.9221706,40.0490533 33.4555187,40.0206807 33.4304403,39.9715478 C33.4062267,39.9217227 33.4494653,38.944599 33.4892447,38.9093063 C33.5290242,38.8733216 33.5999355,38.7522192 33.5999355,38.7522192 C33.5999355,38.7522192 32.7368938,38.7210785 33.0810727,38" id="Fill-50" fill="#EC998D"></path>
                    </g>
                </g>
            </g>
        </g>
    </g>
</svg>