<?xml version="1.0" encoding="UTF-8"?>
<svg width="130px" height="105px" viewBox="0 0 130 105" version="1.1" xmlns="http://www.w3.org/2000/svg" xmlns:xlink="http://www.w3.org/1999/xlink">
    <!-- Generator: Sketch 50.2 (55047) - http://www.bohemiancoding.com/sketch -->
    <title>small-desk</title>
    <desc>Created with Sketch.</desc>
    <defs>
        <polygon id="path-1" points="0.000110576923 47.656051 92.884726 47.656051 92.884726 5.47770701e-05 0.000110576923 5.47770701e-05"></polygon>
        <polygon id="path-3" points="0 86 114.657212 86 114.657212 0.158853503 0 0.158853503"></polygon>
        <polygon id="path-5" points="0.526134211 0.04585 0.352 0.5185 0.054 0.418 0.16151 0.04585 0.526134211 0.04585"></polygon>
        <polygon id="path-7" points="0.456668421 0.2344 0.352 0.5185 0.054 0.418 0.10704 0.2344 0.456668421 0.2344"></polygon>
    </defs>
    <g id="Page-1" stroke="none" stroke-width="1" fill="none" fill-rule="evenodd">
        <g id="01-Jobs-Copy" transform="translate(-897.000000, -461.000000)">
            <g id="01--Hero">
                <g id="illustration" transform="translate(10.000000, 370.000000)">
                    <g id="small-desk" transform="translate(955.500000, 143.500000) rotate(23.000000) translate(-955.500000, -143.500000) translate(898.000000, 100.000000)">
                        <g id="Group-95">
                            <path d="M18.675613,10.6623567 C20.3984014,10.6623567 21.794988,12.0460255 21.794988,13.752879 L21.794988,42.4845478 C21.794988,44.1914013 20.3984014,45.5745223 18.675613,45.5745223 L3.16554087,45.5745223 C1.4427524,45.5745223 0.04671875,44.1914013 0.04671875,42.4845478 L0.04671875,13.752879 C0.04671875,12.0460255 1.4427524,10.6623567 3.16554087,10.6623567 L18.675613,10.6623567 Z" id="Fill-1" fill="#D5D0CD"></path>
                            <polygon id="Fill-3" fill="#353B45" points="0.0657932692 43.3730318 21.7947115 43.3730318 21.7947115 36.530828 0.0657932692 36.530828"></polygon>
                            <path d="M36.4748486,3.83877707 L33.3604495,5.23559236 L32.0816274,2.43484076 C31.7377332,1.68220382 32.0744399,0.795363057 32.8346562,0.455197452 L33.1967957,0.292509554 C33.9564591,-0.0482038217 34.8515793,0.285936306 35.1960264,1.03912102 L36.4748486,3.83877707 Z" id="Fill-5" fill="#435D6E"></path>
                            <path d="M43.1980361,1.5487121 C43.8847187,3.05343822 40.8582284,5.87993503 36.4368101,7.8623172 C32.0153918,9.84524713 27.8742861,10.232521 27.1870505,8.7277949 C26.4998149,7.22361656 29.5268582,4.39657197 33.9482764,2.41418981 C38.3696947,0.431807643 42.5108005,0.044533758 43.1980361,1.5487121" id="Fill-7" fill="#323E46"></path>
                            <path d="M62.603512,32.789828 L38.0692572,43.790707 C36.7589207,44.3779172 35.2180312,43.7748217 34.6673582,42.4585287 L25.3064687,20.0892166 C23.9939207,16.9526815 25.4314207,13.3499936 28.5535601,11.9493439 L44.2538245,4.90994268 C47.3273101,3.53120382 50.9531274,4.77573885 52.5067332,7.74301274 L63.8132236,29.3295605 C64.4860841,30.6129873 63.9331995,32.1933057 62.603512,32.789828" id="Fill-9" fill="#323E46"></path>
                            <path d="M59.3693582,10.0434854 L66.4534687,24.4854599 C66.9306082,25.4572051 66.5037812,26.6266955 65.5102476,27.0725809 L63.5884207,27.9342242 C62.5937812,28.3806573 61.4233245,27.9238166 61.0025793,26.9252306 L54.760512,12.105842 C54.3574591,11.1483389 54.7953437,10.046772 55.7490697,9.61896306 L56.8288534,9.13473376 C57.7847909,8.70637707 58.9110168,9.10898854 59.3693582,10.0434854" id="Fill-11" fill="#435D6E"></path>
                            <path d="M27.5957428,24.2908369 L34.6798534,38.7322637 C35.1569928,39.7045567 34.7301659,40.8740471 33.7366322,41.3193847 L31.8153582,42.181028 C30.8201659,42.6274611 29.6497091,42.1706204 29.2289639,41.1720344 L22.9868966,26.3526459 C22.5832909,25.3951427 23.0217284,24.2935758 23.9754543,23.8657669 L25.055238,23.3815376 C26.0111755,22.9531809 27.1374014,23.3557924 27.5957428,24.2908369" id="Fill-13" fill="#435D6E"></path>
                            <path d="M43.3821466,52.0618803 C43.3821466,50.0866191 43.2041178,49.2775618 41.9446466,49.2775618 C40.6857284,49.2775618 40.5076995,50.0866191 40.5076995,52.0618803 C40.5076995,53.0128102 39.9216418,56.6987592 39.9216418,56.6987592 L43.9682043,56.6987592 C43.9682043,56.6987592 43.3821466,53.0128102 43.3821466,52.0618803" id="Fill-15" fill="#DE877C"></path>
                            <path d="M41.9448678,59.328935 C43.1280409,59.328935 43.6941947,58.1473936 43.9678726,56.6985401 L39.921863,56.6985401 C40.1955409,58.1473936 40.7616947,59.328935 41.9448678,59.328935" id="Fill-17" fill="#323E46"></path>
                            <path d="M51.8751731,52.0618803 C51.8751731,50.0866191 51.6965913,49.2775618 50.4371202,49.2775618 C49.1787548,49.2775618 49.0001731,50.0866191 49.0001731,52.0618803 C49.0001731,53.0128102 48.4141154,56.6987592 48.4141154,56.6987592 L52.4612308,56.6987592 C52.4612308,56.6987592 51.8751731,53.0128102 51.8751731,52.0618803" id="Fill-19" fill="#DE877C"></path>
                            <path d="M50.4373413,59.328935 C51.6205144,59.328935 52.1866683,58.1473936 52.460899,56.6985401 L48.4143365,56.6985401 C48.6885673,58.1473936 49.2547212,59.328935 50.4373413,59.328935" id="Fill-21" fill="#323E46"></path>
                            <path d="M38.6550937,46.7376586 C38.6550937,49.2776713 39.0354784,51.576665 39.6513918,53.2407924 C40.2667524,54.9049197 41.1176418,54.8715057 42.0564399,54.8715057 C42.9963437,54.8715057 43.8466803,54.9049197 44.4620409,53.2407924 C45.0774014,51.576665 45.4583389,49.2776713 45.4583389,46.7376586 C45.4583389,44.1976459 45.0774014,41.8986522 44.4620409,40.2345248 C43.8466803,38.5698497 43.5752139,38.0724739 42.635863,38.0724739 C41.6970649,38.0724739 40.2667524,38.5698497 39.6513918,40.2345248 C39.0354784,41.8986522 38.6550937,44.1976459 38.6550937,46.7376586" id="Fill-23" fill="#EC998D"></path>
                            <path d="M46.9240361,46.7376586 C46.9240361,49.2776713 47.3049736,51.576665 47.920887,53.2407924 C48.5362476,54.9049197 49.3865841,54.8715057 50.3253822,54.8715057 C51.2652861,54.8715057 52.1156226,54.9049197 52.7309832,53.2407924 C53.3463438,51.576665 53.7272813,49.2776713 53.7272813,46.7376586 C53.7272813,44.1976459 53.3463438,41.8986522 52.7309832,40.2345248 C52.1156226,38.5698497 50.685863,38.0724739 49.7459591,38.0724739 C48.8071611,38.0724739 48.5362476,38.5698497 47.920887,40.2345248 C47.3049736,41.8986522 46.9240361,44.1976459 46.9240361,46.7376586" id="Fill-25" fill="#EC998D"></path>
                            <path d="M58.6874303,38.4200344 C58.6874303,30.9511809 57.1515168,22.6946331 46.4426947,22.6946331 C35.7327668,22.6946331 34.1968534,30.9511809 34.1968534,38.4200344 C34.1968534,45.8883401 39.6792572,48.4047987 46.4426947,48.4047987 C53.2050264,48.4047987 58.6874303,45.8883401 58.6874303,38.4200344" id="Fill-27" fill="#2C6CAC"></path>
                            <path d="M101.47495,5.44944204 L98.2024255,4.46948025 L99.0997572,1.52740382 C99.3413678,0.73642293 100.183964,0.288894268 100.982329,0.528270064 L101.363267,0.642206369 C102.161632,0.881034395 102.613892,1.71638471 102.372281,2.50736561 L101.47495,5.44944204 Z" id="Fill-29" fill="#435D6E"></path>
                            <path d="M108.057207,8.10969045 C107.575644,9.69055669 103.418505,9.84448025 98.7731683,8.45369045 C94.1278317,7.06290064 90.7524712,4.6538051 91.2345865,3.07348662 C91.7167019,1.49262038 95.8738413,1.33869682 100.518625,2.72948662 C105.165067,4.12027643 108.539322,6.5288242 108.057207,8.10969045" id="Fill-31" fill="#323E46"></path>
                            <path d="M101.911231,44.2834268 L76.1324327,36.5658854 C74.75575,36.153414 73.9966394,34.6947006 74.4566394,33.3444459 L82.2711106,10.3999745 C83.3669279,7.18236943 86.8423606,5.40704459 90.1231779,6.38919745 L106.619596,11.3284459 C109.848995,12.2958089 111.752024,15.5961274 110.950894,18.8438599 L105.121279,42.4681146 C104.77462,43.8731465 103.30837,44.7024713 101.911231,44.2834268" id="Fill-33" fill="#323E46"></path>
                            <path d="M114.588156,25.0509783 L110.327075,40.5430293 C110.040127,41.5854369 108.942099,42.1874369 107.8977,41.8752076 L105.878565,41.2704688 C104.83306,40.9576917 104.256401,39.8511949 104.602507,38.8252204 L109.748757,23.5977427 C110.081041,22.6133987 111.143132,22.0700102 112.144959,22.3696408 L113.280031,22.7098064 C114.28407,23.0099847 114.864046,24.0480102 114.588156,25.0509783" id="Fill-35" fill="#435D6E"></path>
                            <path d="M81.2028822,15.0557516 L76.9418005,30.5478025 C76.6548534,31.5902102 75.5568245,32.192758 74.5129784,31.8805287 L72.4938438,31.275242 C71.4477861,30.962465 70.8711274,29.8559682 71.2172332,28.8299936 L76.3634832,13.6025159 C76.6957668,12.6187197 77.7578582,12.0747834 78.7596851,12.374414 L79.8947572,12.7151274 C80.8987957,13.014758 81.4787716,14.0533312 81.2028822,15.0557516" id="Fill-37" fill="#435D6E"></path>
                            <path d="M84.0882764,46.119828 C84.6649351,44.2289236 84.7307284,43.4028854 83.5254399,43.0424522 C82.3201514,42.6814713 81.9132284,43.4045287 81.3360168,45.2959809 C81.0590216,46.205828 79.4224832,49.5664013 79.4224832,49.5664013 L83.294887,50.7260318 C83.294887,50.7260318 83.8107284,47.0302229 84.0882764,46.119828" id="Fill-39" fill="#DE877C"></path>
                            <path d="M80.5906178,52.6642089 C81.7229255,53.0027312 82.6103053,52.0342726 83.2953293,50.7261962 L79.4223726,49.5665656 C79.2614832,51.0318522 79.4583101,52.3251389 80.5906178,52.6642089" id="Fill-41" fill="#323E46"></path>
                            <path d="M92.2179471,48.5537924 C92.7951587,46.6623401 92.860399,45.8368497 91.6545577,45.4764166 C90.4498221,45.1154357 90.042899,45.838493 89.4656875,47.7299452 C89.1886923,48.6397924 87.5521538,52.0003656 87.5521538,52.0003656 L91.4251106,53.1599962 C91.4251106,53.1599962 91.940399,49.4641873 92.2179471,48.5537924" id="Fill-43" fill="#DE877C"></path>
                            <path d="M88.7202885,55.0976255 C89.8525962,55.4366955 90.7394231,54.4682369 91.4255529,53.1601605 L87.5520433,52.0005299 C87.3911538,53.4658166 87.5879808,54.7591032 88.7202885,55.0976255" id="Fill-45" fill="#323E46"></path>
                            <path d="M81.118125,39.6685682 C80.3761538,42.0990268 80.0698558,44.4095236 80.1726923,46.1793707 C80.2766346,47.9486701 81.1004327,48.1601096 81.9994231,48.429065 C82.8984135,48.6985682 83.7023077,48.9746446 84.7776683,47.5575618 C85.852476,46.1410268 86.8885817,44.0490904 87.63,41.6180841 C88.3714183,39.1870777 88.6782692,36.8765809 88.5748798,35.1072815 C88.4720433,33.3374344 88.3575962,32.7836382 87.4586058,32.514135 C86.5596154,32.2446318 85.0458173,32.3114599 83.9699038,33.7285427 C82.8950962,35.1450777 81.8595433,37.2375618 81.118125,39.6685682" id="Fill-47" fill="#EC998D"></path>
                            <path d="M89.0334423,42.038279 C88.292024,44.4687376 87.9851731,46.7792344 88.0885625,48.5490815 C88.1919519,50.3183809 89.01575,50.5298204 89.9147404,50.7993236 C90.8142837,51.068279 91.6181779,51.3443554 92.6929856,49.9272726 C93.7683462,48.5107376 94.8044519,46.4188013 95.5453173,43.9877949 C96.2872885,41.5567885 96.5941394,39.2462917 96.49075,37.4769924 C96.3873606,35.7071452 95.1638269,34.8208522 94.2648365,34.5518968 C93.3658462,34.2829414 92.9611346,34.6811707 91.885774,36.0982535 C90.8109663,37.5147885 89.7748606,39.6072726 89.0334423,42.038279" id="Fill-49" fill="#EC998D"></path>
                            <path d="M102.722202,37.4469745 C104.902779,30.2974713 105.843236,21.953828 95.5922019,18.8846688 C85.3406154,15.8155096 81.4588125,23.2794331 79.2787885,30.4283885 C77.0976587,37.5773439 81.6114087,41.5574459 88.0851346,43.4954586 C94.5588606,45.4334713 100.542178,44.5964777 102.722202,37.4469745" id="Fill-51" fill="#2C6CAC"></path>
                            <g id="Group-55" transform="translate(0.000000, 38.343949)">
                                <mask id="mask-2" fill="white">
                                    <use xlink:href="#path-1"></use>
                                </mask>
                                <g id="Clip-54"></g>
                                <path d="M0.000110576923,3.92866624 C0.000110576923,1.7589465 1.77542308,5.47770701e-05 3.96539904,5.47770701e-05 L88.9188846,5.47770701e-05 C91.1088606,5.47770701e-05 92.884726,1.7589465 92.884726,3.92866624 L92.884726,43.7269465 C92.884726,45.897214 91.1088606,47.6561057 88.9188846,47.6561057 L3.96539904,47.6561057 C1.77542308,47.6561057 0.000110576923,45.897214 0.000110576923,43.7269465 L0.000110576923,3.92866624 Z" id="Fill-53" fill="#D5D0CD" mask="url(#mask-2)"></path>
                            </g>
                            <polygon id="Fill-56" fill="#040000" points="0.00221153846 79.4267516 92.8868269 79.4267516 92.8868269 77.7834395 0.00221153846 77.7834395"></polygon>
                            <polygon id="Fill-58" fill="#040000" points="29.0264423 84.9044586 63.8581731 84.9044586 63.8581731 79.4267516 29.0264423 79.4267516"></polygon>
                            <mask id="mask-4" fill="white">
                                <use xlink:href="#path-3"></use>
                            </mask>
                            <g id="Clip-61"></g>
                            <polygon id="Fill-60" fill="#D5D0CD" mask="url(#mask-4)" points="29.8557692 85.9003057 63.0288462 85.9003057 63.0288462 79.3270573 29.8557692 79.3270573"></polygon>
                            <path d="M37.9968846,48.4045248 L57.3262837,48.4045248 C57.5286394,48.4045248 57.693399,48.5672127 57.693399,48.7682446 L57.693399,63.1275057 C57.693399,63.3285376 57.5286394,63.4912255 57.3262837,63.4912255 L37.9968846,63.4912255 C37.793976,63.4912255 37.6292163,63.3285376 37.6292163,63.1275057 L37.6292163,48.7682446 C37.6292163,48.5672127 37.793976,48.4045248 37.9968846,48.4045248" id="Fill-62" fill="#4C515B" mask="url(#mask-4)"></path>
                            <polygon id="Fill-63" fill="#5F6875" mask="url(#mask-4)" points="40.2096394 61.2172102 53.6298077 61.2172102 53.6298077 51.2083439 40.2096394 51.2083439"></polygon>
                            <polygon id="Fill-64" fill="#5F6875" mask="url(#mask-4)" points="55.0252885 57.1023567 56.1459856 57.1023567 56.1459856 56.8251847 55.0252885 56.8251847"></polygon>
                            <polygon id="Fill-65" fill="#5F6875" mask="url(#mask-4)" points="55.0252885 56.349172 56.1459856 56.349172 56.1459856 56.072 55.0252885 56.072"></polygon>
                            <polygon id="Fill-66" fill="#5F6875" mask="url(#mask-4)" points="55.0252885 55.5998217 56.1459856 55.5998217 56.1459856 55.3226497 55.0252885 55.3226497"></polygon>
                            <path d="M31.2915553,31.5990841 L34.8311226,32.390065 L38.2413149,32.8978484 L38.2523726,39.9301287 C38.2523726,39.9301287 39.2541995,40.3201414 39.9552572,40.8892752 C42.0844159,42.6185873 45.4791274,46.157186 47.196387,47.5178484 C49.3067476,47.9166255 49.860738,48.3981159 50.5894399,49.0970713 C51.3192476,49.7971223 52.1303293,50.681772 52.0241755,50.7162815 C51.1821322,50.9896191 50.9294639,50.7118994 50.392613,50.2013771 C49.424512,49.2805745 48.0306899,49.327135 49.1607861,50.8992369 C49.9729736,52.0287401 50.9084543,50.5640013 51.710137,50.9331987 C52.5118197,51.3029439 50.0221803,52.6531987 49.2509062,52.8175299 C48.480738,52.9835045 47.8416034,52.7271478 46.7955457,52.045721 C46.2885505,51.7148675 46.2410024,50.2424599 45.5487909,49.3523325 C44.8565793,48.4622051 35.0710745,43.3471223 34.8974688,43.147186 C34.4098245,42.5840777 34.1383582,41.592065 33.9293678,40.8794153 L31.2915553,31.5990841 Z" id="Fill-67" fill="#EC998D" mask="url(#mask-4)"></path>
                            <path d="M42.2790865,49.6824739 C42.1557933,49.6709707 42.0496394,49.7241045 42.0424519,49.8007924 L42.00375,50.2176459 C41.9965625,50.293786 42.0911058,50.3655439 42.2138462,50.3770471 L51.9479327,51.2715567 L52.0126202,50.5769834 L42.2790865,49.6824739 Z" id="Fill-68" fill="#5C626B" mask="url(#mask-4)"></path>
                            <path d="M42.2790865,49.6824739 C42.1557933,49.6709707 42.0496394,49.7241045 42.0424519,49.8007924 L42.00375,50.2176459 C41.9965625,50.293786 42.0911058,50.3655439 42.2138462,50.3770471 L46.3582692,50.7577478 L46.4229567,50.0631745 L42.2790865,49.6824739 Z" id="Fill-69" fill="#353B45" mask="url(#mask-4)"></path>
                            <polygon id="Fill-70" fill="#353B45" mask="url(#mask-4)" points="51.9480433 51.2717758 52.0110721 50.5980178 53.2202308 51.0384255"></polygon>
                            <polygon id="Fill-71" fill="#353B45" mask="url(#mask-4)" points="53.2201202 51.038535 52.9099519 50.9251465 52.8944712 51.0976943"></polygon>
                            <path d="M51.9156442,51.2787325 L51.979226,50.6005924 C51.9814375,50.5808726 51.9991298,50.565535 52.0190337,50.5677261 C52.0400433,50.5693694 52.0544183,50.5874459 52.0527596,50.6071656 L51.9891779,51.2853057 C51.9875192,51.3050255 51.969274,51.3198153 51.9493702,51.318172 C51.9289135,51.3159809 51.9139856,51.2984522 51.9156442,51.2787325" id="Fill-72" fill="#E4E6EA" mask="url(#mask-4)"></path>
                            <polygon id="Fill-73" fill="#000000" mask="url(#mask-4)" points="46.3582139 50.757693 46.4229014 50.0631197 46.5904255 50.0784573 46.5251851 50.7730306"></polygon>
                            <path d="M42.2072668,50.3762803 C42.0192861,50.3587516 41.8816178,50.1938726 41.8987572,50.0076306 C41.9164495,49.8219363 42.0823149,49.6849936 42.2702957,49.7025223 C42.4582764,49.7195032 42.5964976,49.8849299 42.5793582,50.0700764 C42.5622187,50.2563185 42.3952476,50.3932611 42.2072668,50.3762803" id="Fill-74" fill="#353B45" mask="url(#mask-4)"></path>
                            <path d="M59.2850986,19.0399618 L57.1963005,22.3621911 L55.3303149,25.2357962 L56.5886803,28.9129809 C56.5886803,28.9129809 50.3305793,31.9437962 47.6800505,33.1614904 C47.169738,33.3959363 43.3575986,32.8547389 42.7897861,34.1294013 C42.6615168,34.4175287 43.6804832,34.731949 44.4213486,34.8031592 C45.1616611,34.8743694 44.0337764,35.8137962 42.6410601,35.9496433 C41.2488966,36.0849427 40.8640889,34.7133248 40.629113,35.2819108 C40.3946899,35.8510446 41.4529111,36.8896178 42.5011803,37.2385478 C43.2193774,37.4779236 43.2707957,37.6477325 44.4738726,37.9917325 C45.6763966,38.3357325 49.1545937,35.4528153 49.1545937,35.4528153 L60.797238,31.7991847 C60.9498341,31.6677197 61.1018774,31.4721656 61.2439687,31.2492229 C61.6442572,30.6220255 59.2850986,19.0399618 59.2850986,19.0399618" id="Fill-75" fill="#DE877C" mask="url(#mask-4)"></path>
                            <path d="M56.0925216,24.6348369 C54.7838438,25.6662892 56.5834832,26.9540981 53.8887236,29.1040981 C52.5883389,30.1421236 51.3681226,30.4066968 50.4293245,30.7720599 C48.8375697,31.3915885 47.2878341,32.0867096 45.7674014,32.8623529 C44.8711755,33.3197414 43.8649255,34.0532064 42.2195409,34.3369516 C38.8110072,34.9230662 39.0216562,32.7336268 37.3757187,33.0272318 C36.2981466,33.2194994 41.6605745,30.432442 44.8966082,29.228442 C46.0482668,28.8000854 47.1634351,28.2994229 48.2481947,27.725907 C51.2973534,26.111079 56.9500457,23.9599834 56.0925216,24.6348369" id="Fill-76" fill="#D8D8D8" mask="url(#mask-4)"></path>
                            <path d="M31.1646683,31.3172013 C30.4332019,29.7160675 30.1025769,27.9095197 30.8793798,25.8871503 C31.127625,25.0205771 31.506351,24.1490739 32.0841154,23.3131758 C33.916375,20.6619656 36.8339471,17.9461185 40.6538269,16.2315962 C40.6615673,16.2283096 40.667649,16.2244752 40.6742837,16.2217363 C40.7583221,16.1839401 40.8395962,16.148335 40.9230817,16.1099911 C41.0071202,16.0727427 41.0883942,16.036042 41.1724327,15.9982459 C41.1790673,15.9949592 41.1857019,15.9927682 41.1928894,15.9900293 C45.0144279,14.2776981 48.9996202,13.898093 52.2190673,14.2848191 C53.2341635,14.4064242 54.1447644,14.6994815 54.9652452,15.0867554 C57.012024,15.8432268 58.449524,17.154042 59.1809904,18.754628 C59.2130577,18.8258382 60.3923606,21.604679 58.1769519,23.4786025 C56.6028894,24.8107809 53.7527692,26.4179401 50.8191635,27.8810357 C50.3287548,28.128628 49.8234183,28.3734815 49.3086827,28.618335 C48.7873125,28.8686662 48.2742356,29.1091376 47.7661346,29.3424879 C47.6257019,29.4060293 47.4974327,29.471214 47.3558942,29.5347554 C47.2751731,29.5709083 47.1872644,29.6081567 47.1059904,29.6443096 C47.0247163,29.6810102 46.9384663,29.722093 46.8577452,29.7576981 C46.7162067,29.8217873 46.5818558,29.8738255 46.4408702,29.9362713 C45.928899,30.1608573 45.4080817,30.3838 44.8739952,30.6072904 C44.3487548,30.8285898 43.8290433,31.0427682 43.3170721,31.2443478 C40.2717837,32.4625898 37.1723125,33.5230739 35.1233221,33.8161312 C32.239476,34.227507 31.1972885,31.3884115 31.1646683,31.3172013" id="Fill-77" fill="#D8D8D8" mask="url(#mask-4)"></path>
                            <path d="M47.0833221,18.5280153 C43.058875,17.9331363 39.3230337,20.5963975 38.7380817,24.4768051 C38.1536827,28.3572127 40.9418798,31.9850981 44.965774,32.5805248 C48.9902212,33.1759516 52.7266154,30.5126904 53.3115673,26.6322828 C53.8954135,22.7518752 51.1072163,19.123442 47.0833221,18.5280153" id="Fill-78" fill="#EC998D" mask="url(#mask-4)"></path>
                            <path d="M53.3356731,25.6072943 C53.3356731,25.6072943 52.7678606,25.7929885 52.6561779,26.5346701 C52.5439423,27.2768994 53.0321394,27.6192561 53.0321394,27.6192561 C53.0321394,27.6192561 53.9482692,27.294428 54.0323077,26.7384408 C54.1157933,26.183549 53.3356731,25.6072943 53.3356731,25.6072943" id="Fill-79" fill="#EC998D" mask="url(#mask-4)"></path>
                            <path d="M46.4451274,17.1446752 C47.5625072,17.3363949 48.6262572,17.7094268 49.5241418,18.2467898 C49.6302957,18.3103312 49.7397668,18.3859236 49.8508966,18.470828 C51.2170745,19.5115924 52.551738,21.2770573 52.5583726,22.9839108 C52.5605841,23.6828662 52.4970024,24.3752484 52.292988,24.8337325 L51.6068582,26.3800892 L51.8075553,28.0573631 C51.8672668,28.5552866 51.7235168,29.2356178 51.5156322,29.9033503 C51.0064255,31.5346115 49.2095505,32.8361146 47.5962332,33.4364713 C47.4651995,33.4852229 47.3374832,33.5263057 47.2175072,33.5564331 C46.2007524,33.810051 45.0728678,33.8598981 43.9477476,33.7196688 C43.8764255,33.7109045 43.806762,33.719121 43.7354399,33.7087134 C42.5401034,33.5317834 41.4359928,33.1313631 40.4640216,32.5572994 C39.4914976,31.9837834 38.6494543,31.2377197 37.9793582,30.370051 C37.3098149,29.5023822 36.8105601,28.5136561 36.5225072,27.4548153 C36.2339014,26.3959745 36.1564976,25.2675669 36.3289976,24.120535 C36.5020505,22.9735032 36.9089736,21.9168535 37.496137,20.9878344 C38.0849591,20.0582675 38.8534687,19.256879 39.7502476,18.6209172 C40.6464736,17.9849554 41.6709687,17.5155159 42.7706562,17.2476561 C43.8697909,16.9803439 45.0435649,16.9168025 46.2389014,17.0931847 C46.3102236,17.1041401 46.3743582,17.1326242 46.4451274,17.1446752" id="Fill-80" fill="#5B4D45" mask="url(#mask-4)"></path>
                            <path d="M47.753363,47.6085592 C48.0204062,47.8199987 49.3053101,48.5370306 50.4475697,49.1592981 C51.1845649,49.560814 52.1305505,50.6815529 52.0243966,50.7166102 C51.1818005,50.9899478 50.982762,50.6497822 50.3922812,50.201158" id="Fill-81" fill="#EC998D" mask="url(#mask-4)"></path>
                            <path d="M83.835,26.090921 C85.1187981,27.0878637 83.3213702,29.4394433 85.9652644,31.5302841 C87.2407692,32.5387299 88.4466106,32.5102459 89.3721394,32.7107299 C90.9417788,33.0503478 92.4682933,33.5071885 93.9649519,34.0856344 C94.8479087,34.4268955 95.8359135,35.1121567 97.4619471,34.9719274 C100.831226,34.6821567 100.648774,31.7378892 102.275913,31.6119019 C103.341322,31.5291885 98.0618269,29.4208191 94.8711298,28.8062204 C93.7349519,28.5876599 92.6363702,28.2584497 91.5681971,27.8174943 C88.5676923,26.5789847 82.9940625,25.4374306 83.835,26.090921" id="Fill-82" fill="#2C6CAC" mask="url(#mask-4)"></path>
                            <path d="M85.9736683,23.0310739 C86.6874423,20.6915452 88.2421538,18.8450102 90.1778029,17.7516599 C92.1145577,16.6583096 94.4328029,16.3170484 96.6741971,16.9880675 C98.9144856,17.6590866 100.654413,19.2147554 101.655135,21.1878255 C102.656409,23.1608955 102.918476,25.5513669 102.204702,27.8903478 C101.491481,30.230972 97.6915048,34.1831376 97.6915048,34.1831376 C97.6915048,34.1831376 93.5116971,34.2110739 91.2703029,33.5406025 C89.0294615,32.8695834 86.214726,30.746972 86.214726,30.746972 C86.214726,30.746972 85.2604471,25.3706025 85.9736683,23.0310739" id="Fill-83" fill="#323E46" mask="url(#mask-4)"></path>
                            <path d="M108.017233,29.1592586 L105.833892,30.2969783 L101.60543,30.8222904 L99.1113678,35.9406599 C99.1113678,35.9406599 86.5409832,30.4667873 86.005238,30.4278955 C85.502113,30.3911949 84.8546851,30.3533987 84.3510072,30.3720229 C83.8473293,30.3895516 82.6630505,32.0947618 82.9687957,32.4946344 C83.245238,32.8556153 83.628387,33.1651057 84.1165841,33.3590166 C84.6042284,33.5523796 85.5015601,34.0634497 86.1981947,33.9588255 L88.3555505,33.9867618 L100.958555,40.7577554 C101.797834,40.8716917 102.631584,40.5129019 103.119228,39.8265452 L108.017233,29.1592586 Z" id="Fill-84" fill="#DE877C" mask="url(#mask-4)"></path>
                            <path d="M80.4254159,20.8988217 L81.6074832,23.0438917 L84.8346707,25.8013694 L84.0506803,31.4319045 C84.0506803,31.4319045 94.1966659,33.239 95.7071466,33.7204904 C96.5541659,33.9905414 98.7507764,33.8256624 99.2185168,34.0874968 C99.6575072,34.3328981 99.7935168,34.5322866 99.7935168,34.5322866 C99.7935168,34.5322866 99.4739495,36.6587325 97.7533726,36.3125414 L94.6091178,35.8589873 L81.6318101,35.1386688 C80.2164255,35.0899172 78.8939255,34.1756879 78.5870745,32.8062611 C78.5599832,32.6868471 78.5445024,32.5729108 78.541738,32.4677389 L80.4254159,20.8988217 Z" id="Fill-85" fill="#EC998D" mask="url(#mask-4)"></path>
                            <path d="M82.1704303,29.937586 C82.5513678,29.2063121 82.7747332,29.216172 83.7500216,29.3180573 C84.2570168,29.3706433 85.2455745,30.241051 86.1069687,30.4442739 C86.733387,30.592172 84.8159832,31.9791274 84.8159832,31.9791274 C84.8159832,31.9791274 83.3414399,33.0352293 82.6442524,32.6983503 C81.9476178,32.3614713 81.7894928,30.6688599 82.1704303,29.937586" id="Fill-86" fill="#DE877C" mask="url(#mask-4)"></path>
                            <path d="M80.4971803,20.6629516 C81.6621082,16.8417032 88.2032861,14.4671172 96.6690553,17.0022 C105.135377,19.536735 109.254921,25.1020854 108.088887,28.9238815 C106.923406,32.7451299 101.321026,32.0445312 92.8547043,29.5094484 C84.3878293,26.9749134 79.3316995,24.4847478 80.4971803,20.6629516" id="Fill-87" fill="#2C6CAC" mask="url(#mask-4)"></path>
                            <path d="M87.4811635,28.6446828 C87.4811635,28.6446828 88.0788317,28.6397529 88.4243846,29.3074854 C88.7704904,29.9757656 88.4183029,30.4545172 88.4183029,30.4545172 C88.4183029,30.4545172 87.4457788,30.4369885 87.1870288,29.9374217 C86.927726,29.4378548 87.4811635,28.6446828 87.4811635,28.6446828" id="Fill-88" fill="#DE877C" mask="url(#mask-4)"></path>
                            <path d="M91.1164904,19.9552318 C94.7367788,18.1152701 99.1371875,19.4529261 100.944567,22.943321 C102.7525,26.4342637 101.283486,30.7561745 97.6631971,32.5961363 C94.0434615,34.4366459 89.6430529,33.098442 87.8351202,29.6080471 C86.0271875,26.1171045 87.4967548,21.7951936 91.1164904,19.9552318" id="Fill-89" fill="#DE877C" mask="url(#mask-4)"></path>
                            <path d="M91.1261659,18.5205108 C90.1298678,19.0562306 89.242488,19.7475172 88.5652043,20.5412369 C88.4855889,20.6349057 88.4059736,20.741721 88.3280168,20.8573006 C87.3709736,22.2765745 87.2344111,24.0886 87.7801082,25.7078102 C88.0040264,26.3706127 88.2871034,27.0065745 88.6282332,27.3768675 L89.7782332,28.6230459 L90.1298678,30.2762178 C90.2349159,30.7664726 90.5904207,31.3662815 91.0034255,31.9321287 C92.0129928,33.3163452 93.5782091,34.2623452 95.3009976,34.3198611 C95.4408774,34.3247911 95.5746755,34.3231478 95.6979687,34.3132879 C96.7429207,34.2316701 97.8276803,33.9199885 98.8483053,33.4313771 C98.9129928,33.4001541 98.9821034,33.3859121 99.046238,33.3530459 C100.121599,32.8063707 101.037728,32.0767401 101.773618,31.2244089 C102.509507,30.3731732 103.065709,29.3986892 103.419555,28.3644981 C103.774507,27.3297592 103.927656,26.2353134 103.858546,25.1403197 C103.789435,24.0458739 103.498618,22.9525236 102.963978,21.9205236 C102.429892,20.8885236 101.702849,20.0159248 100.845877,19.3229949 C99.9883534,18.6289694 99.0014543,18.1135172 97.9465505,17.7958102 C96.8916466,17.4781032 95.768738,17.3570459 94.6414062,17.4529057 C93.5135216,17.5482178 92.3806611,17.8598994 91.3053005,18.4065745 C91.2417187,18.438893 91.1891947,18.486549 91.1261659,18.5205108" id="Fill-90" fill="#323E46" mask="url(#mask-4)"></path>
                            <path d="M24.6531803,80.5796446 C24.6205601,80.8179248 24.8632764,81.0474408 25.1944543,81.0912624 L31.8954159,81.9841287 C32.2265937,82.0290459 32.5212812,81.8707401 32.5539014,81.6330076 L34.0682524,77.9235045 C34.1008726,77.6852242 33.8581562,77.4562561 33.5275312,77.4118866 L24.8411611,76.2538994 C24.5094303,76.2095299 24.2147428,76.3672879 24.1821226,76.6055682 L24.6531803,80.5796446 Z" id="Fill-91" fill="#BABABA" mask="url(#mask-4)"></path>
                            <path d="M28.8138029,80.5833694 C29.5519038,80.6819682 30.1744519,80.5789873 30.2054135,80.3544013 C30.2352692,80.1298153 29.6619279,79.8674331 28.9243798,79.7693822 C28.1868317,79.6707834 27.5642837,79.7732166 27.533875,79.9983503 C27.5034663,80.2229363 28.0762548,80.4847707 28.8138029,80.5833694" id="Fill-92" fill="#AAAAAA" mask="url(#mask-4)"></path>
                            <path d="M35.0607909,74.2080854 C35.1105505,73.8460089 34.854012,73.5124166 34.4880024,73.4642127 L24.8987716,72.1857159 C24.5333149,72.1369643 24.1971611,72.3911299 24.1479543,72.7532064 L24.3569447,76.8801108 L33.7581947,78.1334102 L35.0607909,74.2080854 Z" id="Fill-93" fill="#C8C8C8" mask="url(#mask-4)"></path>
                            <polygon id="Fill-94" fill="#F0F0F0" mask="url(#mask-4)" points="8.12546875 76.3055541 49.5298918 81.8254395 49.8826322 79.225172 8.47876202 73.7052866"></polygon>
                        </g>
                        <polygon id="Fill-96" points="48 82.8127962 49.5727182 83 50 80.1877962 48.4272818 80"></polygon>
                        <polygon id="Fill-98" points="8 76.8127592 9.57257525 77 10 74.1878333 8.42675585 74"></polygon>
                        <g id="Group-194" transform="translate(4.000000, 21.000000)">
                            <polygon id="Fill-100" fill="#F6FAFD" points="57.8403522 42.9490909 85.224956 42.9490909 85.224956 30.072 57.8403522 30.072"></polygon>
                            <polygon id="Fill-102" fill="#F1F1F1" points="57.8404075 42.9493091 85.2250113 42.9493091 87.7111497 46.9278545 55.3548226 46.9278545"></polygon>
                            <polygon id="Fill-103" fill="#68A1CC" points="59.6661585 43.2236727 83.5429384 43.2236727 85.1396679 46.0256727 57.8402969 46.0256727"></polygon>
                            <polygon id="Fill-104" fill="#F6FAFD" points="55.3547673 47.4070909 87.7110943 47.4070909 87.7110943 46.9276364 55.3547673 46.9276364"></polygon>
                            <polygon id="Fill-105" fill="#E6E6E6" points="59.0933836 41.7850909 83.904956 41.7850909 83.904956 31.4258182 59.0933836 31.4258182"></polygon>
                            <path d="M78.3821535,40.3941273 C78.449122,40.3941273 78.5039145,40.3439455 78.5039145,40.2806727 L78.5039145,39.9315818 C78.5039145,39.8694 78.449122,39.8181273 78.3821535,39.8181273 L77.1695245,39.8181273 C77.1020025,39.8181273 77.0477635,39.8694 77.0477635,39.9315818 L77.0477635,40.2806727 C77.0477635,40.3439455 77.1020025,40.3941273 77.1695245,40.3941273 L78.3821535,40.3941273 Z" id="Fill-106" fill="#FFFFFF"></path>
                            <path d="M76.3072352,40.3941273 C76.3742038,40.3941273 76.4289962,40.3439455 76.4289962,40.2806727 L76.4289962,39.9315818 C76.4289962,39.8694 76.3742038,39.8181273 76.3072352,39.8181273 L75.0951597,39.8181273 C75.0270843,39.8181273 74.9728453,39.8694 74.9728453,39.9315818 L74.9728453,40.2806727 C74.9728453,40.3439455 75.0270843,40.3941273 75.0951597,40.3941273 L76.3072352,40.3941273 Z" id="Fill-107" fill="#FFFFFF"></path>
                            <path d="M73.0567145,39.8182909 C72.9891925,39.8182909 72.9344,39.8695636 72.9344,39.9317455 L72.9344,40.2808364 C72.9344,40.3441091 72.9891925,40.3942909 73.0567145,40.3942909 L74.2687899,40.3942909 C74.3363119,40.3942909 74.3905509,40.3441091 74.3905509,40.2808364 L74.3905509,39.9317455 C74.3905509,39.8695636 74.3363119,39.8182909 74.2687899,39.8182909 L73.0567145,39.8182909 Z" id="Fill-108" fill="#FFFFFF"></path>
                            <path d="M70.9817962,39.8182909 C70.9148277,39.8182909 70.8600352,39.8695636 70.8600352,39.9317455 L70.8600352,40.2808364 C70.8600352,40.3441091 70.9148277,40.3942909 70.9817962,40.3942909 L72.1938717,40.3942909 C72.2619472,40.3942909 72.3161862,40.3441091 72.3161862,40.2808364 L72.3161862,39.9317455 C72.3161862,39.8695636 72.2619472,39.8182909 72.1938717,39.8182909 L70.9817962,39.8182909 Z" id="Fill-109" fill="#FFFFFF"></path>
                            <path d="M68.8706264,39.8182909 C68.8036579,39.8182909 68.7488654,39.8695636 68.7488654,39.9317455 L68.7488654,40.2808364 C68.7488654,40.3441091 68.8036579,40.3942909 68.8706264,40.3942909 L70.0832553,40.3942909 C70.1507774,40.3942909 70.2050164,40.3441091 70.2050164,40.2808364 L70.2050164,39.9317455 C70.2050164,39.8695636 70.1507774,39.8182909 70.0832553,39.8182909 L68.8706264,39.8182909 Z" id="Fill-110" fill="#FFFFFF"></path>
                            <path d="M66.8324579,39.8182909 C66.7654893,39.8182909 66.7106969,39.8695636 66.7106969,39.9317455 L66.7106969,40.2808364 C66.7106969,40.3441091 66.7654893,40.3942909 66.8324579,40.3942909 L68.0445333,40.3942909 C68.1120553,40.3942909 68.1668478,40.3441091 68.1668478,40.2808364 L68.1668478,39.9317455 C68.1668478,39.8695636 68.1120553,39.8182909 68.0445333,39.8182909 L66.8324579,39.8182909 Z" id="Fill-111" fill="#FFFFFF"></path>
                            <path d="M65.9703899,40.3941273 C66.0373585,40.3941273 66.0921509,40.3439455 66.0921509,40.2806727 L66.0921509,39.9315818 C66.0921509,39.8694 66.0373585,39.8181273 65.9703899,39.8181273 L64.757761,39.8181273 C64.690239,39.8181273 64.636,39.8694 64.636,39.9315818 L64.636,40.2806727 C64.636,40.3439455 64.690239,40.3941273 64.757761,40.3941273 L65.9703899,40.3941273 Z" id="Fill-112" fill="#FFFFFF"></path>
                            <path d="M62.6507421,39.8182909 C62.5837736,39.8182909 62.5289811,39.8695636 62.5289811,39.9317455 L62.5289811,40.2808364 C62.5289811,40.3441091 62.5837736,40.3942909 62.6507421,40.3942909 L63.8633711,40.3942909 C63.9308931,40.3942909 63.9851321,40.3441091 63.9851321,40.2808364 L63.9851321,39.9317455 C63.9851321,39.8695636 63.9308931,39.8182909 63.8633711,39.8182909 L62.6507421,39.8182909 Z" id="Fill-113" fill="#FFFFFF"></path>
                            <path d="M60.5757686,39.8182909 C60.5088,39.8182909 60.4540075,39.8695636 60.4540075,39.9317455 L60.4540075,40.2808364 C60.4540075,40.3441091 60.5088,40.3942909 60.5757686,40.3942909 L61.7883975,40.3942909 C61.8559195,40.3942909 61.9101585,40.3441091 61.9101585,40.2808364 L61.9101585,39.9317455 C61.9101585,39.8695636 61.8559195,39.8182909 61.7883975,39.8182909 L60.5757686,39.8182909 Z" id="Fill-114" fill="#FFFFFF"></path>
                            <path d="M78.3821535,39.0650727 C78.449122,39.0650727 78.5039145,39.0143455 78.5039145,38.9516182 L78.5039145,38.0265273 C78.5039145,37.9638 78.449122,37.9130727 78.3821535,37.9130727 L77.1695245,37.9130727 C77.1020025,37.9130727 77.0477635,37.9638 77.0477635,38.0265273 L77.0477635,38.9516182 C77.0477635,39.0143455 77.1020025,39.0650727 77.1695245,39.0650727 L78.3821535,39.0650727 Z" id="Fill-115" fill="#FFFFFF"></path>
                            <path d="M76.3072352,39.0650727 C76.3742038,39.0650727 76.4289962,39.0143455 76.4289962,38.9516182 L76.4289962,38.0265273 C76.4289962,37.9638 76.3742038,37.9130727 76.3072352,37.9130727 L75.0951597,37.9130727 C75.0270843,37.9130727 74.9728453,37.9638 74.9728453,38.0265273 L74.9728453,38.9516182 C74.9728453,39.0143455 75.0270843,39.0650727 75.0951597,39.0650727 L76.3072352,39.0650727 Z" id="Fill-116" fill="#FFFFFF"></path>
                            <path d="M73.0567145,37.9129091 C72.9891925,37.9129091 72.9344,37.9641818 72.9344,38.0263636 L72.9344,38.9514545 C72.9344,39.0147273 72.9891925,39.0649091 73.0567145,39.0649091 L74.2687899,39.0649091 C74.3363119,39.0649091 74.3905509,39.0147273 74.3905509,38.9514545 L74.3905509,38.0263636 C74.3905509,37.9641818 74.3363119,37.9129091 74.2687899,37.9129091 L73.0567145,37.9129091 Z" id="Fill-117" fill="#FFFFFF"></path>
                            <path d="M70.9817962,37.9129091 C70.9148277,37.9129091 70.8600352,37.9641818 70.8600352,38.0263636 L70.8600352,38.9514545 C70.8600352,39.0147273 70.9148277,39.0649091 70.9817962,39.0649091 L72.1938717,39.0649091 C72.2619472,39.0649091 72.3161862,39.0147273 72.3161862,38.9514545 L72.3161862,38.0263636 C72.3161862,37.9641818 72.2619472,37.9129091 72.1938717,37.9129091 L70.9817962,37.9129091 Z" id="Fill-118" fill="#FFFFFF"></path>
                            <path d="M68.8706264,37.9129091 C68.8036579,37.9129091 68.7488654,37.9641818 68.7488654,38.0263636 L68.7488654,38.9514545 C68.7488654,39.0147273 68.8036579,39.0649091 68.8706264,39.0649091 L70.0832553,39.0649091 C70.1507774,39.0649091 70.2050164,39.0147273 70.2050164,38.9514545 L70.2050164,38.0263636 C70.2050164,37.9641818 70.1507774,37.9129091 70.0832553,37.9129091 L68.8706264,37.9129091 Z" id="Fill-119" fill="#FFFFFF"></path>
                            <path d="M66.8324579,37.9129091 C66.7654893,37.9129091 66.7106969,37.9641818 66.7106969,38.0263636 L66.7106969,38.9514545 C66.7106969,39.0147273 66.7654893,39.0649091 66.8324579,39.0649091 L68.0445333,39.0649091 C68.1120553,39.0649091 68.1668478,39.0147273 68.1668478,38.9514545 L68.1668478,38.0263636 C68.1668478,37.9641818 68.1120553,37.9129091 68.0445333,37.9129091 L66.8324579,37.9129091 Z" id="Fill-120" fill="#FFFFFF"></path>
                            <path d="M65.9703899,39.0650727 C66.0373585,39.0650727 66.0921509,39.0143455 66.0921509,38.9516182 L66.0921509,38.0265273 C66.0921509,37.9638 66.0373585,37.9130727 65.9703899,37.9130727 L64.757761,37.9130727 C64.690239,37.9130727 64.636,37.9638 64.636,38.0265273 L64.636,38.9516182 C64.636,39.0143455 64.690239,39.0650727 64.757761,39.0650727 L65.9703899,39.0650727 Z" id="Fill-121" fill="#FFFFFF"></path>
                            <path d="M62.6507421,37.9129091 C62.5837736,37.9129091 62.5289811,37.9641818 62.5289811,38.0263636 L62.5289811,38.9514545 C62.5289811,39.0147273 62.5837736,39.0649091 62.6507421,39.0649091 L63.8633711,39.0649091 C63.9308931,39.0649091 63.9851321,39.0147273 63.9851321,38.9514545 L63.9851321,38.0263636 C63.9851321,37.9641818 63.9308931,37.9129091 63.8633711,37.9129091 L62.6507421,37.9129091 Z" id="Fill-122" fill="#FFFFFF"></path>
                            <path d="M60.5757686,37.9129091 C60.5088,37.9129091 60.4540075,37.9641818 60.4540075,38.0263636 L60.4540075,38.9514545 C60.4540075,39.0147273 60.5088,39.0649091 60.5757686,39.0649091 L61.7883975,39.0649091 C61.8559195,39.0649091 61.9101585,39.0147273 61.9101585,38.9514545 L61.9101585,38.0263636 C61.9101585,37.9641818 61.8559195,37.9129091 61.7883975,37.9129091 L60.5757686,37.9129091 Z" id="Fill-123" fill="#FFFFFF"></path>
                            <path d="M78.3821535,37.3371273 C78.449122,37.3371273 78.5039145,37.2864 78.5039145,37.2236727 L78.5039145,36.2985818 C78.5039145,36.2353091 78.449122,36.1851273 78.3821535,36.1851273 L77.1695245,36.1851273 C77.1020025,36.1851273 77.0477635,36.2353091 77.0477635,36.2985818 L77.0477635,37.2236727 C77.0477635,37.2864 77.1020025,37.3371273 77.1695245,37.3371273 L78.3821535,37.3371273 Z" id="Fill-124" fill="#FFFFFF"></path>
                            <path d="M76.3072352,37.3371273 C76.3742038,37.3371273 76.4289962,37.2864 76.4289962,37.2236727 L76.4289962,36.2985818 C76.4289962,36.2353091 76.3742038,36.1851273 76.3072352,36.1851273 L75.0951597,36.1851273 C75.0270843,36.1851273 74.9728453,36.2353091 74.9728453,36.2985818 L74.9728453,37.2236727 C74.9728453,37.2864 75.0270843,37.3371273 75.0951597,37.3371273 L76.3072352,37.3371273 Z" id="Fill-125" fill="#FFFFFF"></path>
                            <path d="M73.0567145,36.1849636 C72.9891925,36.1849636 72.9344,36.2356909 72.9344,36.2984182 L72.9344,37.2235091 C72.9344,37.2867818 72.9891925,37.3369636 73.0567145,37.3369636 L74.2687899,37.3369636 C74.3363119,37.3369636 74.3905509,37.2867818 74.3905509,37.2235091 L74.3905509,36.2984182 C74.3905509,36.2356909 74.3363119,36.1849636 74.2687899,36.1849636 L73.0567145,36.1849636 Z" id="Fill-126" fill="#FFFFFF"></path>
                            <path d="M70.9817962,36.1849636 C70.9148277,36.1849636 70.8600352,36.2356909 70.8600352,36.2984182 L70.8600352,37.2235091 C70.8600352,37.2867818 70.9148277,37.3369636 70.9817962,37.3369636 L72.1938717,37.3369636 C72.2619472,37.3369636 72.3161862,37.2867818 72.3161862,37.2235091 L72.3161862,36.2984182 C72.3161862,36.2356909 72.2619472,36.1849636 72.1938717,36.1849636 L70.9817962,36.1849636 Z" id="Fill-127" fill="#FFFFFF"></path>
                            <path d="M68.8706264,36.1849636 C68.8036579,36.1849636 68.7488654,36.2356909 68.7488654,36.2984182 L68.7488654,37.2235091 C68.7488654,37.2867818 68.8036579,37.3369636 68.8706264,37.3369636 L70.0832553,37.3369636 C70.1507774,37.3369636 70.2050164,37.2867818 70.2050164,37.2235091 L70.2050164,36.2984182 C70.2050164,36.2356909 70.1507774,36.1849636 70.0832553,36.1849636 L68.8706264,36.1849636 Z" id="Fill-128" fill="#FFFFFF"></path>
                            <path d="M66.8324579,36.1849636 C66.7654893,36.1849636 66.7106969,36.2356909 66.7106969,36.2984182 L66.7106969,37.2235091 C66.7106969,37.2867818 66.7654893,37.3369636 66.8324579,37.3369636 L68.0445333,37.3369636 C68.1120553,37.3369636 68.1668478,37.2867818 68.1668478,37.2235091 L68.1668478,36.2984182 C68.1668478,36.2356909 68.1120553,36.1849636 68.0445333,36.1849636 L66.8324579,36.1849636 Z" id="Fill-129" fill="#FFFFFF"></path>
                            <path d="M65.9703899,37.3371273 C66.0373585,37.3371273 66.0921509,37.2864 66.0921509,37.2236727 L66.0921509,36.2985818 C66.0921509,36.2353091 66.0373585,36.1851273 65.9703899,36.1851273 L64.757761,36.1851273 C64.690239,36.1851273 64.636,36.2353091 64.636,36.2985818 L64.636,37.2236727 C64.636,37.2864 64.690239,37.3371273 64.757761,37.3371273 L65.9703899,37.3371273 Z" id="Fill-130" fill="#FFFFFF"></path>
                            <path d="M62.6507421,36.1849636 C62.5837736,36.1849636 62.5289811,36.2356909 62.5289811,36.2984182 L62.5289811,37.2235091 C62.5289811,37.2867818 62.5837736,37.3369636 62.6507421,37.3369636 L63.8633711,37.3369636 C63.9308931,37.3369636 63.9851321,37.2867818 63.9851321,37.2235091 L63.9851321,36.2984182 C63.9851321,36.2356909 63.9308931,36.1849636 63.8633711,36.1849636 L62.6507421,36.1849636 Z" id="Fill-131" fill="#FFFFFF"></path>
                            <path d="M78.3821535,35.6975455 C78.449122,35.6975455 78.5039145,35.6468182 78.5039145,35.5840909 L78.5039145,34.659 C78.5039145,34.5962727 78.449122,34.5455455 78.3821535,34.5455455 L77.1695245,34.5455455 C77.1020025,34.5455455 77.0477635,34.5962727 77.0477635,34.659 L77.0477635,35.5840909 C77.0477635,35.6468182 77.1020025,35.6975455 77.1695245,35.6975455 L78.3821535,35.6975455 Z" id="Fill-132" fill="#FFFFFF"></path>
                            <path d="M76.3072352,35.6975455 C76.3742038,35.6975455 76.4289962,35.6468182 76.4289962,35.5840909 L76.4289962,34.659 C76.4289962,34.5962727 76.3742038,34.5455455 76.3072352,34.5455455 L75.0951597,34.5455455 C75.0270843,34.5455455 74.9728453,34.5962727 74.9728453,34.659 L74.9728453,35.5840909 C74.9728453,35.6468182 75.0270843,35.6975455 75.0951597,35.6975455 L76.3072352,35.6975455 Z" id="Fill-133" fill="#FFFFFF"></path>
                            <path d="M73.0567145,34.5453818 C72.9891925,34.5453818 72.9344,34.5966545 72.9344,34.6588364 L72.9344,35.5839273 C72.9344,35.6472 72.9891925,35.6973818 73.0567145,35.6973818 L74.2687899,35.6973818 C74.3363119,35.6973818 74.3905509,35.6472 74.3905509,35.5839273 L74.3905509,34.6588364 C74.3905509,34.5966545 74.3363119,34.5453818 74.2687899,34.5453818 L73.0567145,34.5453818 Z" id="Fill-134" fill="#FFFFFF"></path>
                            <path d="M70.9817962,34.5453818 C70.9148277,34.5453818 70.8600352,34.5966545 70.8600352,34.6588364 L70.8600352,35.5839273 C70.8600352,35.6472 70.9148277,35.6973818 70.9817962,35.6973818 L72.1938717,35.6973818 C72.2619472,35.6973818 72.3161862,35.6472 72.3161862,35.5839273 L72.3161862,34.6588364 C72.3161862,34.5966545 72.2619472,34.5453818 72.1938717,34.5453818 L70.9817962,34.5453818 Z" id="Fill-135" fill="#FFFFFF"></path>
                            <path d="M68.8706264,34.5453818 C68.8036579,34.5453818 68.7488654,34.5966545 68.7488654,34.6588364 L68.7488654,35.5839273 C68.7488654,35.6472 68.8036579,35.6973818 68.8706264,35.6973818 L70.0832553,35.6973818 C70.1507774,35.6973818 70.2050164,35.6472 70.2050164,35.5839273 L70.2050164,34.6588364 C70.2050164,34.5966545 70.1507774,34.5453818 70.0832553,34.5453818 L68.8706264,34.5453818 Z" id="Fill-136" fill="#FFFFFF"></path>
                            <path d="M66.8324579,34.5453818 C66.7654893,34.5453818 66.7106969,34.5966545 66.7106969,34.6588364 L66.7106969,35.5839273 C66.7106969,35.6472 66.7654893,35.6973818 66.8324579,35.6973818 L68.0445333,35.6973818 C68.1120553,35.6973818 68.1668478,35.6472 68.1668478,35.5839273 L68.1668478,34.6588364 C68.1668478,34.5966545 68.1120553,34.5453818 68.0445333,34.5453818 L66.8324579,34.5453818 Z" id="Fill-137" fill="#FFFFFF"></path>
                            <path d="M65.9703899,35.6975455 C66.0373585,35.6975455 66.0921509,35.6468182 66.0921509,35.5840909 L66.0921509,34.659 C66.0921509,34.5962727 66.0373585,34.5455455 65.9703899,34.5455455 L64.757761,34.5455455 C64.690239,34.5455455 64.636,34.5962727 64.636,34.659 L64.636,35.5840909 C64.636,35.6468182 64.690239,35.6975455 64.757761,35.6975455 L65.9703899,35.6975455 Z" id="Fill-138" fill="#FFFFFF"></path>
                            <path d="M80.4727346,33.9695455 C80.5397031,33.9695455 80.5944956,33.9188182 80.5944956,33.8555455 L80.5944956,32.931 C80.5944956,32.8677273 80.5397031,32.8175455 80.4727346,32.8175455 L79.2606591,32.8175455 C79.1925836,32.8175455 79.1383447,32.8677273 79.1383447,32.931 L79.1383447,33.8555455 C79.1383447,33.9188182 79.1925836,33.9695455 79.2606591,33.9695455 L80.4727346,33.9695455 Z" id="Fill-139" fill="#FFFFFF"></path>
                            <path d="M82.4844478,40.3941273 C82.5519698,40.3941273 82.6067623,40.3439455 82.6067623,40.2806727 L82.6067623,39.9315818 C82.6067623,39.8694 82.5519698,39.8181273 82.4844478,39.8181273 L81.2723723,39.8181273 C81.2048503,39.8181273 81.1506113,39.8694 81.1506113,39.9315818 L81.1506113,40.2806727 C81.1506113,40.3439455 81.2048503,40.3941273 81.2723723,40.3941273 L82.4844478,40.3941273 Z" id="Fill-140" fill="#FFFFFF"></path>
                            <path d="M79.233927,39.8182909 C79.1669585,39.8182909 79.112166,39.8695636 79.112166,39.9317455 L79.112166,40.2808364 C79.112166,40.3441091 79.1669585,40.3942909 79.233927,40.3942909 L80.4460025,40.3942909 C80.514078,40.3942909 80.568317,40.3441091 80.568317,40.2808364 L80.568317,39.9317455 C80.568317,39.8695636 80.514078,39.8182909 80.4460025,39.8182909 L79.233927,39.8182909 Z" id="Fill-141" fill="#FFFFFF"></path>
                            <path d="M82.4844478,39.0650727 C82.5519698,39.0650727 82.6067623,39.0143455 82.6067623,38.9516182 L82.6067623,38.0265273 C82.6067623,37.9638 82.5519698,37.9130727 82.4844478,37.9130727 L81.2723723,37.9130727 C81.2048503,37.9130727 81.1506113,37.9638 81.1506113,38.0265273 L81.1506113,38.9516182 C81.1506113,39.0143455 81.2048503,39.0650727 81.2723723,39.0650727 L82.4844478,39.0650727 Z" id="Fill-142" fill="#FFFFFF"></path>
                            <path d="M79.233927,37.9129091 C79.1669585,37.9129091 79.112166,37.9641818 79.112166,38.0263636 L79.112166,38.9514545 C79.112166,39.0147273 79.1669585,39.0649091 79.233927,39.0649091 L80.4460025,39.0649091 C80.514078,39.0649091 80.568317,39.0147273 80.568317,38.9514545 L80.568317,38.0263636 C80.568317,37.9641818 80.514078,37.9129091 80.4460025,37.9129091 L79.233927,37.9129091 Z" id="Fill-143" fill="#FFFFFF"></path>
                            <path d="M82.4844478,37.3371273 C82.5519698,37.3371273 82.6067623,37.2864 82.6067623,37.2236727 L82.6067623,36.2985818 C82.6067623,36.2353091 82.5519698,36.1851273 82.4844478,36.1851273 L81.2723723,36.1851273 C81.2048503,36.1851273 81.1506113,36.2353091 81.1506113,36.2985818 L81.1506113,37.2236727 C81.1506113,37.2864 81.2048503,37.3371273 81.2723723,37.3371273 L82.4844478,37.3371273 Z" id="Fill-144" fill="#FFFFFF"></path>
                            <path d="M79.233927,36.1849636 C79.1669585,36.1849636 79.112166,36.2356909 79.112166,36.2984182 L79.112166,37.2235091 C79.112166,37.2867818 79.1669585,37.3369636 79.233927,37.3369636 L80.4460025,37.3369636 C80.514078,37.3369636 80.568317,37.2867818 80.568317,37.2235091 L80.568317,36.2984182 C80.568317,36.2356909 80.514078,36.1849636 80.4460025,36.1849636 L79.233927,36.1849636 Z" id="Fill-145" fill="#FFFFFF"></path>
                            <path d="M82.4844478,35.6975455 C82.5519698,35.6975455 82.6067623,35.6468182 82.6067623,35.5840909 L82.6067623,34.659 C82.6067623,34.5962727 82.5519698,34.5455455 82.4844478,34.5455455 L81.2723723,34.5455455 C81.2048503,34.5455455 81.1506113,34.5962727 81.1506113,34.659 L81.1506113,35.5840909 C81.1506113,35.6468182 81.2048503,35.6975455 81.2723723,35.6975455 L82.4844478,35.6975455 Z" id="Fill-146" fill="#FFFFFF"></path>
                            <path d="M79.233927,34.5453818 C79.1669585,34.5453818 79.112166,34.5966545 79.112166,34.6588364 L79.112166,35.5839273 C79.112166,35.6472 79.1669585,35.6973818 79.233927,35.6973818 L80.4460025,35.6973818 C80.514078,35.6973818 80.568317,35.6472 80.568317,35.5839273 L80.568317,34.6588364 C80.568317,34.5966545 80.514078,34.5453818 80.4460025,34.5453818 L79.233927,34.5453818 Z" id="Fill-147" fill="#FFFFFF"></path>
                            <path d="M82.4844478,33.9695455 C82.5519698,33.9695455 82.6067623,33.9188182 82.6067623,33.8555455 L82.6067623,32.931 C82.6067623,32.8677273 82.5519698,32.8175455 82.4844478,32.8175455 L81.2723723,32.8175455 C81.2048503,32.8175455 81.1506113,32.8677273 81.1506113,32.931 L81.1506113,33.8555455 C81.1506113,33.9188182 81.2048503,33.9695455 81.2723723,33.9695455 L82.4844478,33.9695455 Z" id="Fill-148" fill="#FFFFFF"></path>
                            <path d="M61.7978616,33.9695455 C61.8653836,33.9695455 61.9201761,33.9188182 61.9201761,33.8555455 L61.9201761,32.931 C61.9201761,32.8677273 61.8653836,32.8175455 61.7978616,32.8175455 L60.5857862,32.8175455 C60.5182642,32.8175455 60.4640252,32.8677273 60.4640252,32.931 L60.4640252,33.8555455 C60.4640252,33.9188182 60.5182642,33.9695455 60.5857862,33.9695455 L61.7978616,33.9695455 Z" id="Fill-149" fill="#FFFFFF"></path>
                            <path d="M63.810073,33.9695455 C63.8770415,33.9695455 63.931834,33.9188182 63.931834,33.8555455 L63.931834,32.931 C63.931834,32.8677273 63.8770415,32.8175455 63.810073,32.8175455 L62.597444,32.8175455 C62.529922,32.8175455 62.475683,32.8677273 62.475683,32.931 L62.475683,33.8555455 C62.475683,33.9188182 62.529922,33.9695455 62.597444,33.9695455 L63.810073,33.9695455 Z" id="Fill-150" fill="#FFFFFF"></path>
                            <path d="M69.1214541,33.9695455 L70.1043975,33.9695455 L78.403517,33.9695455 C78.4704855,33.9695455 78.5247245,33.9188182 78.5247245,33.8555455 L78.5247245,32.931 C78.5247245,32.8677273 78.4704855,32.8175455 78.403517,32.8175455 L70.1043975,32.8175455 L69.1214541,32.8175455 L68.8917686,32.8175455 C68.8248,32.8175455 68.7700075,32.8677273 68.7700075,32.931 L68.7700075,33.8555455 C68.7700075,33.9188182 68.8248,33.9695455 68.8917686,33.9695455 L69.1214541,33.9695455 Z" id="Fill-151" fill="#FFFFFF"></path>
                            <path d="M65.6525937,33.9695455 L65.9226818,33.9695455 L67.9970465,33.9695455 C68.0645686,33.9695455 68.119361,33.9188182 68.119361,33.8555455 L68.119361,32.931 C68.119361,32.8677273 68.0645686,32.8175455 67.9970465,32.8175455 L65.9226818,32.8175455 L65.6525937,32.8175455 L64.7100528,32.8175455 C64.6430843,32.8175455 64.5882918,32.8677273 64.5882918,32.931 L64.5882918,33.8555455 C64.5882918,33.9188182 64.6430843,33.9695455 64.7100528,33.9695455 L65.6525937,33.9695455 Z" id="Fill-152" fill="#FFFFFF"></path>
                            <path d="M60.4201358,37.2060545 C60.4201358,37.2693273 60.4749283,37.3195091 60.5418969,37.3195091 L61.7689157,37.3195091 C61.8358843,37.3195091 61.8901233,37.2693273 61.8901233,37.2060545 L61.8901233,35.6646 L63.8637585,35.6646 C63.930727,35.6646 63.984966,35.6127818 63.984966,35.5511455 L63.984966,34.6140545 C63.984966,34.5518727 63.930727,34.5011455 63.8637585,34.5011455 L61.7667019,34.5011455 L61.013444,34.5011455 L60.554073,34.5011455 C60.4871044,34.5011455 60.4323119,34.5518727 60.4323119,34.6146 L60.4323119,34.8709636 C60.4278843,34.8747818 60.4201358,34.8764182 60.4201358,34.8824182 L60.4201358,37.2060545 Z" id="Fill-153" fill="#FFFFFF"></path>
                            <path d="M17.9302491,40.3674545 C17.9302491,41.8129091 16.7414189,42.9850909 15.2741987,42.9850909 C13.8075321,42.9850909 12.6181484,41.8129091 12.6181484,40.3674545 C12.6181484,38.922 13.8075321,37.7498182 15.2741987,37.7498182 C16.7414189,37.7498182 17.9302491,38.922 17.9302491,40.3674545" id="Fill-154" fill="#915C44"></path>
                            <path d="M17.5621987,39.2541818 L16.9866013,38.6869091 L16.9866013,38.43 L18.0376201,37.3941818 C18.1095698,37.3238182 18.2263497,37.3238182 18.2977459,37.3941818 L18.8733434,37.9614545 C18.9452931,38.0323636 18.9452931,38.1474545 18.8733434,38.2178182 L17.8223245,39.2541818 L17.5621987,39.2541818 Z" id="Fill-155" fill="#ECEBEA"></path>
                            <path d="M18.3939925,40.3674545 C18.3939925,42.0654545 16.9976151,43.4421818 15.2741434,43.4421818 C13.5512252,43.4421818 12.1548478,42.0654545 12.1548478,40.3674545 C12.1548478,38.6694545 13.5512252,37.2927273 15.2741434,37.2927273 C16.9976151,37.2927273 18.3939925,38.6694545 18.3939925,40.3674545" id="Fill-156" fill="#ECEBEA"></path>
                            <path d="M17.7610566,40.3674545 C17.7610566,41.7212727 16.6474969,42.8187273 15.2743648,42.8187273 C13.9001258,42.8187273 12.7871195,41.7212727 12.7871195,40.3674545 C12.7871195,39.0141818 13.9001258,37.9167273 15.2743648,37.9167273 C16.6474969,37.9167273 17.7610566,39.0141818 17.7610566,40.3674545" id="Fill-157" fill="#E2A844"></path>
                            <polygon id="Fill-158" fill="#CECECE" points="18.4880252 39.4363636 18.4880252 40.5845455 19.3940377 41.334 19.3940377 38.7796364"></polygon>
                            <polygon id="Fill-159" fill="#CECECE" points="18.6709434 40.1847273 18.7971321 40.1847273 18.7971321 39.7516364 18.6709434 39.7516364"></polygon>
                            <path d="M16.2407044,40.6615091 C16.2407044,40.6615091 17.3116478,39.0316909 18.7019371,40.0320545" id="Stroke-160" stroke="#FFFFFF" stroke-width="0.204"></path>
                            <path d="M16.0304453,39.8102727 C16.7361057,39.5844545 16.7809358,39.1328182 16.6957031,38.787 C16.3160302,38.4548182 15.8217912,38.247 15.2744201,38.247 C14.0855899,38.247 13.1220176,39.1966364 13.1220176,40.3671818 C13.1220176,41.5388182 14.0855899,42.4884545 15.2744201,42.4884545 C15.803527,42.4884545 16.2822692,42.2931818 16.6575145,41.9800909 C16.6110239,41.751 16.4975648,41.5268182 16.2407597,41.3337273 C15.0685333,40.4500909 16.0304453,39.8102727 16.0304453,39.8102727" id="Fill-161" fill="#E9C500"></path>
                            <path d="M17.4259925,40.3674545 C17.4259925,39.7363636 17.1398541,39.1750909 16.6959799,38.7872727 C16.7812126,39.1325455 16.7363824,39.5841818 16.030722,39.8105455 C16.030722,39.8105455 15.0682566,40.4498182 16.240483,41.3334545 C16.4972881,41.5270909 16.6107472,41.7507273 16.6572377,41.9798182 C17.1238038,41.5909091 17.4259925,41.0165455 17.4259925,40.3674545" id="Fill-162" fill="#FFFFFF"></path>
                            <path d="M67.7242465,24.9104182 L68.5345107,25.7089636 L68.8007245,25.9718727 L69.0680453,25.7095091 L69.9640956,24.8258727 L71.0184352,23.7862364 C71.1662088,23.6411455 71.1662088,23.4055091 71.0184352,23.2609636 L70.2081711,22.4618727 C70.0615044,22.3167818 69.8224101,22.3167818 69.6746365,22.4624182 L68.6202969,23.5015091 L67.7242465,24.3846 L67.4574792,24.6480545 L67.7242465,24.9104182 Z" id="Fill-163" fill="#ECEFF4"></path>
                            <polygon id="Fill-164" fill="#4C515B" points="67.717273 24.9034909 68.5507824 25.7249455 68.0941786 26.1749455 67.2606692 25.3534909"></polygon>
                            <path d="M69.9505358,23.1472909 L70.3534541,23.5443818 C70.3861082,23.5765636 70.4386868,23.5765636 70.4713409,23.5443818 C70.503995,23.5122 70.503995,23.4598364 70.4713409,23.4282 L70.0684226,23.0305636 C70.0357686,22.9989273 69.9831899,22.9989273 69.9505358,23.0305636 C69.9178818,23.0632909 69.9178818,23.1151091 69.9505358,23.1472909" id="Fill-165" fill="#E26D46"></path>
                            <path d="M0.786520755,37.7984182 L1.16840755,37.3871455 C1.16840755,37.3871455 3.19904906,38.6149636 4.11613082,39.4435091" id="Stroke-166" stroke="#C1C1C1" stroke-width="0.273"></path>
                            <polygon id="Fill-167" fill="#353B45" points="9.00948428 45.3351818 9.09693082 45.2408182 8.53959748 44.7373636 8.45215094 44.8317273"></polygon>
                            <path d="M8.90194717,45.1513636 C9.04086541,45.0019091 8.68388428,44.4313636 8.00091572,43.635 L7.29138113,44.3986364 C8.15477736,45.0002727 8.76247547,45.3008182 8.90194717,45.1513636" id="Fill-168" fill="#ECEBEA"></path>
                            <path d="M3.85810818,39.6654 L2.91944151,40.6750364 C3.32235975,41.0732182 3.75461132,41.4855818 4.22283774,41.9088545 C5.36296352,42.9392182 6.44885031,43.8119455 7.29121509,44.3988545 L8.00074969,43.6346727 C7.33493836,42.8584909 6.35918994,41.8684909 5.21851069,40.8381273 C4.74973082,40.4148545 4.29589434,40.0270364 3.85810818,39.6654" id="Fill-169" fill="#6B7482"></path>
                            <path d="M5.43795723,42.0219273 C5.38980629,42.0737455 5.3084478,42.0775636 5.25586918,42.0295636 L4.5800956,41.4197455 C4.52696352,41.3717455 4.52419623,41.2910182 4.57234717,41.2392 C4.61994465,41.1879273 4.70241006,41.1841091 4.75498868,41.2315636 L5.43020881,41.8419273 C5.48278742,41.8893818 5.48666164,41.9701091 5.43795723,42.0219273" id="Fill-170" fill="#ECEBEA"></path>
                            <path d="M6.17411321,42.6872727 C6.12596226,42.7390909 6.04460377,42.7429091 5.99202516,42.6954545 L5.82322013,42.5427273 C5.77064151,42.4952727 5.76732075,42.4145455 5.8154717,42.3627273 C5.86306918,42.3114545 5.94553459,42.3076364 5.99811321,42.3556364 L6.16636478,42.5072727 C6.2189434,42.5547273 6.22281761,42.6354545 6.17411321,42.6872727" id="Fill-171" fill="#ECEBEA"></path>
                            <path d="M0.53951195,37.596 C0.475864151,37.6652727 0.527889308,37.8327273 0.65850566,38.0618182 L1.02046792,37.6729091 C0.777499371,37.5638182 0.603713208,37.5272727 0.53951195,37.596" id="Fill-172" fill="#353B45"></path>
                            <path d="M3.85810818,39.6654 C2.64326541,38.6601273 1.60663648,37.9341273 1.02052327,37.6728545 L0.658561006,38.0617636 C0.974032704,38.6137636 1.79757987,39.5688545 2.91944151,40.6750364 L3.85810818,39.6654 Z" id="Fill-173" fill="#ECEBEA"></path>
                            <path d="M11.4146516,33.447 C11.4146516,34.4686364 10.5324377,35.2971818 9.44378365,35.2971818 C8.35568302,35.2971818 7.47291572,34.4686364 7.47291572,33.447 C7.47291572,32.4253636 8.35568302,31.5968182 9.44378365,31.5968182 C10.5324377,31.5968182 11.4146516,32.4253636 11.4146516,33.447" id="Fill-174" fill="#FFB452"></path>
                            <path d="M10.2320755,33.447 C10.2320755,33.8555455 9.87896855,34.1866364 9.44394969,34.1866364 C9.00837736,34.1866364 8.65527044,33.8555455 8.65527044,33.447 C8.65527044,33.0384545 9.00837736,32.7073636 9.44394969,32.7073636 C9.87896855,32.7073636 10.2320755,33.0384545 10.2320755,33.447" id="Fill-175" fill="#E26D46"></path>
                            <path d="M9.69538616,33.3266182 C9.86640503,33.4951636 9.95827925,33.6778909 9.9007195,33.7340727 C9.84315975,33.7908 9.6583044,33.7002545 9.48728553,33.5317091 C9.31571321,33.3631636 9.22383899,33.1804364 9.2819522,33.1242545 C9.33895849,33.0669818 9.5243673,33.1575273 9.69538616,33.3266182" id="Fill-176" fill="#60803D"></path>
                            <path d="M9.48728553,33.3266182 C9.6583044,33.1575273 9.84315975,33.0669818 9.9007195,33.1242545 C9.95827925,33.1804364 9.86640503,33.3631636 9.69538616,33.5317091 C9.5243673,33.7002545 9.33895849,33.7908 9.2819522,33.7340727 C9.22383899,33.6778909 9.31571321,33.4951636 9.48728553,33.3266182" id="Fill-177" fill="#60803D"></path>
                            <path d="M9.69914969,32.6203091 C9.69914969,32.6497636 9.67535094,32.6737636 9.64491069,32.6737636 C9.61557736,32.6737636 9.59122516,32.6497636 9.59122516,32.6203091 C9.59122516,32.5903091 9.61557736,32.5668545 9.64491069,32.5668545 C9.67535094,32.5668545 9.69914969,32.5903091 9.69914969,32.6203091" id="Fill-178" fill="#E26D46"></path>
                            <path d="M8.89707673,34.1480182 C8.89707673,34.1774727 8.87272453,34.2014727 8.84283774,34.2014727 C8.8135044,34.2014727 8.7891522,34.1774727 8.7891522,34.1480182 C8.7891522,34.1185636 8.8135044,34.0945636 8.84283774,34.0945636 C8.87272453,34.0945636 8.89707673,34.1185636 8.89707673,34.1480182" id="Fill-179" fill="#E26D46"></path>
                            <path d="M10.4234063,34.4798727 C10.4234063,34.5093273 10.3990541,34.5333273 10.3691673,34.5333273 C10.339834,34.5333273 10.3154818,34.5093273 10.3154818,34.4798727 C10.3154818,34.4498727 10.339834,34.4264182 10.3691673,34.4264182 C10.3990541,34.4264182 10.4234063,34.4498727 10.4234063,34.4798727" id="Fill-180" fill="#E26D46"></path>
                            <path d="M8.59654843,32.7742364 C8.59654843,32.8036909 8.57219623,32.8276909 8.54230943,32.8276909 C8.5129761,32.8276909 8.4886239,32.8036909 8.4886239,32.7742364 C8.4886239,32.7442364 8.5129761,32.7207818 8.54230943,32.7207818 C8.57219623,32.7207818 8.59654843,32.7442364 8.59654843,32.7742364" id="Fill-181" fill="#E26D46"></path>
                            <path d="M9.2095044,33.4288909 C9.2095044,33.4588909 9.1851522,33.4823455 9.15526541,33.4823455 C9.12593208,33.4823455 9.10157987,33.4588909 9.10157987,33.4288909 C9.10157987,33.3994364 9.12593208,33.3754364 9.15526541,33.3754364 C9.1851522,33.3754364 9.2095044,33.3994364 9.2095044,33.4288909" id="Fill-182" fill="#E26D46"></path>
                            <path d="M9.44406038,34.9768364 C9.44406038,35.0068364 9.41970818,35.0308364 9.38982138,35.0308364 C9.35993459,35.0308364 9.33613585,35.0068364 9.33613585,34.9768364 C9.33613585,34.9473818 9.35993459,34.9233818 9.38982138,34.9233818 C9.41970818,34.9233818 9.44406038,34.9473818 9.44406038,34.9768364" id="Fill-183" fill="#E26D46"></path>
                            <path d="M10.3693887,33.4821818 C10.3693887,33.5121818 10.3450365,33.5356364 10.3151497,33.5356364 C10.2852629,33.5356364 10.2614642,33.5121818 10.2614642,33.4821818 C10.2614642,33.4527273 10.2852629,33.4287273 10.3151497,33.4287273 C10.3450365,33.4287273 10.3693887,33.4527273 10.3693887,33.4821818" id="Fill-184" fill="#E26D46"></path>
                            <path d="M8.0560956,33.6979091 C8.0560956,33.7273636 8.0317434,33.7513636 8.0018566,33.7513636 C7.97196981,33.7513636 7.94817107,33.7273636 7.94817107,33.6979091 C7.94817107,33.6679091 7.97196981,33.6444545 8.0018566,33.6444545 C8.0317434,33.6444545 8.0560956,33.6679091 8.0560956,33.6979091" id="Fill-185" fill="#E26D46"></path>
                            <path d="M9.69914969,33.9168545 C9.69914969,33.9468545 9.67535094,33.9703091 9.64491069,33.9703091 C9.61557736,33.9703091 9.59122516,33.9468545 9.59122516,33.9168545 C9.59122516,33.8874 9.61557736,33.8634 9.64491069,33.8634 C9.67535094,33.8634 9.69914969,33.8874 9.69914969,33.9168545" id="Fill-186" fill="#E26D46"></path>
                            <path d="M10.0261333,33.9168545 C10.0261333,33.9468545 10.0017811,33.9703091 9.97189434,33.9703091 C9.94200755,33.9703091 9.91820881,33.9468545 9.91820881,33.9168545 C9.91820881,33.8874 9.94200755,33.8634 9.97189434,33.8634 C10.0017811,33.8634 10.0261333,33.8874 10.0261333,33.9168545" id="Fill-187" fill="#E26D46"></path>
                            <path d="M10.6395874,32.5137818 C10.6395874,32.5432364 10.6152352,32.5672364 10.5853484,32.5672364 C10.5560151,32.5672364 10.5316629,32.5432364 10.5316629,32.5137818 C10.5316629,32.4837818 10.5560151,32.4603273 10.5853484,32.4603273 C10.6152352,32.4603273 10.6395874,32.4837818 10.6395874,32.5137818" id="Fill-188" fill="#E26D46"></path>
                            <path d="M45.8010113,4.17998182 C45.8010113,4.68561818 45.5320302,5.14325455 45.0970113,5.47434545 C44.661439,5.80543636 44.0598289,6.00998182 43.3962314,6.00998182 C42.7320805,6.00998182 42.1310239,5.80543636 41.696005,5.47434545 C41.2609862,5.14325455 40.992005,4.68561818 40.992005,4.17998182 C40.992005,3.67434545 41.2167094,2.87743636 41.6074516,2.20652727 C41.9981937,1.53561818 42.555527,0.991254545 43.2191245,0.991254545 C43.8832755,0.991254545 43.9186969,1.92016364 44.3979925,2.59107273 C44.8772881,3.26198182 45.8010113,3.67434545 45.8010113,4.17998182" id="Fill-189" fill="#323E46"></path>
                            <path d="M44.5017107,1.89430909 C43.3964528,1.42521818 44.3982138,0.239945455 44.3982138,0.239945455 C42.8319245,0.239945455 41.5180126,1.70230909 41.5180126,2.38685455 C41.5180126,2.6514 41.4626667,3.39758182 41.4626667,3.65230909 C41.4626667,4.66303636 42.5385912,5.48230909 43.8668931,5.48230909 C45.1946415,5.48230909 46.2711195,4.66303636 46.2711195,3.65230909 C46.2711195,2.80958182 45.6069686,2.3634 44.5017107,1.89430909" id="Fill-190" fill="#5B4D45"></path>
                            <polygon id="Fill-191" fill="#ECEBEA" points="12.1200352 36.1471091 11.9152553 36.0827455 13.0266013 32.6512909 13.2313811 32.7156545"></polygon>
                            <path d="M14.2852226,32.1073636 C14.1308075,32.5840909 13.6133233,32.847 13.1290465,32.6948182 C12.6447698,32.5431818 12.3780025,32.0326364 12.5324176,31.5553636 C12.6868327,31.0786364 13.2048704,30.8151818 13.6885937,30.9673636 C14.1728704,31.1195455 14.4396377,31.6300909 14.2852226,32.1073636" id="Fill-192" fill="#DE877C"></path>
                            <polygon id="Fill-193" fill="#DE877C" points="13.1188075 33.2930727 12.7889459 33.1834364 12.9909585 32.4956182 13.3634365 32.6401636"></polygon>
                        </g>
                        <g id="Group-201" transform="translate(17.000000, 54.000000)">
                            <g id="Group-197">
                                <mask id="mask-6" fill="white">
                                    <use xlink:href="#path-5"></use>
                                </mask>
                                <g id="Clip-196"></g>
                                <polygon id="Fill-195" fill="#000000" mask="url(#mask-6)" points="0.5846 0.13485 0.0436 0.14835 0.0571 0.05985 0.5981 0.04585"></polygon>
                            </g>
                            <g id="Group-200">
                                <mask id="mask-8" fill="white">
                                    <use xlink:href="#path-7"></use>
                                </mask>
                                <g id="Clip-199"></g>
                                <polygon id="Fill-198" fill="#000000" mask="url(#mask-8)" points="0.53575 0.2784 -0.00525 0.2919 -0.00625 0.2479 0.53475 0.2344"></polygon>
                            </g>
                        </g>
                        <path d="M17.2936113,52.5266242 C17.1476113,52.5426242 17.0186113,52.4376242 17.0016113,52.2936242 C16.9856113,52.1476242 17.0906113,52.0176242 17.2346113,52.0016242 C17.3806113,51.9856242 17.5106113,52.0896242 17.5266113,52.2346242 C17.5426113,52.3806242 17.4386113,52.5096242 17.2936113,52.5266242" id="Fill-202" fill="#EFEFEF"></path>
                    </g>
                </g>
            </g>
        </g>
    </g>
</svg>