<?xml version="1.0" encoding="UTF-8"?>
<svg width="63px" height="66px" viewBox="0 0 63 66" version="1.1" xmlns="http://www.w3.org/2000/svg" xmlns:xlink="http://www.w3.org/1999/xlink">
    <!-- Generator: Sketch 50.2 (55047) - http://www.bohemiancoding.com/sketch -->
    <title>small-plant</title>
    <desc>Created with Sketch.</desc>
    <defs>
        <polygon id="path-1" points="23.8854856 0.342829268 0.500309096 0.342829268 0.500309096 27.7699963 23.8854856 27.7699963 23.8854856 0.342829268"></polygon>
        <polygon id="path-3" points="29.3645455 0.0818220421 29.3645455 29.8896711 0.216232864 29.8896711 0.216232864 0.0818220421 29.3645455 0.0818220421"></polygon>
    </defs>
    <g id="Page-1" stroke="none" stroke-width="1" fill="none" fill-rule="evenodd">
        <g id="01-Jobs-Copy" transform="translate(-86.000000, -672.000000)">
            <g id="01--Hero">
                <g id="illustration" transform="translate(10.000000, 370.000000)">
                    <g id="small-plant" transform="translate(76.000000, 302.000000)">
                        <path d="M50,31.0003479 C50,38.179551 44.180091,44 37,44 C29.8206048,44 24,38.179551 24,31.0003479 C24,23.8211447 29.8206048,18 37,18 C44.180091,18 50,23.8211447 50,31.0003479" id="Fill-1" fill="#ECEEF0"></path>
                        <path d="M47,31.0003434 C47,36.5224393 42.5229723,41 37,41 C31.4777144,41 27,36.5224393 27,31.0003434 C27,25.4775607 31.4777144,21 37,21 C42.5229723,21 47,25.4775607 47,31.0003434" id="Fill-3" fill="#353A44"></path>
                        <g id="Group-7" transform="translate(0.000000, 32.000000)" fill="#5A7732">
                            <path d="M20.83508,7.51985 C20.68458,7.61726176 19.33218,8.73073235 20.18338,8.77943824 C21.03528,8.82814412 25.14498,8.05290882 26.49808,9.31182059 C27.85118,10.5714088 28.85358,13.7677324 25.04488,18.9014676 C21.23618,24.0352029 12.76618,22.9217324 10.31058,22.7275853 C7.85498,22.5334382 4.59718,22.1945265 2.94308,20.8875853 C1.28968,19.5792912 -0.76482,18.0294971 0.28728,13.6222912 C1.33938,9.21508529 3.14398,5.69608529 7.40418,3.43532059 C11.66368,1.17523235 15.82308,-0.471297059 20.28348,0.158497059 C24.74388,0.788291176 22.28898,5.58311471 22.28898,5.58311471 L20.83508,7.51985 Z" id="Fill-5"></path>
                        </g>
                        <path d="M36.694163,30.940923 C36.694163,30.940923 37.44718,30.38501 36.5900593,30.0341295 C36.0167948,29.7995046 34.7515875,30.8514415 34.7515875,30.8514415 C34.7515875,30.8514415 24.6646307,38.1663839 19,41.6463012 L19.3484005,42 C19.3484005,42 28.0931133,36.8037275 30.7269375,34.9880266 C32.9498991,33.454862 35.1124804,31.9379028 35.7322446,31.5024728 C35.8523109,31.4186278 35.9723772,31.3425333 36.1007718,31.2720753 L36.694163,30.940923 Z" id="Fill-8" fill="#668439"></path>
                        <path d="M25.9887612,45.6110274 L3,51 L18.3592882,42.25508 C18.3592882,42.25508 26.3396132,40.6239731 25.9887612,45.6110274" id="Fill-10" fill="#556E31"></path>
                        <path d="M19.6957485,34.7856491 C19.4018314,34.8866163 1.64485716,51 1.64485716,51 C1.64485716,51 -1.05315058,46.3316693 4.58813833,38.8019 C10.2287421,31.2714296 22.8349743,33.2290714 20.7748145,33.2290714 L19.6957485,34.7856491 Z" id="Fill-12" fill="#556E31"></path>
                        <g id="Group-16" transform="translate(21.000000, 0.000000)">
                            <mask id="mask-2" fill="white">
                                <use xlink:href="#path-1"></use>
                            </mask>
                            <g id="Clip-15"></g>
                            <path d="M15.3338118,22.1938244 C15.2688706,22.029239 14.4387529,20.4919707 14.1987529,21.291678 C13.9587529,22.0913854 13.8260471,26.173922 12.2420471,27.1785073 C10.6573412,28.1830927 7.18087059,28.4193854 2.81145882,23.644361 C-1.55865882,18.8700195 1.47310588,11.0634829 2.22063529,8.77089756 C2.96745882,6.4783122 4.04251765,3.45636098 5.74369412,2.17587317 C7.44487059,0.896068293 9.48204706,-0.710858537 13.7300471,1.27919024 C17.9780471,3.26923902 21.1545176,5.77489756 22.4992235,10.3341171 C23.8439294,14.8933366 24.5872235,19.219678 22.9474588,23.3206537 C21.3069882,27.4223122 16.9792235,24.0104098 16.9792235,24.0104098 L15.3338118,22.1938244 Z" id="Fill-14" fill="#5A7732" mask="url(#mask-2)"></path>
                        </g>
                        <path d="M35.9561821,30.5837989 C35.9561821,30.5837989 36.3418566,31.450707 36.8987793,30.6822313 C37.2698172,30.1675705 36.5013956,28.684757 36.5013956,28.684757 C36.5013956,28.684757 35.7988386,26.4960426 34.4383663,21 L34,21.2650644 C34,21.2650644 35.3165625,28.8000635 35.6122219,29.5094797 C35.6693046,29.6458789 35.7176054,29.781575 35.7600516,29.9243019 L35.9561821,30.5837989 Z" id="Fill-17" fill="#668439"></path>
                        <path d="M29.0120141,26.8313421 L29,3 L34,20.0482635 C34,20.0482635 33.7717314,28.268524 29.0120141,26.8313421" id="Fill-19" fill="#556E31"></path>
                        <path d="M40.4395138,23.3765684 C40.4093593,23.0668205 29,2.15814818 29,2.15814818 C29,2.15814818 34.0488197,0.533004145 39.9707487,7.70194745 C45.8926777,14.8702024 41.224901,26.791367 41.6827008,24.7731873 L40.4395138,23.3765684 Z" id="Fill-21" fill="#556E31"></path>
                        <path d="M37.9329851,31.2772321 C37.9329851,31.2772321 36.3021876,30.5487276 37.352731,30.0883185 C37.8174876,29.8845661 38.3617783,30.0518576 38.8915454,30.400739 C41.8128722,32.3267361 44.8144248,33.51279 49,35.5495998 L48.5788144,36 C48.5788144,36 41.1157374,33.0445167 38.6729992,31.6797326 L37.9329851,31.2772321 Z" id="Fill-23" fill="#668439"></path>
                        <path d="M45.1935381,31.817053 C45.3328253,31.9163347 46.5898239,33.0611549 45.8121371,33.1262015 C45.0351331,33.1905634 41.2648201,32.4456086 40.0515195,33.786938 C38.8382188,35.1289521 37.9813295,38.4956272 41.5570501,43.814385 C45.1327707,49.1338275 50.4625539,46.2402808 52.7034389,45.9978967 C54.9443239,45.7548278 57.9151011,45.3467459 59.4021967,43.9492711 C60.8892922,42.5517962 62.7382614,40.894135 61.694973,36.2915745 C60.6516847,31.689014 59.1386435,27.4404439 55.2037805,25.1412177 C51.2689175,22.8413069 49.6316102,22.2428782 45.5615567,24.091571 C41.7994371,25.8005849 43.829343,29.8095095 43.829343,29.8095095 L45.1935381,31.817053 Z" id="Fill-25" fill="#5A7732"></path>
                        <path d="M40.0165745,37.6341174 L59,41 L47.0208322,34.2088527 C47.0208322,34.2088527 39.6042778,32.7317241 40.0165745,37.6341174" id="Fill-27" fill="#556E31"></path>
                        <path d="M46.0777693,27.1408044 C46.365506,27.24038 61.4301207,42 61.4301207,42 C61.4301207,42 63.964335,37.1193959 58.3445886,29.4170172 C52.7234213,21.7146386 48.9288492,24.031523 45,25.5475958 L46.0777693,27.1408044 Z" id="Fill-29" fill="#556E31"></path>
                        <g id="Group-33" transform="translate(33.000000, 9.000000)">
                            <mask id="mask-4" fill="white">
                                <use xlink:href="#path-3"></use>
                            </mask>
                            <g id="Clip-32"></g>
                            <path d="M9.85261364,18.0285349 C9.85261364,18.0285349 4.90602273,17.6294651 2.82306818,15.0983023 C0.740113636,12.5678372 0.349431818,11.6350465 0.219886364,8.97132558 C0.0896590909,6.30690698 3.47420455,2.97690698 5.03625,2.31132558 C6.59829545,1.64504651 14.1480682,-1.15193023 26.5142045,0.712953488 C26.5142045,0.712953488 28.0769318,1.11202326 29.1180682,1.11202326 C29.1180682,1.11202326 28.8576136,2.71109302 29.1180682,5.50806977 C29.3785227,8.30504651 29.50875,10.9687674 29.1180682,12.8343488 C28.7280682,14.6992326 26.6444318,19.7594651 26.5142045,22.2906279 C26.3846591,24.8217907 23.7807955,29.7501628 21.0473864,29.8834186 C18.3139773,30.0166744 13.1069318,28.0185349 11.6751136,24.0229535 C10.2432955,20.0266744 9.85261364,18.0285349 9.85261364,18.0285349" id="Fill-31" fill="#668439" mask="url(#mask-4)"></path>
                        </g>
                        <path d="M43.5196828,26 C43.5196828,26 39.1268385,30.1015126 37.5205205,30.1352563 C36.7183907,30.1517973 36.8000446,29.9810939 36.6147794,29.8533972 C36.428828,29.7257005 35.7014905,30.0922496 36.1365207,30.6209008 C36.1365207,30.6209008 36.9201239,31.224979 38.0619066,30.908053 C39.6668524,30.4621069 44,26.5948153 44,26.5948153 L43.5196828,26 Z" id="Fill-34" fill="#60803D"></path>
                        <path d="M43.3718802,25.9902469 C43.3718802,25.9902469 36.216285,26.452763 34,21.007656 L60,12 L43.3718802,25.9902469 Z" id="Fill-36" fill="#60803D"></path>
                        <path d="M59.4982661,13.9509818 L48,35.2223399 C48,35.2223399 51.6310685,38.1498349 55.0599805,36.4911937 C58.4895969,34.8325524 59.0946576,28.9121437 59.0946576,28.7499594 C59.0946576,28.5877751 60.7083875,22.3423163 60.9098396,21.5620598 C61.1119961,20.7811219 60.9098396,15.3172824 60.9098396,15.3172824 L61,12 L59.4982661,13.9509818 Z" id="Fill-38" fill="#60803D"></path>
                        <path d="M24.2346065,22.5054392 C24.2346065,22.5054392 25.4436,24.854295 25.9143897,26.2638897 C26.3844757,27.6734844 25.9143897,30.2234096 24.7722497,30.9946443 C23.6301097,31.767285 18.1213779,33.4109919 11.9412957,29.4683449 C5.76121351,25.525698 2.40235081,17.7409387 4.75348433,8.88193476 C4.75348433,8.88193476 5.22357029,6.06274534 6.9033535,5.39204541 C8.58243299,4.72064244 11.2023881,2.90890898 19.8011611,4.92241485 C28.399934,6.93592072 30.8854784,10.0229683 31.8932075,12.3718241 C32.900233,14.72068 33.7742551,19.7846753 31.8932075,21.3644057 C30.0114563,22.944839 26.974898,23.4193909 25.7124216,23.1768422 C24.450649,22.9342934 24.2346065,22.5054392 24.2346065,22.5054392" id="Fill-40" fill="#60803D"></path>
                        <path d="M23,21.3414015 L23.3280007,21 C23.3280007,21 28.2088989,25.0811047 35.7151754,29.260773 C35.9978873,29.4179033 36.1811012,30 35.7151754,30 C35.2492497,30 33.7361918,29.0572177 31.3338265,27.6273312 C28.0497019,25.6724863 23,21.3414015 23,21.3414015" id="Fill-42" fill="#60803D"></path>
                        <path d="M22,21 C22,21 8.17262672,8.66151638 7.71835606,7.95833533 C7.2640854,7.25582397 6.67924592,7 6.67924592,7 C6.67924592,7 4.63774813,8.3193016 5.05665641,14.4798374 L22,21 Z" id="Fill-44" fill="#668439"></path>
                        <path d="M8,6.08982228 L31,13 C31,13 30.6923312,9.5772411 25.8511132,7.02809397 C21.0091928,4.47964966 13.2760285,3.67702324 12.1465046,4.11207206 C11.0176832,4.54641806 8.73756223,5.41862418 8,6.08982228" id="Fill-46" fill="#668439"></path>
                        <path d="M26.483341,45.6994141 C26.3863496,45.846053 25.2692529,47.1637571 25.2210963,46.3343947 C25.1722615,45.5043503 25.9495492,41.500085 24.6866262,40.1816989 C23.4237032,38.8633128 20.2195958,37.8866295 15.0715907,41.5976169 C9.92426395,45.3086044 11.0413607,53.5613058 11.2360218,55.9539072 C11.4300046,58.3465085 11.7698136,61.5200473 13.0808931,63.1323933 C14.3919727,64.7433752 15.9458698,66.7451668 20.3647437,65.7200585 C24.7836176,64.6949502 28.3126124,62.9366474 30.5786842,58.7857432 C32.8447559,54.6355211 34.4956445,50.5821488 33.864183,46.2361807 C33.2333998,41.8908947 28.4258821,44.2834961 28.4258821,44.2834961 L26.483341,45.6994141 Z" id="Fill-48" fill="#668439"></path>
                        <path d="M36.0590952,30.3060136 C36.0590952,30.3060136 36.6150092,29.5530042 36.9658903,30.4094223 C37.2005156,30.9833751 36.1478724,32.2485697 36.1478724,32.2485697 C36.1478724,32.2485697 28.8336224,42.3354259 25.3529948,48 L25,47.651603 C25,47.651603 30.1955765,38.9069775 32.011985,36.2738736 C33.5451521,34.0502402 35.0614093,31.8876804 35.4975446,31.2679224 C35.5813897,31.1478573 35.6567798,31.0270982 35.728647,30.8993989 L36.0590952,30.3060136 Z" id="Fill-50" fill="#668439"></path>
                        <path d="M21.3886877,41.0111948 L16,64 L24.7448999,48.6411447 C24.7448999,48.6411447 26.3761354,40.6610448 21.3886877,41.0111948" id="Fill-52" fill="#60803D"></path>
                        <path d="M32.2143509,46.3049081 C32.1140849,46.5988187 16,64.3554079 16,64.3554079 C16,64.3554079 20.6683307,67.052672 28.1981,61.4121906 C35.7285704,55.771024 33.7709286,43.1650652 33.7709286,45.2251803 L32.2143509,46.3049081 Z" id="Fill-54" fill="#60803D"></path>
                        <path d="M43.9762308,46.9442123 C43.9762308,46.9442123 41.4608006,44.0177485 39.1216502,44.7066941 C36.7824998,45.3949486 36.2268053,45.781919 35.6222207,47.418251 C35.017636,49.053892 34.5941513,52.8413649 35.6222207,55.3373241 C36.65029,57.8339742 39.6952482,61.8370449 41.8140488,62.9122699 C43.9321609,63.9888768 47.5066471,64.9355723 49.5806891,65.6245178 C51.6554198,66.3127724 54.7885179,66.0550224 56.7303502,64.849886 C58.6721824,63.6447496 59.9515882,60.760438 59.9956581,57.1878719 C60.0404167,53.6159968 59.7753083,49.9570533 57.4802279,46.3844872 C55.1858361,42.8126121 48.8748813,37.6479392 46.491661,39.3264233 C44.1084407,41.0042165 44.0203008,41.5646326 44.1965806,43.7164644 C44.373549,45.8682963 44.9912169,47.2461874 44.6820386,47.418251 C44.373549,47.5903147 43.9762308,46.9442123 43.9762308,46.9442123" id="Fill-56" fill="#668439"></path>
                        <path d="M45,47.7844333 C45,47.7844333 40.1894923,38.9385747 38.0890916,33.9999488 L36.8723919,30.8163546 C36.8723919,30.8163546 36.5427843,29.7198064 36.1473908,30.0684561 C36.1473908,30.0684561 35.8903511,30.1301456 36.0551549,31.0561812 C36.2199587,31.9822169 40.2627384,40.6610287 44.6086757,48" id="Fill-58" fill="#668439"></path>
                        <path d="M36,47.8805256 C36,47.8805256 37.1766197,44.4614708 39.8690834,45.0733088 C42.560859,45.684464 45.1315322,48.603669 45.1315322,48.603669 L55,64 L36,47.8805256 Z" id="Fill-60" fill="#60803D"></path>
                        <path d="M48,40.0399731 L55.3597298,64 C55.3597298,64 60.4242722,59.7246808 58.6059543,52.3037828 C56.7876363,44.8815238 50.294512,39.4791863 48,40.0399731" id="Fill-62" fill="#60803D"></path>
                    </g>
                </g>
            </g>
        </g>
    </g>
</svg>