<?xml version="1.0" encoding="UTF-8"?>
<svg width="125px" height="79px" viewBox="0 0 125 79" version="1.1" xmlns="http://www.w3.org/2000/svg" xmlns:xlink="http://www.w3.org/1999/xlink">
    <!-- Generator: Sketch 50.2 (55047) - http://www.bohemiancoding.com/sketch -->
    <title>television</title>
    <desc>Created with Sketch.</desc>
    <defs></defs>
    <g id="Page-1" stroke="none" stroke-width="1" fill="none" fill-rule="evenodd">
        <g id="01-Jobs-Copy" transform="translate(-155.000000, -733.000000)">
            <g id="01--Hero">
                <g id="illustration" transform="translate(10.000000, 370.000000)">
                    <g id="television" transform="translate(207.652344, 402.183594) rotate(-113.000000) translate(-207.652344, -402.183594) translate(190.152344, 341.183594)">
                        <g id="Group-3" fill="#DDD9D7">
                            <path d="M32.4478115,122.000228 L2.43961475,122.000228 C1.09240164,122.000228 -5.73770492e-05,120.91477 -5.73770492e-05,119.576191 L-5.73770492e-05,2.46816262 C-5.73770492e-05,1.12958318 1.09240164,0.0441252336 2.43961475,0.0441252336 L32.4478115,0.0441252336 C33.7955984,0.0441252336 34.8874836,1.12958318 34.8874836,2.46816262 L34.8874836,119.576191 C34.8874836,120.91477 33.7955984,122.000228 32.4478115,122.000228" id="Fill-1"></path>
                        </g>
                        <path d="M20.8805468,60 C20.3938979,60 20,59.6119319 20,59.1337767 C20,38.8445164 26.1092334,28.8280873 26.3698753,28.4123001 C26.6234727,28.0045977 27.1647155,27.8787065 27.5797465,28.1276014 C27.9936035,28.3770737 28.1239244,28.9100898 27.870914,29.3177922 C27.8092757,29.4165417 21.7610935,39.3850398 21.7610935,59.1337767 C21.7610935,59.6119319 21.3671956,60 20.8805468,60" id="Fill-4" fill="#C9C9C9"></path>
                        <path d="M27.1203356,94 C26.8244866,94 26.5356815,93.8533223 26.3695599,93.587108 C26.108931,93.1707511 20,83.1550872 20,62.8662071 C20,62.3880608 20.3944654,62 20.8805032,62 C21.3671279,62 21.7610063,62.3880608 21.7610063,62.8662071 C21.7610063,82.6700112 27.8083021,92.5823077 27.8693503,92.6804779 C28.1241092,93.0881727 27.9949688,93.6217562 27.5805453,93.8718013 C27.4367298,93.9589995 27.2776522,94 27.1203356,94" id="Fill-6" fill="#C9C9C9"></path>
                        <path d="M14.1194684,60 C13.6328279,60 13.2389368,59.6119319 13.2389368,59.1337767 C13.2389368,39.3850398 7.19027171,29.4165417 7.12922152,29.3177922 C6.87621544,28.9100898 7.0059471,28.3770737 7.42038397,28.1276014 C7.83423383,27.8787065 8.37605427,28.0045977 8.63023439,28.4123001 C8.89028473,28.8280873 15,38.8445164 15,59.1337767 C15,59.6119319 14.6061089,60 14.1194684,60" id="Fill-8" fill="#C9C9C9"></path>
                        <path d="M7.87975258,94 C7.72301204,94 7.56392332,93.9584221 7.42009773,93.8718013 C7.00623225,93.6223337 6.87590865,93.0893276 7.12951133,92.6816328 C7.19056382,92.5828852 13.2388703,82.6145739 13.2388703,62.8662071 C13.2388703,62.3880608 13.6333633,62 14.1194351,62 C14.606094,62 15,62.3880608 15,62.8662071 C15,83.1550872 8.89064104,93.1707511 8.62999384,93.587108 C8.46444765,93.8533223 8.17562238,94 7.87975258,94" id="Fill-10" fill="#C9C9C9"></path>
                        <polygon id="Fill-12" fill="#E5E5E4" points="12 52 12.017 105 12.018 105"></polygon>
                        <path d="M11.9752731,105.40159 L11.9654974,52.3962635 L11.9551466,16.5978368 L11.9557217,16.5978368 L11.9551466,12 L9.75618171,12.9836939 C9.31512363,13.1752704 9.03967798,13.6897738 9.03967798,14.2673714 L9.03967798,17.9365782 L9,17.9549328 L9,104.261308 L9.03967798,104.276221 L9.03967798,107.845624 C9.03967798,108.440429 9.27142036,109.12414 9.72282921,109.250328 L11.986199,110 L12,105.411341 L11.9752731,105.40159 Z" id="Fill-14" fill="#353A44"></path>
                        <polygon id="Fill-16" fill="#353A44" points="12.033 16 12 16.0092266 12.017 52"></polygon>
                        <path d="M24.23175,21.7345009 L22.6666667,20.4309949 L22.6666667,20.4378736 L14.5,13.1103818 L13.1414167,12.1124029 C12.0704167,11.6607043 11,12.6265827 11,14.0046075 L11,17.2232468 L11,104.831571 L11,107.994035 C11,109.382951 12.0861667,110.350549 13.1600833,109.879361 L14.5,108.855014 L22.6666667,101.642166 L22.6666667,101.64274 L24.566,99.972945 C24.9031667,99.6777358 25,99.6141082 25,98.7187361 L25,96.90277 L25,96.465402 L25,25.4409518 L25,25.3125501 L25,23.4432745 C25,22.3329442 24.85125,22.2612915 24.23175,21.7345009" id="Fill-18" fill="#4B515A"></path>
                        <path d="M23.8505964,24.2020603 L23.9995631,96.691101 C23.9995631,97.6375732 24.0460407,97.5388159 23.1802464,98.3054698 L13.4449767,106.702128 C12.6024212,107.367742 12,106.839133 12,105.893231 L12,15.0775657 C12,14.1310935 12.6822673,13.7457685 13.4449767,14.1739074 L23.249367,22.6082422 C23.9072038,23.1197254 23.8505964,23.5958158 23.8505964,24.2020603" id="Fill-20" fill="#414B56"></path>
                    </g>
                </g>
            </g>
        </g>
    </g>
</svg>