<?xml version="1.0" encoding="UTF-8"?>
<svg width="38px" height="44px" viewBox="0 0 38 44" version="1.1" xmlns="http://www.w3.org/2000/svg" xmlns:xlink="http://www.w3.org/1999/xlink">
    <!-- Generator: Sketch 50.2 (55047) - http://www.bohemiancoding.com/sketch -->
    <title>woman-02</title>
    <desc>Created with Sketch.</desc>
    <defs>
        <polygon id="path-1" points="33.8889333 0.67451087 33.8889333 34.37875 0.420995556 34.37875 0.420995556 0.67451087"></polygon>
    </defs>
    <g id="Page-1" stroke="none" stroke-width="1" fill="none" fill-rule="evenodd">
        <g id="01-Jobs-Copy" transform="translate(-598.000000, -713.000000)">
            <g id="01--Hero">
                <g id="illustration" transform="translate(10.000000, 370.000000)">
                    <g id="woman-02" transform="translate(588.000000, 343.000000)">
                        <g id="Group-3" transform="translate(4.000000, 4.000000)">
                            <mask id="mask-2" fill="white">
                                <use xlink:href="#path-1"></use>
                            </mask>
                            <g id="Clip-2"></g>
                            <path d="M17.15504,0.67451087 C26.3969956,0.67451087 33.8890844,8.22005435 33.8890844,17.52625 C33.8890844,26.8339674 26.3969956,34.37875 17.15504,34.37875 C7.91308444,34.37875 0.420995556,26.8339674 0.420995556,17.52625 C0.420995556,8.22005435 7.91308444,0.67451087 17.15504,0.67451087" id="Fill-1" fill="#7B7BAF" mask="url(#mask-2)"></path>
                        </g>
                        <path d="M22,0 L19.8553866,6 C19.8553866,6 17.1547033,2.92437583 15.5757197,4.03956097 C15.1590656,4.33337354 14.501023,4.7494874 14.5352795,4.22699313 C14.5814858,3.51344832 14.98858,3.55831625 14.9949533,3.15595224 C14.9997333,2.74490411 14.7973812,2.82957424 14.6794752,3.00108551 C14.3671838,3.45700157 14.3894904,3.92811482 14.1409319,3.85936558 C13.9322065,3.8007478 13.966463,3.10457122 14.1704084,1.94017609 C14.3560306,0.88795079 15.6091795,0.0180919069 16.2058791,0.0180919069 L22,0 Z" id="Fill-4" fill="#EC998D"></path>
                        <path d="M16.0452887,8.16023434 C15.2071885,10.2659166 11.2553623,8.83328697 9.4789968,13.1832437 C8.62211567,15.2820347 9.15502531,16.8693363 9.25988565,18.1779221 C9.43752219,20.395397 9.43752219,22.6044491 9.25988565,24.8226897 C9.15502531,26.1305098 8.62211567,27.7178114 9.4789968,29.8166024 C11.2553623,34.1665591 15.2071885,32.7339295 16.0452887,34.8396118 C16.5946317,36.2194079 17.3161334,28.367893 16.8505222,23.8892982 C16.6846238,22.2943396 16.6846238,20.7047408 16.8505222,19.1105479 C17.3161334,14.6319531 16.5946317,6.78120386 16.0452887,8.16023434" id="Fill-6" fill="#435D6E"></path>
                        <path d="M16,32 L13.344525,30.2246674 C11.7194664,29.1381382 10.021655,28.1550498 8.34982679,27.1334718 C7.793788,26.7934804 8.04619546,25.906616 8.13156857,25.624359 C8.52354251,24.3333538 13.712743,25.4447409 13.712743,25.4447409 L16,32 Z" id="Fill-8" fill="#323E46"></path>
                        <path d="M16,12 L13.344525,13.7753326 C11.7194664,14.8626636 10.021655,15.845752 8.34982679,16.8665282 C7.793788,17.2065196 8.04619546,18.093384 8.13156857,18.375641 C8.52354251,19.6666462 13.712743,18.5552591 13.712743,18.5552591 L16,12 Z" id="Fill-10" fill="#323E46"></path>
                        <path d="M10,22.0003862 C10,23.6507916 8.69552239,25 7.10149254,25 L2.31940299,24.3999228 C1.04328358,24.3999228 0,23.3202471 0,22.0003862 C0,20.6805252 1.04328358,19.6000772 2.31940299,19.6000772 L7.10149254,19 C8.69552239,19 10,20.3499807 10,22.0003862" id="Fill-12" fill="#D7D2CE"></path>
                        <polyline id="Fill-17" fill="#EC998D" points="14 38 14.0189495 38.0252525 18 39"></polyline>
                        <path d="M1.00985955,22.1838405 C0.900105661,24.477984 1.71542027,25.7552473 3.01828107,26.6935504 C3.46252301,27.012481 4.45030802,27.5232323 4.5152644,28.0771239 C4.89231008,31.3018669 6.222796,42.4058913 7.84819885,43.3696165 C9.77673148,44.5120661 20.994027,43.7524873 21,43.7532577 L16.6247769,34.5612763 L11.2543026,36.2183289 C11.2311572,36.0503896 7.96168586,26.6388546 7.56597456,25.8892906 C7.56597456,25.8892906 9.54303783,23.7584642 8.63140858,23.2939348 C8.13788939,23.0420258 8.60079695,25.8268911 5.74644919,25.0688531 C1.91327592,24.0504321 4.9079892,19.4498192 2.76890829,20.0545548 C2.2783756,20.1932203 1.09348156,20.4458997 1.00985955,22.1838405" id="Fill-19" fill="#EC998D"></path>
                        <path d="M7.73372863,19.0917542 C9.34003593,19.4967738 10.313717,21.1275104 9.9079531,22.7338849 C9.50295051,24.3402594 7.87304344,25.3132199 6.26597486,24.9082003 C4.66042884,24.5031808 3.68674779,22.8724442 4.09175038,21.2660697 C4.49751426,19.6604565 6.12742134,18.6867347 7.73372863,19.0917542" id="Fill-21" fill="#D7D2CE"></path>
                        <path d="M7.82679373,19.0015755 C8.58055941,19.0251061 9.2522318,19.3272094 9.72820705,19.7947863 C10.2058407,20.2631223 11.0251152,20.896932 10.9994092,21.5869116 C10.972874,22.2768912 10.1055045,22.8917246 9.59387257,23.3281803 C9.08306986,23.7646361 8.38983762,24.0227143 7.63607194,23.9984245 C6.88230626,23.9741348 6.21063387,23.6727906 5.7338294,23.2052137 C5.25702492,22.7368777 4.97591759,22.1023089 5.00162357,21.4130884 C5.02815878,20.7231088 5.35736117,20.1082754 5.8689931,19.6718197 C6.37979581,19.2353639 7.07302805,18.9772857 7.82679373,19.0015755" id="Fill-23" fill="#1075AD"></path>
                        <g id="Group-27" transform="translate(15.000000, 0.000000)" fill="#435D6E">
                            <path d="M6.959168,0.0531793103 C9.728608,0.0531793103 12.551248,2.51262759 14.683048,6.48855862 C16.813328,10.4652483 18.251248,15.9584207 18.251248,22.0266276 C18.251248,28.0940759 16.813328,33.5872483 14.683048,37.5639379 C12.551248,41.5406276 8.260288,44.0000759 5.490848,44.0000759 C2.721408,44.0000759 2.480488,43.7383517 1.464368,39.7624207 C0.447488,35.785731 0.122968,28.0940759 0.122968,22.0266276 C0.122968,15.9584207 0.447488,10.4652483 1.464368,6.48855862 C2.480488,2.51262759 4.189728,0.0531793103 6.959168,0.0531793103" id="Fill-25"></path>
                        </g>
                        <path d="M21,12 C26.5227017,12 31,16.477002 31,22.0003855 C31,27.522998 26.5227017,32 21,32 C15.4772983,32 11,27.522998 11,22.0003855 C11,16.477002 15.4772983,12 21,12" id="Fill-28" fill="#EC998D"></path>
                        <path d="M11.2324195,21 C11.2324195,21 12,21.3926744 12,22.498788 C12,23.6065176 11.2324195,24 11.2324195,24 C11.2324195,24 10,23.3285753 10,22.499596 C10,21.6714247 11.2324195,21 11.2324195,21" id="Fill-30" fill="#EC998D"></path>
                        <path d="M21.7366974,10.0289543 C20.1863909,10.0665167 18.6701155,10.3717108 17.3466831,10.9429717 C17.19014,11.010271 17.0260343,11.0947863 16.8589037,11.1910398 C14.7988867,12.3766018 13.4905792,14.5919984 13.1343869,17.0030324 C12.9884312,17.9890443 12.9324689,18.9805341 13.1154807,19.6723075 L13.7287971,21.9996087 L13.1154807,24.3276925 C12.9324689,25.0186834 12.9884312,26.0109557 13.1343869,26.9969676 C13.4905792,29.4080016 14.7988867,31.6226157 16.8589037,32.8081776 C17.0260343,32.9052137 17.19014,32.9889465 17.3466831,33.0570283 C18.6701155,33.6282892 20.1863909,33.9334833 21.7366974,33.9710457 C21.8350095,33.9733933 21.9280279,34 22.02634,34 C23.6794961,34 25.2547588,33.6642864 26.6870908,33.0570283 C28.1194227,32.4497701 29.4095802,31.5709674 30.4932823,30.4847892 C31.5762281,29.3993935 32.4527185,28.1066223 33.0592286,26.6706446 C33.6649825,25.2354495 34,23.6570478 34,21.9996087 C34,20.3429522 33.6649825,18.7645505 33.0592286,17.3293554 C32.4527185,15.8933777 31.5762281,14.6006065 30.4932823,13.5144283 C29.4095802,12.4290326 28.1194227,11.5502299 26.6870908,10.9429717 C25.2547588,10.3357136 23.6794961,10 22.02634,10 C21.9280279,10 21.8350095,10.0266067 21.7366974,10.0289543" id="Fill-32" fill="#323E46"></path>
                    </g>
                </g>
            </g>
        </g>
    </g>
</svg>