<?xml version="1.0" encoding="UTF-8"?>
<svg width="48px" height="43px" viewBox="0 0 48 43" version="1.1" xmlns="http://www.w3.org/2000/svg" xmlns:xlink="http://www.w3.org/1999/xlink">
    <!-- Generator: Sketch 50.2 (55047) - http://www.bohemiancoding.com/sketch -->
    <title>woman-03</title>
    <desc>Created with Sketch.</desc>
    <defs>
        <polygon id="path-1" points="18.58428 43 0.45524 43 0.45524 0.0520448276 18.58428 0.0520448276 18.58428 43"></polygon>
    </defs>
    <g id="Page-1" stroke="none" stroke-width="1" fill="none" fill-rule="evenodd">
        <g id="01-Jobs-Copy" transform="translate(-462.000000, -779.000000)">
            <g id="01--Hero">
                <g id="illustration" transform="translate(10.000000, 370.000000)">
                    <g id="woman-03" transform="translate(452.000000, 409.000000)">
                        <path d="M21.2474166,20.7205521 C24.5755831,20.7205521 25,20.0557529 25,18.5 C25,16.9442471 24.5755831,16.2794479 21.2474166,16.2794479 C19.6464423,16.2794479 15,16 15,16 L15,21 C15,21 19.6464423,20.7205521 21.2474166,20.7205521" id="Fill-1" fill="#DE877C"></path>
                        <path d="M11,18.5 C11,19.9614649 12.5010412,20.6617928 15,21 L15,16 C12.5010412,16.3382072 11,17.0378519 11,18.5" id="Fill-3" fill="#313E45"></path>
                        <path d="M20.931119,24.9997513 C18.1696138,24.9686774 15.962178,22.0340882 16.0004913,18.4439154 C16.0380678,14.8545005 18.3073944,11.9691747 21.0681628,12.0002487 C23.829668,12.0313226 26.0371038,14.9659118 25.9995273,18.5560846 C25.961214,22.1454995 23.6926242,25.0308253 20.931119,24.9997513" id="Fill-5" fill="#80989D"></path>
                        <path d="M33.0001539,31.2887972 L33.0074037,30.5966125 C33.0233533,29.1530432 34.1644768,27.9842226 35.5441197,28.0001611 L40.5196789,28.0563252 C41.8985968,28.0722637 43.0150708,29.2661304 42.9998461,30.7104587 L42.9925963,31.4018843 C42.9766467,32.8469716 41.8355232,34.0150332 40.4558803,33.9998537 L35.4803211,33.9436896 C34.1014032,33.9277511 32.9849292,32.7331254 33.0001539,31.2887972" id="Fill-7" fill="#323E46"></path>
                        <path d="M36.9318372,35.9997513 C34.170332,35.9686774 31.9628962,33.0340882 32.0004727,29.4446733 C32.038786,25.8545005 34.3073758,22.9691747 37.068881,23.0002487 C39.8303862,23.0313226 42.037822,25.9659118 41.9995087,29.5560846 C41.9619322,33.1454995 39.6933424,36.0308253 36.9318372,35.9997513" id="Fill-9" fill="#80989D"></path>
                        <path d="M30,43 L27.6602209,39.8572262 L25.3211891,36.7152105 L16.0510006,38.1804738 C16.0510006,38.1804738 9.77447399,35.393972 6.98930734,33.9544816 C5.91768701,33.4003649 5.54777623,31.0224389 4.98282157,30.5585273 C4.45224247,30.1241787 3.76398422,29.5746102 3.19006204,29.2016616 C2.61688714,28.8287131 2.15879561,28.6316265 2.08854992,28.9014835 C1.99289623,29.270642 2.2417453,29.5890127 2.49358355,29.8634179 C2.74616909,30.1385812 3.00099652,30.3690209 2.91729954,30.5623174 C2.83136067,30.7601621 2.65350458,30.7669843 2.46369177,30.6828435 C2.27462626,30.5994607 2.07435133,30.4243568 1.94432208,30.2598653 C1.59981931,29.8224845 1.57665318,29.3373482 1.5467614,28.9249823 C1.51612233,28.5118584 1.4787576,28.172263 1.10735223,28.0282382 C0.79498312,27.9069541 0.505032849,28.1866655 0.299526858,28.6695277 C0.0947681611,29.153148 -0.0247989611,29.8399191 0.00434552495,30.5335125 C0.0297535384,31.1596415 0.213587989,31.8115435 0.605170314,32.4134157 C0.99525805,33.01453 1.59384096,34.2978671 2.44949317,34.7231195 L4.82290055,36.4423213 L13.1066602,42.4436093 C13.6514379,42.8006393 14.285891,42.9909037 14.9345426,42.9909037 L30,43 Z" id="Fill-11" fill="#E29388"></path>
                        <path d="M32,0 L27.4024191,6 C27.4024191,6 21.6830624,2.92437583 18.3370494,4.03956097 C17.4547712,4.33337354 16.062595,4.7494874 16.1344443,4.22699313 C16.2333336,3.51344832 17.0955249,3.55831625 17.1071135,3.15595224 C17.1187021,2.74490411 16.6899241,2.82957424 16.4396105,3.00108551 C15.7782882,3.45700157 15.8246426,4.62718611 15.2985205,4.55771318 C14.8566088,4.49981908 14.9284581,3.10457122 15.3618714,1.94017609 C15.7535659,0.88795079 16.550861,0.0180919069 17.8147902,0.0180919069 L32,0 Z" id="Fill-13" fill="#E29388"></path>
                        <g id="Group-17" transform="translate(23.000000, 0.000000)">
                            <mask id="mask-2" fill="white">
                                <use xlink:href="#path-1"></use>
                            </mask>
                            <g id="Clip-16"></g>
                            <path d="M8.75976,0.0520448276 C14.29864,0.0520448276 18.58428,9.66625172 18.58428,21.5260966 C18.58428,33.3859414 12.83032,43.0001483 7.29144,43.0001483 C1.75256,43.0001483 0.45524,33.3859414 0.45524,21.5260966 C0.45524,9.66625172 3.22088,0.0520448276 8.75976,0.0520448276" id="Fill-15" fill="#706CC1" mask="url(#mask-2)"></path>
                        </g>
                        <path d="M25.3342243,8.15644685 C24.6116575,10.233046 20.2443329,8.67374385 18.4768473,12.8840078 C17.6242496,14.9161401 18.1544953,16.4517266 18.2588315,17.7175479 C18.43558,19.8645528 18.43558,22.0026643 18.2588315,24.1496692 C18.1537167,25.4154905 17.6242496,26.9518181 18.4768473,28.9832093 C20.2443329,33.1934732 24.1764044,31.8068505 25.010315,33.8449117 C25.5569119,35.1796566 26.2748069,27.5810232 25.8107446,23.2455111 C25.6456755,21.7025135 25.6456755,20.1639625 25.8107446,18.621706 C26.2748069,14.2861939 25.7959507,6.82688981 25.3342243,8.15644685" id="Fill-18" fill="#706CC1"></path>
                        <path d="M28.9561609,10 C32.2818376,10 35.2922384,11.286944 37.472338,13.3681036 C39.6516922,15.4492631 41,18.3246381 41,21.5 C41,24.6761119 39.6516922,27.5507369 37.472338,29.6318964 C35.2922384,31.713056 32.2818376,33 28.9561609,33 C25.6304841,33 19,29.6318964 19,29.6318964 C19,29.6318964 19.0722973,24.6761119 19.0722973,21.5 C19.0722973,18.3246381 19,13.3681036 19,13.3681036 C19,13.3681036 25.6304841,10 28.9561609,10" id="Fill-20" fill="#313E45"></path>
                        <path d="M18.2324195,20 C18.2324195,20 19,20.3926744 19,21.498788 C19,22.6065176 18.2324195,23 18.2324195,23 C18.2324195,23 17,22.3285753 17,21.499596 C17,20.6714247 18.2324195,20 18.2324195,20" id="Fill-22" fill="#E29388"></path>
                        <path d="M28,12 C33.5227017,12 38,16.2529879 38,21.5 C38,26.7470121 33.5227017,31 28,31 C22.4772983,31 18,26.7470121 18,21.5 C18,16.2529879 22.4772983,12 28,12" id="Fill-24" fill="#E29388"></path>
                        <path d="M29.7365157,10.0277488 C28.1861862,10.0629973 26.6698884,10.3562345 25.3456801,10.9037107 C25.1898909,10.9682079 25.0257829,11.0492044 24.8586498,11.1414504 C22.7986022,12.277651 21.4902754,14.4000587 21.1340778,16.7114582 C20.9881199,17.6564171 20.932913,18.6066258 21.1151713,19.268847 L21.7284968,21.5 L21.1151713,23.731153 C20.932913,24.3933742 20.9881199,25.3435829 21.1340778,26.2892918 C21.4902754,28.5999413 22.7986022,30.722349 24.8586498,31.8585496 C25.0257829,31.9507956 25.1898909,32.0317921 25.3456801,32.0962893 C26.6698884,32.6437655 28.1861862,32.9362528 29.7365157,32.9730012 C29.8348293,32.9752511 29.9278491,33 30.0261626,33 C31.6793432,33 33.253873,32.678264 34.6869824,32.0962893 C36.1193356,31.5143146 37.4095122,30.6728512 38.4932303,29.6318964 C39.5761922,28.5909417 40.4526956,27.3527455 41.0592147,25.9765554 C41.6649776,24.6003652 42,23.087681 42,21.5 C42,19.912319 41.6649776,18.3996348 41.0592147,17.0241946 C40.4526956,15.6480044 39.5761922,14.4083083 38.4932303,13.3681036 C37.4095122,12.3278988 36.1193356,11.4856854 34.6869824,10.9037107 C33.253873,10.321736 31.6793432,10 30.0261626,10 C29.9278491,10 29.8348293,10.0254989 29.7365157,10.0277488" id="Fill-26" fill="#313E45"></path>
                        <path d="M40,19 C40.5523673,19 41,20.1190126 41,21.4995913 C41,22.8809874 40.5523673,24 40,24 C39.4476327,24 39,22.8809874 39,21.4995913 C39,20.1190126 39.4476327,19 40,19" id="Fill-28" fill="#455660"></path>
                        <path d="M42.7642864,19 C43.7059998,19 45.8450128,20.0860056 47.3998288,20.9506239 C48.2000571,21.3958138 48.2000571,22.6033812 47.3998288,23.048571 C45.8450128,23.9139944 43.7059998,25 42.7642864,25 C41.198821,25 40,24.0452167 40,21.9995975 C40,19.9547833 41.198821,19 42.7642864,19" id="Fill-30" fill="#323E46"></path>
                    </g>
                </g>
            </g>
        </g>
    </g>
</svg>