<?xml version="1.0" encoding="UTF-8"?>
<svg width="40px" height="41px" viewBox="0 0 40 41" version="1.1" xmlns="http://www.w3.org/2000/svg" xmlns:xlink="http://www.w3.org/1999/xlink">
    <!-- Generator: Sketch 50.2 (55047) - http://www.bohemiancoding.com/sketch -->
    <title>woman-05</title>
    <desc>Created with Sketch.</desc>
    <defs>
        <polygon id="path-1" points="6.83135404 10 0.414737976 10 0.414737976 0.123453243 6.83135404 0.123453243"></polygon>
        <polygon id="path-3" points="6.6472 8.34206333 6.6472 0.560175 0.63434 0.560175 0.63434 8.34206333 6.6472 8.34206333"></polygon>
        <polygon id="path-5" points="0 17.9147592 0 0.375874815 38.9667208 0.375874815 38.9667208 17.9147592"></polygon>
    </defs>
    <g id="Page-1" stroke="none" stroke-width="1" fill="none" fill-rule="evenodd">
        <g id="01-Jobs-Copy" transform="translate(-1020.000000, -713.000000)">
            <g id="01--Hero">
                <g id="illustration" transform="translate(10.000000, 370.000000)">
                    <g id="woman-05" transform="translate(1010.000000, 343.000000)">
                        <g id="Group-3" transform="translate(20.000000, 31.000000)">
                            <mask id="mask-2" fill="white">
                                <use xlink:href="#path-1"></use>
                            </mask>
                            <g id="Clip-2"></g>
                            <path d="M2.94132222,9.95521429 L3.6491,9.99592857 C5.1261,10.0787857 6.40865556,9.03735714 6.49965556,7.68021429 L6.82632222,2.78664286 C6.91654444,1.4295 5.78254444,0.251642857 4.30476667,0.168785714 L3.59854444,0.128071429 C2.12076667,0.0452142857 0.837433333,1.08735714 0.746433333,2.44378571 L0.419766667,7.33735714 C0.329544444,8.69378571 1.46432222,9.87235714 2.94132222,9.95521429" id="Fill-1" fill="#323E46" mask="url(#mask-2)"></path>
                        </g>
                        <path d="M17.0071545,31.6143459 C16.8468506,34.3669149 19.3998126,36.7721008 22.7094929,36.9847993 C26.0191733,37.1982338 28.8318416,35.1389589 28.9928455,32.38639 C29.1531494,29.633085 26.6001874,27.2278991 23.2905071,27.0152006 C19.9808267,26.8017661 17.1674584,28.861041 17.0071545,31.6143459" id="Fill-4" fill="#1D305F"></path>
                        <path d="M2.91126464,19.0072641 L3.43067641,19.4233918 C4.51583596,20.292385 6.15553297,20.1645087 7.0747797,19.1386729 L10.3900468,15.437327 C11.3092935,14.4114911 11.1740222,12.8614332 10.0888627,11.9917335 L9.5694509,11.5763124 C8.48354399,10.7073192 6.84309963,10.8359019 5.9238529,11.8617378 L2.6093332,15.5616707 C1.69083383,16.5875066 1.82610509,18.1382709 2.91126464,19.0072641" id="Fill-6" fill="#323E46"></path>
                        <path d="M2.11862644,15.472651 C1.46631809,18.1008559 3.56969416,20.9150324 6.81850106,21.7595024 C10.0666005,22.6032488 13.2283858,21.1559994 13.8814016,18.5277945 C14.53371,15.8995895 12.4296264,13.0839658 9.18152699,12.2402194 C5.93413507,11.3971967 2.77164229,12.8437224 2.11862644,15.472651" id="Fill-8" fill="#1D305F"></path>
                        <g id="Group-12" transform="translate(33.000000, 19.000000)">
                            <mask id="mask-4" fill="white">
                                <use xlink:href="#path-3"></use>
                            </mask>
                            <g id="Clip-11"></g>
                            <path d="M6.27914,0.560175 L0.63434,3.042675 C0.63434,3.042675 3.78014,5.336925 2.80924,6.907425 C2.55304,7.321425 2.19464,7.970925 2.69654,7.897425 C3.38184,7.797675 3.31184,7.419675 3.69894,7.382925 C4.09514,7.346175 4.02794,7.542675 3.86904,7.667175 C3.45114,7.995675 2.99474,8.012175 3.07804,8.239425 C3.14804,8.430675 3.81654,8.345175 4.92674,8.061675 C5.92914,7.805925 6.68584,6.561675 6.64594,6.001425 L6.27914,0.560175 Z" id="Fill-10" fill="#EC998D" mask="url(#mask-4)"></path>
                        </g>
                        <path d="M0,23 L2.23805458,25.3519874 L7.25766043,27.7664495 L9.01556628,35.4537734 L27.8255908,33.832372 C27.8255908,33.832372 27.0805324,32.2219956 27.7600832,32.3932497 C28.3971621,32.5542139 29.93407,32.5042341 29.9981378,33.9139566 C30.0629255,35.3229441 28.4223573,36.7980812 27.3922332,36.9803602 C26.362109,37.1619042 23.2710165,36.7047367 23.2710165,36.7047367 L9.13074439,39.8718347 C7.33900497,40.3128324 5.35794154,39.6028262 4.49050642,37.941735 C4.41420093,37.7969408 4.35445229,37.6550866 4.31413995,37.5205823 L0,23 Z" id="Fill-13" fill="#EC998D"></path>
                        <g id="Group-17" transform="translate(0.000000, 10.000000)">
                            <mask id="mask-6" fill="white">
                                <use xlink:href="#path-5"></use>
                            </mask>
                            <g id="Clip-16"></g>
                            <path d="M0.0179833333,12.509136 C-0.378516667,7.276896 5.76542778,1.347696 17.2855944,0.479376 C28.8064833,-0.388944 38.5572056,4.342176 38.9544278,9.575136 C39.3509278,14.807376 30.1050389,16.736256 18.58415,17.604576 C7.06398333,18.472896 0.414483333,17.742096 0.0179833333,12.509136" id="Fill-15" fill="#212328" mask="url(#mask-6)"></path>
                        </g>
                        <path d="M6.16259957,26.6168245 C8.24505217,27.2114039 7.20382587,31.4564238 11.5104146,32.7257816 C13.5884396,33.3376452 15.0753786,32.7603501 16.3247026,32.5792109 C18.4440519,32.272242 20.567091,32.1208317 22.7107922,32.127054 C23.9756128,32.1305109 25.5385591,32.4914067 27.4948248,31.5933153 C31.5490398,29.7328351 29.8908998,26.3485725 31.8552828,25.467074 C33.1415035,24.889779 25.5459385,24.787456 21.2747706,25.5037167 C19.7538866,25.7581413 18.2263611,25.8659953 16.6826011,25.8286612 C12.3450191,25.7228814 4.79815774,26.2268911 6.16259957,26.6168245" id="Fill-18" fill="#212328"></path>
                        <polygon id="Fill-20" fill="#579AD4" points="8.26873385 35 28 33.5213638 27.7312661 30 8 31.4786362"></polygon>
                        <polygon id="Fill-22" fill="#F6FAFD" points="9.20946683 35 28 33.6439174 27.7905332 31 9 32.3554001"></polygon>
                        <path d="M28,31 L9,32" id="Stroke-24" stroke="#C5CCDE" stroke-width="0.341"></path>
                        <path d="M28,32 L9,33" id="Stroke-26" stroke="#C5CCDE" stroke-width="0.341"></path>
                        <path d="M28,32 L9,33" id="Stroke-28" stroke="#C5CCDE" stroke-width="0.341"></path>
                        <path d="M28,33 L9,34" id="Stroke-30" stroke="#C5CCDE" stroke-width="0.341"></path>
                        <path d="M7.16934451,19.2042619 C6.64022419,16.0912709 7.37854833,13.0730631 8.99969821,10.7091422 C10.6208481,8.34522127 13.1248237,6.6362946 16.1270064,6.14257323 C19.1299079,5.64885187 22.062356,6.46370432 24.3765385,8.17970436 C26.6907209,9.89641175 28.3866378,12.5142667 28.9157581,15.6272577 C29.4441595,18.7409561 27.3140189,25.4705622 27.3140189,25.4705622 C27.3140189,25.4705622 22.6166383,26.1736554 19.6144556,26.6673767 C16.611554,27.1610981 11.9371787,28 11.9371787,28 C11.9371787,28 7.69774591,22.3172529 7.16934451,19.2042619" id="Fill-32" fill="#313E45"></path>
                        <path d="M19,28.0229407 C19,28.0229407 19.2621518,27.2078182 20.3689241,27.0294855 C21.4756963,26.8511528 22,27.540022 22,27.540022 C22,27.540022 21.5387766,28.855423 20.7097215,28.988778 C19.8806663,29.122133 19,28.0229407 19,28.0229407" id="Fill-34" fill="#E29388"></path>
                        <path d="M9.13854572,20.0254106 C8.2508121,14.847208 11.721975,9.96647207 16.8917608,9.12471989 C22.0622786,8.28225436 26.9737215,11.7969264 27.8614551,16.975129 C28.7491888,22.1519049 25.2780259,27.0326408 20.1075082,27.8751064 C14.9377223,28.7182852 10.0262793,25.2028999 9.13854572,20.0254106" id="Fill-36" fill="#E29388"></path>
                        <path d="M7.23355021,19.150592 C7.50960168,20.5659721 8.02298573,21.9097052 8.74573869,23.0370923 C8.83178071,23.1712549 8.93288008,23.3082271 9.04616874,23.4473067 C10.4400494,25.1591088 12.6455932,26.0301119 14.8805346,25.9992054 C15.7947311,25.9865618 16.6996063,25.8910324 17.2961643,25.6220048 L19.3030944,24.7151782 L21.502902,24.9322265 C22.1561044,24.9975518 23.0437712,24.7994688 23.9127956,24.5206073 C26.0358824,23.8371508 27.8327266,22.3107881 28.5820092,20.247775 C28.6429556,20.0798962 28.6938638,19.9183391 28.7304316,19.7645087 C29.0394659,18.4671355 29.0781848,17.03279 28.8702499,15.607576 C28.8566266,15.5169636 28.8659478,15.427756 28.8508905,15.337846 C28.5927644,13.8234245 28.0428125,12.4305219 27.2698684,11.206903 C26.4976412,9.98539131 25.5017049,8.93316333 24.3508929,8.10149582 C23.2007979,7.26982832 21.8951102,6.65801886 20.5026636,6.31523698 C19.1102169,5.9724551 17.6317282,5.89940322 16.1345971,6.14454846 C14.6374659,6.3896937 13.2636617,6.93055855 12.0605075,7.69760324 C10.8580703,8.46535036 9.82628305,9.45997974 9.01462,10.6133565 C8.20295695,11.7660308 7.61070106,13.0781549 7.28589243,14.4801889 C6.96108381,15.8829254 6.90372247,17.3755719 7.16184852,18.8892911 C7.17690588,18.9799035 7.2163418,19.0613844 7.23355021,19.150592" id="Fill-38" fill="#313E45"></path>
                        <path d="M15.0058797,7.34453426 C14.9219237,6.82551337 15.7469402,6.25117578 16.8482842,6.0613234 C17.9496283,5.87147102 18.9101643,6.13712776 18.9941203,6.65546574 C19.0780763,7.17380371 18.2530598,7.74882422 17.1517158,7.9386766 C16.0503717,8.12852898 15.0898357,7.86287224 15.0058797,7.34453426" id="Fill-40" fill="#455660"></path>
                        <path d="M14.0205148,5.67236591 C13.8829083,4.73855336 14.4648832,2.44987204 14.9501979,0.774052957 C15.1999034,-0.0879278568 16.1933554,-0.276677202 16.6753138,0.44546098 C17.6130519,1.85076481 18.8172768,3.80015581 18.9542121,4.73320419 C19.1817663,6.28446399 18.5715988,7.62252109 16.889443,7.94194305 C15.2079584,8.26212919 14.248069,7.22362571 14.0205148,5.67236591" id="Fill-42" fill="#323E46"></path>
                    </g>
                </g>
            </g>
        </g>
    </g>
</svg>