<?xml version="1.0" encoding="UTF-8"?>
<svg width="45px" height="60px" viewBox="0 0 45 60" version="1.1" xmlns="http://www.w3.org/2000/svg" xmlns:xlink="http://www.w3.org/1999/xlink">
    <!-- Generator: Sketch 50.2 (55047) - http://www.bohemiancoding.com/sketch -->
    <title>woman-04</title>
    <desc>Created with Sketch.</desc>
    <defs>
        <polygon id="path-1" points="0.186794121 0.1176 35.6282459 0.1176 35.6282459 35.5584523 0.186794121 35.5584523"></polygon>
        <polygon id="path-3" points="9.92568979 46 0.133916667 46 0.133916667 0.554855172 9.92568979 0.554855172 9.92568979 46"></polygon>
    </defs>
    <g id="Page-1" stroke="none" stroke-width="1" fill="none" fill-rule="evenodd">
        <g id="01-Jobs-Copy" transform="translate(-681.000000, -820.000000)">
            <g id="01--Hero">
                <g id="illustration" transform="translate(10.000000, 370.000000)">
                    <g id="woman-04" transform="translate(690.000000, 477.000000) rotate(32.000000) translate(-690.000000, -477.000000) translate(669.000000, 452.000000)">
                        <path d="M18.8980639,28.5335508 C16.864505,25.5843263 15.9285539,25.6201879 14.3443179,26.5861115 C12.7600819,27.5520352 12.3430904,28.3402101 14.3766493,31.2902142 C15.3548798,32.709085 17.9090562,37 17.9090562,37 L23,33.8964149 C23,33.8964149 19.8762944,29.9524216 18.8980639,28.5335508" id="Fill-1" fill="#EC998D"></path>
                        <path d="M22.8923412,38.6535411 C24.4378802,37.7537534 24.1675185,35.9240305 23.2866905,34 L18,37.0773667 C19.5963394,38.5847429 21.3468022,39.5533288 22.8923412,38.6535411" id="Fill-3" fill="#323E46"></path>
                        <path d="M32.8978095,19.5333712 C30.8641246,16.5843558 29.9281155,16.6202148 28.3437812,17.58607 C26.760276,18.5519252 26.3432586,19.3408238 28.3761146,22.2898393 C29.3552348,23.7086096 31.9095696,28 31.9095696,28 L37,24.8958553 C37,24.8958553 33.8769298,20.9529211 32.8978095,19.5333712" id="Fill-5" fill="#EC998D"></path>
                        <path d="M36.8923412,29.6535411 C38.4378802,28.7537534 38.1675185,26.9240305 37.2866905,25 L32,28.0773667 C33.5963394,29.5847429 35.3468022,30.5533288 36.8923412,29.6535411" id="Fill-7" fill="#323E46"></path>
                        <g id="Group-11" transform="translate(1.000000, 0.000000)">
                            <mask id="mask-2" fill="white">
                                <use xlink:href="#path-1"></use>
                            </mask>
                            <g id="Clip-10"></g>
                            <path d="M3.03992,27.47688 C-2.28328,19.26568 0.05752,8.29368 8.26872,2.97048 C16.47912,-2.35272 27.45192,-0.01192 32.77512,8.19848 C38.09832,16.41048 35.75752,27.38168 27.54632,32.70568 C19.33512,38.02808 8.36312,35.68808 3.03992,27.47688" id="Fill-9" fill="#4C515B" mask="url(#mask-2)"></path>
                        </g>
                        <path d="M1,28.1546744 L4.45990637,28.8787301 L10.4852569,27.9060577 L15.9723471,34.1392331 C15.9723471,34.1392331 29.4628949,25.0098348 31.3911337,23.7845097 C32.4724039,23.0975851 34.3214868,20.4927603 35.0425974,20.2199277 C35.7201723,19.9640462 36.0652923,20.0019845 36.0652923,20.0019845 C36.0652923,20.0019845 38.1162228,22.3824085 36.1420735,23.970165 L32.7352016,27.0431641 L17.8253878,40.3635293 C16.4631139,41.8939748 14.2317078,42.4977582 12.4372426,41.5371938 C12.2797222,41.4532453 12.1396162,41.362032 12.0216738,41.2659756 L1,28.1546744 Z" id="Fill-12" fill="#DE877C"></path>
                        <g id="Group-16" transform="translate(32.000000, 4.000000)">
                            <mask id="mask-4" fill="white">
                                <use xlink:href="#path-3"></use>
                            </mask>
                            <g id="Clip-15"></g>
                            <path d="M5.11891667,0.554855172 L3.63975,4.42678621 L0.133916667,9.54864828 L3.29308333,18.4107862 C3.29308333,18.4107862 3.57808333,24.6279241 5.65058333,32.9269586 C5.96058333,34.1689586 3.39308333,36.8758207 3.27725,37.7942345 C3.16891667,38.6563379 3.75808333,40.8127862 3.74891667,41.6804414 C3.73975,42.5480966 3.84558333,43.1738552 4.19725,43.0691655 C4.67725,42.9264069 4.85641667,42.4449931 4.98391667,41.9897517 C5.11225,41.5345103 5.00975,39.7801655 5.28475,39.7413034 C5.56641667,39.7016483 5.73641667,40.9135103 6.66808333,42.3299931 C7.62141667,43.7805793 9.02058333,46.4136828 9.77975,45.9449586 C10.5389167,45.4762345 8.06975,42.1023724 8.46308333,41.279131 C8.85725,40.4558897 9.86558333,38.9545448 9.73225,37.7482345 C9.73225,37.7482345 10.1239167,36.4872 9.23725,33.5360621 C10.7264167,22.9750966 8.81141667,16.9038897 8.81141667,16.9038897 C8.81058333,16.2154759 5.11891667,0.554855172 5.11891667,0.554855172" id="Fill-14" fill="#EC998D" mask="url(#mask-4)"></path>
                        </g>
                        <g id="Group-19" fill="#435D6E">
                            <path d="M1.21346667,26.4403973 C-1.92549167,21.6475595 0.861966667,12.7868838 11.4885083,5.96561351 C22.1142583,-0.854872973 33.9892583,-1.40508919 37.1282167,3.38774865 C40.2663833,8.18137027 32.3877167,14.8325595 21.761175,21.6538297 C11.1346333,28.4743162 4.35163333,31.2332351 1.21346667,26.4403973" id="Fill-17"></path>
                        </g>
                        <path d="M9.20964631,28.5102021 C11.4819299,28.0406639 12.8209261,32.8115492 17.5392563,31.8787648 C19.8170437,31.4281026 20.8926437,30.0926322 21.9627399,29.2731033 C23.7766355,27.8841512 25.6801645,26.6493524 27.6882656,25.5600553 C28.8723692,24.917488 30.5313721,24.4801962 31.8711545,22.5839542 C34.6482154,18.6554062 31.2539426,16.1236754 32.6102364,14.2400173 C33.4987072,13.0067914 26.3398344,16.7843321 22.7348446,19.6802106 C21.4516727,20.711307 20.0827987,21.5992611 18.6180013,22.3503648 C14.504303,24.4605338 7.72126122,28.8185086 9.20964631,28.5102021" id="Fill-20" fill="#435D6E"></path>
                        <path d="M24.0021901,27.642328 C24.0021901,27.642328 23.9267616,26.8442883 24.6612308,26.2912282 C25.3963392,25.7381681 25.9940143,26.1427557 25.9940143,26.1427557 C25.9940143,26.1427557 26.0873411,27.4441172 25.5369686,27.8590979 C24.9872354,28.2733362 24.0021901,27.642328 24.0021901,27.642328" id="Fill-22" fill="#EC998D"></path>
                        <path d="M10.7621298,24.102483 C7.5479241,19.1988214 8.85351952,12.7156646 13.6792443,9.62099747 C18.5057721,6.52712448 25.0233109,7.99385534 28.2375166,12.897517 C31.4525252,17.8011786 30.1461269,24.2843354 25.3204021,27.3790025 C20.4946773,30.4728755 13.9763355,29.0061447 10.7621298,24.102483" id="Fill-24" fill="#EC998D"></path>
                        <path d="M8.22593902,24.4586467 C9.12558094,25.8133552 10.2308553,26.9889287 11.4490717,27.8462176 C11.5931702,27.9469811 11.7551836,28.0453454 11.9296596,28.1405109 C14.0740009,29.3088869 16.6568689,29.2393122 18.8705333,28.2148839 C19.7756276,27.7958359 20.635545,27.2936181 21.1106806,26.7474163 L22.7105633,24.9088833 L24.999003,24.1595552 C25.6782132,23.9372359 26.4750389,23.3366538 27.2173409,22.6584998 C29.031424,21.0023007 30.148382,18.6103686 29.9840318,16.1232709 C29.9707903,15.9209443 29.9497598,15.7282143 29.9186033,15.5522781 C29.6537737,14.0608192 29.0586859,12.545369 28.2213568,11.1482759 C28.1691698,11.0603079 28.1387923,10.9627432 28.0834896,10.8755749 C27.1573647,9.40890701 25.994451,8.19814629 24.6843231,7.26408519 C23.3749741,6.3316235 21.918411,5.674262 20.4042086,5.3167917 C18.8900061,4.9593214 17.3189431,4.90014287 15.7805944,5.16084828 C14.2422456,5.42075398 12.7366112,6.00134333 11.3524868,6.92260908 C9.96836236,7.84387483 8.83816287,9.01784889 7.97902432,10.3533643 C7.11910685,11.6896795 6.53025033,13.1859366 6.23036969,14.7509688 C5.93126796,16.316001 5.92036321,17.9498082 6.21557039,19.5580247 C6.51077756,21.167041 7.11287557,22.7512662 8.03900044,24.217934 C8.09430311,24.3051024 8.16907854,24.3730777 8.22593902,24.4586467" id="Fill-26" fill="#323E46"></path>
                        <path d="M14,6.49960825 C14,8.98485244 11.9856359,11 9.49960825,11 C7.01436406,11 5,8.98485244 5,6.49960825 C5,4.01436406 7.01436406,2 9.49960825,2 C11.9856359,2 14,4.01436406 14,6.49960825" id="Fill-28" fill="#323E46"></path>
                    </g>
                </g>
            </g>
        </g>
    </g>
</svg>