<?xml version="1.0" encoding="UTF-8"?>
<svg width="51px" height="74px" viewBox="0 0 51 74" version="1.1" xmlns="http://www.w3.org/2000/svg" xmlns:xlink="http://www.w3.org/1999/xlink">
    <!-- Generator: Sketch 50.2 (55047) - http://www.bohemiancoding.com/sketch -->
    <title>woman-relaxing</title>
    <desc>Created with Sketch.</desc>
    <defs>
        <polygon id="path-1" points="0 51.8491333 0 0.370450883 46.6079398 0.370450883 46.6079398 51.8491333 6.15382814e-15 51.8491333"></polygon>
        <polygon id="path-3" points="0 32.8914944 0 0.0401612903 46.6078857 0.0401612903 46.6078857 83 0 83 0 32.8914944 46.6077514 32.8914944 46.6077514 0.0402282258 -0.000134285714 0.0402282258 -0.000134285714 32.8914944"></polygon>
        <polygon id="path-5" points="4.6695625 3 0.0958125 3 0.0958125 0.11892 4.6695625 0.11892"></polygon>
        <polygon id="path-7" points="4.852625 3 0.278875 3 0.278875 0.11892 4.852625 0.11892 4.852625 3"></polygon>
    </defs>
    <g id="Page-1" stroke="none" stroke-width="1" fill="none" fill-rule="evenodd">
        <g id="01-Jobs-Copy" transform="translate(-155.000000, -659.000000)">
            <g id="01--Hero">
                <g id="illustration" transform="translate(10.000000, 370.000000)">
                    <g id="woman-relaxing" transform="translate(174.500000, 321.000000) rotate(-19.000000) translate(-174.500000, -321.000000) translate(151.000000, 279.000000)">
                        <g id="Group-3" transform="translate(0.000000, 12.000000)">
                            <mask id="mask-2" fill="white">
                                <use xlink:href="#path-1"></use>
                            </mask>
                            <g id="Clip-2"></g>
                            <path d="M-0.000134285714,11.3451333 C-0.000134285714,38.7891333 6.83165143,51.8491333 23.5072514,51.8491333 C45.6805086,51.8491333 46.5056943,26.2698 46.6077514,9.58646667 C46.6614657,0.751133333 35.2169657,0.372466667 23.5072514,0.372466667 C11.7961943,0.372466667 -0.000134285714,-0.0502 -0.000134285714,11.3451333" id="Fill-1" fill="#D7D2CE" mask="url(#mask-2)"></path>
                        </g>
                        <g id="Group-6">
                            <mask id="mask-4" fill="white">
                                <use xlink:href="#path-3"></use>
                            </mask>
                            <g id="Clip-5"></g>
                            <path d="M-0.000134285714,21.6737766 C-0.000134285714,30.7462121 10.4331943,32.8914944 23.3038086,32.8914944 C36.1737514,32.8914944 46.6077514,30.7462121 46.6077514,21.6737766 C46.6077514,12.6020105 36.1737514,0.0402282258 23.3038086,0.0402282258 C10.4331943,0.0402282258 -0.000134285714,12.6020105 -0.000134285714,21.6737766" id="Fill-4" fill="#D7D2CE" mask="url(#mask-4)"></path>
                        </g>
                        <path d="M18.2765405,74.3777401 C18.2765405,71.9817699 18.055882,71 16.4996584,71 C14.944118,71 14.7241426,71.9817699 14.7241426,74.3777401 C14.7241426,75.5302236 14,80 14,80 L19,80 C19,80 18.2765405,75.5302236 18.2765405,74.3777401" id="Fill-7" fill="#333333"></path>
                        <g id="Group-11" transform="translate(14.000000, 80.000000)">
                            <mask id="mask-6" fill="white">
                                <use xlink:href="#path-5"></use>
                            </mask>
                            <g id="Clip-10"></g>
                            <path d="M2.3826875,3.00012 C3.7201875,3.00012 4.3601875,1.70592 4.6695625,0.11892 L0.0958125,0.11892 C0.4051875,1.70592 1.0458125,3.00012 2.3826875,3.00012" id="Fill-9" fill="#333333" mask="url(#mask-6)"></path>
                        </g>
                        <path d="M30.2758574,74.3777401 C30.2758574,71.9817699 30.055882,71 28.4996584,71 C26.944118,71 26.7241426,71.9817699 26.7241426,74.3777401 C26.7241426,75.5302236 26,80 26,80 L31,80 C31,80 30.2758574,75.5302236 30.2758574,74.3777401" id="Fill-12" fill="#333333"></path>
                        <g id="Group-16" transform="translate(26.000000, 80.000000)">
                            <mask id="mask-8" fill="white">
                                <use xlink:href="#path-7"></use>
                            </mask>
                            <g id="Clip-15"></g>
                            <path d="M2.56575,3.00012 C3.90325,3.00012 4.54325,1.70592 4.852625,0.11892 L0.278875,0.11892 C0.58825,1.70592 1.22825,3.00012 2.56575,3.00012" id="Fill-14" fill="#333333" mask="url(#mask-8)"></path>
                        </g>
                        <path d="M35,45 L32.4026881,50.3653757 L29.8047306,55.7307515 C29.6465548,56.1680463 29.5510036,56.6216886 29.5225965,57.0787366 C29.4948351,57.5357846 29.533572,57.9969195 29.6459091,58.4485183 C29.9325625,59.6016961 30.2857143,61.5129877 30.3212231,64.0189186 C30.3554408,66.5241683 29.7343585,70.0170776 29.7343585,74.4717631 C29.7343585,78.9264486 27.7109989,80.6218174 27.465665,79.7996759 C27.2196854,78.9775344 27.3287945,76.2693036 27.3287945,73.8137774 C27.3287945,72.1831174 26.2861251,68.1868422 25.8006221,65.500408 C25.3151191,62.8132927 24.7372931,60.1214094 24.3699378,58.4675904 C24.2466252,57.9124575 24.1536565,57.353919 24.092323,56.7919747 C24.0309896,56.2293493 24,55.6639993 24,55.0945625 L24,50.0472812 L24,45 L29.4993544,45 L35,45 Z" id="Fill-17" fill="#333333"></path>
                        <path d="M10,45 L12.5973119,50.3653757 L15.1952694,55.7307515 C15.3534452,56.1680463 15.449642,56.6216886 15.4774035,57.0787366 C15.5058105,57.5357846 15.466428,57.9969195 15.3540909,58.4485183 C15.0674375,59.6016961 14.7142857,61.5129877 14.6794225,64.0189186 C14.6445592,66.5241683 15.2656415,70.0170776 15.2656415,74.4717631 C15.2656415,78.9264486 17.2890011,80.6218174 17.5349806,79.7996759 C17.7809602,78.9775344 17.6712055,76.2693036 17.6712055,73.8137774 C17.6712055,72.1831174 18.7138749,68.1868422 19.1993779,65.500408 C19.6848809,62.8132927 20.2627069,60.1214094 20.6300622,58.4675904 C20.7533748,57.9124575 20.8463435,57.353919 20.9083226,56.7919747 C20.9690104,56.2293493 21,55.6639993 21,55.0945625 L21,50.0472812 L21,45 L15.5006456,45 L10,45 Z" id="Fill-19" fill="#333333"></path>
                        <path d="M38,39.8722555 C38,30.8003992 31.2844211,17 23.0003386,17 C14.7155789,17 8,30.8003992 8,39.8722555 C8,48.9441118 14.7155789,52 23.0003386,52 C31.2844211,52 38,48.9441118 38,39.8722555" id="Fill-21" fill="#4C515B"></path>
                        <path d="M34.8574218,32.8347184 C32.9863964,33.5680762 34.2591565,37.026019 30.3925522,38.5803814 C28.5269717,39.330173 27.1160457,38.8652337 25.9535461,38.7727937 C23.9817889,38.6173574 22.0188797,38.6173574 20.0471225,38.7727937 C18.8839422,38.8652337 17.4736968,39.330173 15.6074358,38.5803814 C11.741512,37.026019 13.0142721,33.5680762 11.1425661,32.8347184 C9.91608819,32.3547148 16.8951695,31.7233835 20.8767987,32.1308045 C22.2938503,32.2759696 23.7068182,32.2759696 25.1238698,32.1308045 C29.105499,31.7233835 36.0838997,32.3547148 34.8574218,32.8347184" id="Fill-23" fill="#486B32"></path>
                        <path d="M3.001,28 L3,28 L3.001,28 Z" id="Fill-25" fill="#EC998D"></path>
                        <polyline id="Fill-27" fill="#EC998D" points="9 34 8.97474747 33.9857878 8 31"></polyline>
                        <path d="M23.0797079,45.9911333 C21.0539026,46.0899118 19.9264152,45.3554564 19.0988204,44.1835532 C18.8166085,43.7837353 18.3664296,42.8947285 17.877489,42.8362677 C15.0308892,42.4969265 5.22895689,40.6503726 4.3782411,39.1875094 C3.36975867,37.4518294 4.69717451,28.0047037 4.69649449,28 L12.1536882,31.9377023 L10.033359,36.771131 C10.1822853,36.7919619 18.4895147,40.3836033 19.1525426,40.7397436 C19.1525426,40.7397436 20.0052985,40.1497602 20.9620988,40.1497602 C22.6247687,40.1497602 23.0341459,40.6275258 22.5431653,40.9581315 C22.2901946,41.1288101 21.4483192,41.1079793 21.323194,41.1516568 C20.8777752,41.3055363 20.5228003,41.5212364 20.5330007,41.727529 C20.5996435,43.1077407 25.4931294,42.4821433 24.9593069,44.4079888 C24.8362217,44.8494684 24.6138524,45.9158734 23.0797079,45.9911333" id="Fill-29" fill="#EC998D"></path>
                        <path d="M22.9347375,45.9911333 C24.9590208,46.0899118 26.0856613,45.3554564 26.9126344,44.1835532 C27.1946342,43.7837353 27.644475,42.8947285 28.1330482,42.8362677 C30.9775095,42.4969265 40.7720783,40.6503726 41.622155,39.1875094 C42.6298798,37.4518294 41.3027817,28.0047037 41.3041407,28 L34.5089632,31.9377023 L35.9706059,36.771131 C35.822471,36.7919619 27.5208027,40.3836033 26.8589525,40.7397436 C26.8589525,40.7397436 24.9787269,40.5932557 23.9465394,40.931253 C23.644154,41.0300316 23.4355421,41.221541 23.3431276,41.4076747 C23.1202458,41.8518421 24.1667031,41.4540401 24.8224378,41.727529 C23.9247948,45.1780582 20.5224495,42.4821433 21.0565504,44.4079888 C21.1788636,44.8494684 21.4017454,45.9158734 22.9347375,45.9911333" id="Fill-31" fill="#EC998D"></path>
                        <path d="M4.00146896,28.5062038 C4.00146896,26.5711614 4.54915458,24.6114862 6.4321179,22.9323511 C7.14511721,22.1742086 8.00595805,21.4708056 9.06840095,20.891935 C12.4378435,19.056108 17.0424348,19.0020527 22.1402791,19.0006842 C22.1496872,19.0006842 22.1584233,19 22.1671593,19 C22.2793845,19 22.3882496,19.0006842 22.4991308,19.0006842 C22.6113559,19.0006842 22.719549,19 22.8317742,19 C22.8411823,19 22.8499183,19.0006842 22.8593264,19.0006842 C27.9564987,19.0020527 32.561762,19.056108 35.9312046,20.891935 C36.9936475,21.4708056 37.8538163,22.1735243 38.5668156,22.9323511 C40.4504509,24.6114862 40.9988086,26.5711614 40.9988086,28.5062038 C40.9988086,28.5924186 40.9880565,28.6622115 40.9860404,28.7443208 C41.0088887,31.0461181 41.2797074,31.9089499 37.8780085,32.7929933 C35.4607997,33.4211295 31.492599,33.7509351 27.5042381,33.8987319 C26.8355912,33.9267859 26.1521602,33.9452605 25.4586491,33.9596296 C24.7543859,33.9753672 24.0642348,33.9863151 23.3841638,33.9917891 C23.1960019,33.9924733 23.0212801,34 22.8317742,34 C22.7242531,34 22.6079959,33.9979473 22.4991308,33.9979473 C22.3909376,33.9979473 22.2746804,34 22.1671593,34 C21.9783254,34 21.8029316,33.9924733 21.6154417,33.9917891 C20.9353707,33.9863151 20.2458916,33.9753672 19.5416284,33.9596296 C18.8481173,33.9452605 18.1640143,33.9267859 17.4953674,33.8987319 C13.5070065,33.7509351 9.53813377,33.4211295 7.12159697,32.7929933 C3.71989807,31.9089499 3.99071685,31.0461181 4.01423709,28.7443208 C4.01154906,28.6622115 4.00146896,28.5924186 4.00146896,28.5062038" id="Fill-33" fill="#486B32"></path>
                        <path d="M14,28 L15.5217136,30.3229159 C16.4530244,31.7448574 17.2956716,33.2311078 18.1706225,34.6939732 C18.4620438,35.1805124 19.2229006,34.9596535 19.4648352,34.8843016 C20.571411,34.5413208 19.6187935,30.0007217 19.6187935,30.0007217 L14,28 Z" id="Fill-35" fill="#664926"></path>
                        <path d="M32,28 L30.4782423,30.3229159 C29.5469045,31.7448574 28.7042329,33.2311078 27.8292566,34.6939732 C27.5378269,35.1805124 26.776948,34.9596535 26.5356938,34.8843016 C25.4283985,34.5413208 26.3810436,30.0007217 26.3810436,30.0007217 L32,28 Z" id="Fill-37" fill="#664926"></path>
                        <path d="M31,24 C31,19.0288931 27.1940396,15 22.5,15 C17.805305,15 14,19.0288931 14,24 C14,28.9697561 17.805305,33 22.5,33 C27.1940396,33 31,28.9697561 31,24" id="Fill-39" fill="#EC998D"></path>
                        <path d="M24,32.7672756 C24,32.7672756 23.7382876,32 23.001077,32 C22.2627894,32 22,32.7672756 22,32.7672756 C22,32.7672756 22.4480345,34 23.0005385,34 C23.552504,34 24,32.7672756 24,32.7672756" id="Fill-41" fill="#EC998D"></path>
                        <path d="M32.9746641,23.0959497 C32.941796,24.4985948 32.6747424,25.8704502 32.1748728,27.0678303 C32.1159841,27.2094632 32.0420308,27.3579383 31.9578062,27.5091503 C30.9204056,29.3729579 28.9825551,30.5559693 26.8728316,30.8789198 C26.0093583,31.0102895 25.1417764,31.0609216 24.5371397,30.8960253 L22.5,30.3411251 L20.4635451,30.8960253 C19.8582236,31.0609216 18.989957,31.0102895 18.1271684,30.8789198 C16.0174449,30.5559693 14.0795944,29.3729579 13.0421938,27.5091503 C12.9579692,27.3579383 12.8840159,27.2094632 12.8244424,27.0678303 C12.3252576,25.8704502 12.0575192,24.4985948 12.0246511,23.0959497 C12.0225968,23.0070014 12,22.9228427 12,22.8332103 C12,21.3381958 12.293759,19.9136557 12.8244424,18.6163799 C13.3564954,17.3211568 14.1254728,16.1538824 15.075225,15.1733992 C16.0249772,14.192916 17.1561889,13.3999083 18.4127103,12.8511661 C19.6692318,12.3037924 21.0503782,12 22.5,12 C23.9496218,12 25.3307682,12.3037924 26.5872897,12.8511661 C27.8431264,13.3999083 28.9743381,14.192916 29.924775,15.1733992 C30.8752119,16.1538824 31.6435046,17.3211568 32.1748728,18.6163799 C32.7055563,19.9136557 33,21.3381958 33,22.8332103 C33,22.9228427 32.9767184,23.0070014 32.9746641,23.0959497" id="Fill-43" fill="#664926"></path>
                        <path d="M20.0090802,44.6738978 C20.0090802,44.6738978 20.4821963,42.3505948 20.4870954,42.3261022 C20.7222537,41.1322603 21.0805902,41 21.8126605,41 L21.8224587,41 L24.1775413,41 L24.1866397,41 C24.9194098,41 25.2777463,41.1322603 25.5129046,42.3261022 C25.5178037,42.349895 25.9909198,44.6738978 25.9909198,44.6738978 C26.0868028,45.6787964 25.4079232,45.9923023 24.6821518,45.9979006 L24.6737533,46 L24.6639551,46 L21.3360449,46 L21.3262467,46 C21.3227473,46 21.3213475,45.9979006 21.3178482,45.9979006 C20.5920768,45.9923023 19.9131972,45.6787964 20.0090802,44.6738978" id="Fill-45" fill="#D7D2CE"></path>
                        <path d="M24.2626031,42 L21.6345225,42 C21.5150642,42 21.4134632,42.1033842 21.3980691,42.2417255 L21.0021329,45.6846411 C20.9830442,45.8519896 21.0944975,46 21.2398178,46 L24.7613719,46 C24.9091553,46 25.0212243,45.8452956 24.9965938,45.6749721 L24.4984407,42.2320565 C24.479352,42.0981778 24.3789825,42 24.2626031,42" id="Fill-47" fill="#BEBBB9"></path>
                        <path d="M23.8497525,41.042719 C23.8497525,41.042719 22.7075658,41.8333928 23.071628,41.9350671 C23.2856904,41.9947085 23.4864715,42.0702542 24.1786585,41.8697457 C24.8700643,41.6698052 24.8411581,41.0995203 25.81772,41.5868753 C26.3091259,41.8328248 25.6513138,41.040447 25.6513138,41.040447 C25.6513138,41.040447 25.1786579,41.0103423 24.7138144,41.0012541 C24.3935021,40.995006 24.0060024,41.0126144 23.8497525,41.042719" id="Fill-49" fill="#EC998D"></path>
                    </g>
                </g>
            </g>
        </g>
    </g>
</svg>