<?xml version="1.0" encoding="UTF-8"?>
<svg width="60px" height="42px" viewBox="0 0 60 42" version="1.1" xmlns="http://www.w3.org/2000/svg" xmlns:xlink="http://www.w3.org/1999/xlink">
    <!-- Generator: Sketch 50.2 (55047) - http://www.bohemiancoding.com/sketch -->
    <title>woman-on-phone-01</title>
    <desc>Created with Sketch.</desc>
    <defs>
        <polygon id="path-1" points="0.259833754 20 36.3818687 20 36.3818687 0.219952522 0.259833754 0.219952522"></polygon>
        <polygon id="path-3" points="8.99325 0.680325565 8.99325 9.51783783 0.377066246 9.51783783 0.377066246 0.680325565 8.99325 0.680325565"></polygon>
    </defs>
    <g id="Page-1" stroke="none" stroke-width="1" fill="none" fill-rule="evenodd">
        <g id="01-Jobs-Copy" transform="translate(-10.000000, -541.000000)">
            <g id="01--Hero">
                <g id="illustration" transform="translate(10.000000, 370.000000)">
                    <g id="woman-on-phone-01" transform="translate(0.000000, 171.000000)">
                        <path d="M31.9832899,14.4520098 C35.612249,14.3388023 36.0519764,13.5274815 35.9956011,11.6603774 C35.9400312,9.79245283 35.4527874,9.00984413 31.823023,9.12305168 C30.0769992,9.17719442 25,9 25,9 L25.1795956,15 C25.1795956,15 30.2364607,14.5061526 31.9832899,14.4520098" id="Fill-1" fill="#EC998D"></path>
                        <path d="M22.0011832,12.120164 C22.0541099,13.8738209 23.8348903,14.6596036 26,15 L25.8176064,9 C23.6777387,9.47163363 21.9482565,10.3656869 22.0011832,12.120164" id="Fill-3" fill="#323E46"></path>
                        <path d="M32.9832899,31.4520848 C36.612249,31.3388927 37.0519764,30.5276828 36.9956011,28.6608339 C36.9400312,26.7931647 36.4527874,26.010663 32.823023,26.1238551 C31.0769992,26.1771702 26,26 26,26 L26.1795956,32 C26.1795956,32 31.2372661,31.5062201 32.9832899,31.4520848" id="Fill-5" fill="#EC998D"></path>
                        <path d="M22.0011832,29.1205577 C22.0541099,30.8739748 23.8348903,31.6604702 26,32 L25.8176064,26 C23.6777387,26.4723893 21.9482565,27.3663204 22.0011832,29.1205577" id="Fill-7" fill="#323E46"></path>
                        <path d="M40.9654727,2.0082987 C50.6256876,1.71358352 58.6961469,9.30506722 58.9916581,18.9658781 C59.2871694,28.6258989 51.694743,36.696196 42.0345281,36.9917013 C32.3735231,37.2864165 24.3030638,29.6949328 24.0083427,20.0341219 C23.7128315,10.3741011 31.3044677,2.303804 40.9654727,2.0082987" id="Fill-9" fill="#435D6E"></path>
                        <path d="M42,0 L39.6204102,2.53564837 L37.3342145,8.06325336 L29.3321373,9.55768223 C29.3321373,9.55768223 29.9929601,25.3897965 30.0219986,27.613234 C30.0376951,28.8597535 30.5470466,31.7796614 30.9010028,32.3583749 C31.2549589,32.9363137 32.5805286,34 32.5805286,34 C32.5805286,34 27.7334485,33.9403468 27.4265818,31.4976645 L26.622136,27.1181899 L23.2042225,8.01367147 C22.6313002,6.11174152 23.2748568,3.94408367 24.9959783,2.91913323 C25.1466648,2.82849135 25.2942119,2.7572174 25.4354804,2.70608608 L42,0 Z" id="Fill-11" fill="#DE877C"></path>
                        <g id="Group-15" transform="translate(8.000000, 22.000000)">
                            <mask id="mask-2" fill="white">
                                <use xlink:href="#path-1"></use>
                            </mask>
                            <g id="Clip-14"></g>
                            <path d="M33.8111396,15.1308462 L31.6751604,10.8323846 L22.2501812,13.8431538 C22.2501812,13.8431538 21.3005146,12.6831538 20.2383062,12.0000769 C17.0123687,9.92315385 10.8225771,6.94930769 8.26726458,5.26084615 C6.83120208,2.637 5.95013958,2.11007692 4.70138958,1.44546154 C3.45341042,0.780076923 1.92099375,0.0854615385 1.92022292,0.242384615 C1.91328542,1.47469231 2.39428542,1.68930769 3.30695208,2.18161538 C4.85863958,3.01623077 5.41826458,4.71853846 3.31388958,4.22623077 L3.31388958,4.22776923 C2.09057708,4.05238462 1.60803542,2.89315385 1.60803542,2.89315385 L1.46697292,0.783153846 C0.182764583,1.78238462 0.215139583,4.06930769 0.289139583,4.81853846 C0.39705625,5.91007692 1.01295208,6.647 2.37270208,7.73853846 C3.03176458,8.267 5.02436875,7.697 6.51207708,8.23084615 C8.00055625,8.76546154 19.0311812,19.5262308 19.3734312,19.6693077 C20.3362021,20.0739231 21.7807437,20.0062308 22.8244521,19.977 L36.3818687,19.4785385 L33.8111396,15.1308462 Z" id="Fill-13" fill="#EC998D" mask="url(#mask-2)"></path>
                        </g>
                        <path d="M42.5922546,0.00319062161 C48.3703191,-0.170103147 54.5933993,6.72201538 54.9813006,19.1471009 C55.3684087,31.5729634 49.6807752,41.8244943 43.9019175,41.9977881 C38.1230597,42.1710819 36.4564324,32.1394709 36.068531,19.7128312 C35.6814229,7.28774571 36.8133968,0.175707288 42.5922546,0.00319062161" id="Fill-16" fill="#8A5493"></path>
                        <path d="M37.2177803,6.16964576 C36.4819194,8.37711435 31.9510766,7.0396154 30.387559,11.6013996 C29.6330405,13.8033119 30.1882945,15.4313299 30.327108,16.7831166 C30.5621953,19.0763122 30.6278705,21.3647451 30.5248799,23.6682596 C30.4636825,25.0271903 30.0032098,26.6885465 30.8831083,28.8372763 C32.7055952,33.2887268 36.4296778,31.6821405 37.2916649,33.8380142 C37.8558746,35.2501273 38.3096305,27.0925744 37.7319873,22.4657012 C37.5267522,20.8194265 37.4797348,19.1723581 37.5901885,17.5149707 C37.9013994,12.8595218 37.699896,4.72419438 37.2177803,6.16964576" id="Fill-18" fill="#8A5493"></path>
                        <path d="M30.1871118,19 C30.1871118,19 30.9655633,19.3693427 30.9989255,20.4749461 C31.0322877,21.5821659 30.2776663,22 30.2776663,22 C30.2776663,22 29.0257892,21.3671875 29.0003704,20.5379849 C28.9757459,19.7103987 30.1871118,19 30.1871118,19" id="Fill-20" fill="#EC998D"></path>
                        <path d="M40.187955,10.0050317 C45.9844205,9.83154771 50.8226883,14.165563 50.9952584,19.6862087 C51.1678286,25.2068544 46.6085097,29.8215282 40.8120442,29.9950122 C35.0163667,30.1677251 30.1773109,25.8337098 30.0047408,20.3138352 C29.8321707,14.7939605 34.3922775,10.1785157 40.187955,10.0050317" id="Fill-22" fill="#EC998D"></path>
                        <path d="M41.8450537,8.04446911 C40.2309386,8.13056866 38.659404,8.48435954 37.2976176,9.0972318 C37.1367581,9.16924234 36.9688018,9.2592555 36.7969029,9.3602268 C34.6868042,10.6110185 33.3912541,12.866044 33.0939794,15.2885723 C32.9725462,16.2794998 32.9449477,17.2719928 33.156273,17.9576583 L33.8675245,20.2651263 L33.2997849,22.6117304 C33.1310401,23.3091368 33.2193552,24.2984989 33.4015049,25.2800338 C33.8470228,27.6790804 35.2789881,29.85192 37.4624198,30.9719969 C37.6398384,31.0635755 37.8125258,31.1426305 37.9781165,31.2052484 C39.3753867,31.7343692 40.9650574,31.9918852 42.5815381,31.9801443 C42.6840466,31.9793616 42.781824,32.0028433 42.8843325,31.9997124 C44.6072643,31.9472699 46.238727,31.5621701 47.7132728,30.9101617 C49.18703,30.2573706 50.5046589,29.3384535 51.6007116,28.2183767 C52.6959759,27.0990825 53.569664,25.7786285 54.1571167,24.3243288 C54.7445694,22.8692464 55.0449983,21.281101 54.9945325,19.6248587 C54.9432783,17.9686165 54.545072,16.4008219 53.8700928,14.9848757 C53.194325,13.5689294 52.2409957,12.303266 51.0779181,11.2528515 C49.9156291,10.2008715 48.5435919,9.36414041 47.0327738,8.80214516 C45.5203788,8.24014991 43.8684144,7.95367322 42.1462711,8.00611567 C42.042974,8.00924657 41.9467737,8.03820732 41.8450537,8.04446911" id="Fill-24" fill="#323E46"></path>
                        <g id="Group-28" transform="translate(51.000000, 13.000000)">
                            <mask id="mask-4" fill="white">
                                <use xlink:href="#path-3"></use>
                            </mask>
                            <g id="Clip-27"></g>
                            <path d="M2.453475,8.87784615 C0.418725,7.61323077 -0.231525,4.89707692 1.000725,2.81015385 C2.233725,0.722461538 4.882725,0.0563076923 6.917475,1.32015385 C8.952225,2.584 9.602475,5.30169231 8.369475,7.38784615 C7.137225,9.47476923 4.488225,10.1424615 2.453475,8.87784615" id="Fill-26" fill="#323E46" mask="url(#mask-4)"></path>
                        </g>
                        <path d="M30.1621052,30 L31.725834,32.1112099 L32,32.946195 C32,32.946195 31.4329139,33.1714111 31.1935768,32.7002957 C30.9551327,32.2291803 30.2826668,32.1801536 30.0745864,31.8836956 C29.8656129,31.5880037 30.1621052,30 30.1621052,30" id="Fill-29" fill="#DE877C"></path>
                        <path d="M8.08249313,25 C8.08249313,25 8.00641613,25.8 8,25.972 C8,25.972 8.85151237,25.399 9.51329056,25.485 L10,25.544 C10,25.544 9.74885426,25.172 9.66361137,25 L8.08249313,25 Z" id="Fill-31" fill="#040000"></path>
                        <path d="M7,25.5884491 L7.0886952,24.2119161 C7.17653756,24.1299138 7.22600219,24.0820023 7.31384455,24 L9.80328003,24.1676901 C9.91926606,24.1769038 10.0079613,24.2865474 9.99943288,24.4118543 L9.91159052,25.7874659 C9.90306213,25.9136942 9.80157435,26.0085958 9.68558832,25.999382 L7.19615285,25.8326133 C7.12025022,25.7367904 7.07590262,25.6833507 7,25.5884491" id="Fill-33" fill="#ECEBEA"></path>
                        <path d="M6.79761449,26.140174 C5.33930933,27.4093644 3.12840618,27.2554048 1.86000893,25.7978678 C0.590830165,24.3387677 0.744006912,22.1286259 2.20309358,20.8594355 C3.66061722,19.5910266 5.87152038,19.7442048 7.13991763,21.2025233 C8.40909639,22.6608418 8.25591965,24.8717652 6.79761449,26.140174" id="Fill-35" fill="#915C44"></path>
                        <g id="Group-39" transform="translate(0.000000, 19.000000)" fill="#ECEBEA">
                            <path d="M7.12939091,7.489125 C5.33593636,8.919375 2.61711818,8.746875 1.05766364,7.102125 C-0.503427273,5.458875 -0.314427273,2.967375 1.47902727,1.536375 C3.27248182,0.106125 5.99048182,0.279375 7.55075455,1.923375 C9.11102727,3.567375 8.92202727,6.058875 7.12939091,7.489125" id="Fill-37"></path>
                        </g>
                        <path d="M5.96914698,26.2628908 C4.71911592,27.3508153 2.82453758,27.2191648 1.73654758,25.9692091 C0.649280973,24.7192533 0.780939337,22.8240657 2.0309704,21.7368646 C3.28027807,20.6489401 5.17557981,20.7813139 6.26284641,22.0305464 C7.35083641,23.2805021 7.21917805,25.1756897 5.96914698,26.2628908" id="Fill-40" fill="#D8D8D8"></path>
                        <path d="M5.31291392,25.5086241 C4.47994738,26.233653 3.21621816,26.1463957 2.49114062,25.3126918 C1.76606309,24.4797811 1.85411955,23.2161366 2.68708608,22.4911077 C3.52084592,21.7660788 4.78378184,21.8541293 5.50885938,22.68704 C6.23393691,23.5207439 6.14588045,24.7835952 5.31291392,25.5086241" id="Fill-42" fill="#CCCCCC"></path>
                    </g>
                </g>
            </g>
        </g>
    </g>
</svg>