<?xml version="1.0" encoding="UTF-8"?>
<svg width="40px" height="41px" viewBox="0 0 40 41" version="1.1" xmlns="http://www.w3.org/2000/svg" xmlns:xlink="http://www.w3.org/1999/xlink">
    <!-- Generator: Sketch 50.2 (55047) - http://www.bohemiancoding.com/sketch -->
    <title>woman-01</title>
    <desc>Created with Sketch.</desc>
    <defs>
        <polygon id="path-1" points="0.43065 10 11.2927107 10 11.2927107 0.749846154 0.43065 0.749846154"></polygon>
    </defs>
    <g id="Page-1" stroke="none" stroke-width="1" fill="none" fill-rule="evenodd">
        <g id="01-Jobs-Copy" transform="translate(-962.000000, -370.000000)">
            <g id="01--Hero">
                <g id="illustration" transform="translate(10.000000, 370.000000)">
                    <g id="woman-01" transform="translate(952.000000, 0.000000)">
                        <path d="M20.2962341,27.8505045 C17.9061153,25.4603857 17.085168,25.671058 15.878113,26.878113 C14.671058,28.085168 14.4603857,28.9061153 16.8505045,31.2962341 C18.0005805,32.4463101 21.1209301,36 21.1209301,36 L25,32.1201804 C25,32.1201804 21.4463101,29.0005805 20.2962341,27.8505045" id="Fill-1" fill="#601B37"></path>
                        <path d="M25.403957,37.40382 C26.5176436,36.289432 25.9273087,34.6340432 24.8092056,33 L21,36.8083511 C22.634094,37.9278916 24.2902704,38.517472 25.403957,37.40382" id="Fill-3" fill="#601B37"></path>
                        <path d="M27.2962341,14.8505045 C24.9061153,12.4603857 24.085168,12.671058 22.878113,13.878113 C21.671058,15.085168 21.4603857,15.9061153 23.8505045,18.2962341 C25.0005805,19.4463101 28.1209301,23 28.1209301,23 L32,19.1201804 C32,19.1201804 28.4463101,16.0005805 27.2962341,14.8505045" id="Fill-5" fill="#601B37"></path>
                        <path d="M32.4036979,23.4041049 C33.5175052,22.2896448 32.9278425,20.6341489 31.8088822,19 L28,22.8085975 C29.6335349,23.9282103 31.2906268,24.5170928 32.4036979,23.4041049" id="Fill-7" fill="#601B37"></path>
                        <path d="M18.8081488,0.807764922 C19.8860644,-0.269382898 21.6326868,-0.269382898 22.7106024,0.808532669 L35.1918512,13.2897815 C36.268999,14.3669293 36.2697668,16.1143195 35.1918512,17.1922351 C34.1147034,18.2693829 32.3673132,18.2693829 31.2893976,17.1914673 L18.8081488,4.7102185 C17.731001,3.63307068 17.7302332,1.88568049 18.8081488,0.807764922" id="Fill-9" fill="#E1E2D9"></path>
                        <path d="M19.5731494,1.57314944 C20.3373487,0.808950187 21.5747665,0.808950187 22.3389658,1.57314944 L34.427413,13.6608467 C35.1908623,14.425046 35.1908623,15.6632138 34.427413,16.427413 C33.6632138,17.1908623 32.425046,17.1908623 31.6608467,16.427413 L19.5731494,4.33896577 C18.8089502,3.57476652 18.8089502,2.33734869 19.5731494,1.57314944" id="Fill-11" fill="#999995"></path>
                        <g id="Group-15" transform="translate(30.000000, 3.000000)" fill="#EC998D">
                            <path d="M2.72046154,0.10626 L0.312,6.40852667 C0.312,6.40852667 5.26892308,6.72532667 5.97815385,9.00012667 C6.16584615,9.59999333 6.49584615,10.5115267 6.85507692,10.1059933 C7.34584615,9.55086 6.91430769,9.20252667 7.21046154,8.90992667 C7.51430769,8.60999333 7.64892308,8.86006 7.63584615,9.09326 C7.59892308,9.71146 6.69815385,10.5291267 6.99353846,10.7117267 C7.242,10.8649933 8.25738462,9.83319333 8.932,8.80726 C9.54123077,7.88179333 9.82661538,6.90572667 9.242,6.34912667 L2.72046154,0.10626 Z" id="Fill-13"></path>
                        </g>
                        <g id="Group-18" transform="translate(2.000000, 31.000000)">
                            <mask id="mask-2" fill="white">
                                <use xlink:href="#path-1"></use>
                            </mask>
                            <g id="Clip-17"></g>
                            <path d="M0.43065,3.15907692 L6.87615,0.749846154 C6.87615,0.749846154 7.2009,5.70753846 9.5274,6.41676923 C10.1409,6.60446154 11.07315,6.93446154 10.6584,7.29369231 C10.09065,7.78446154 9.7344,7.35215385 9.4344,7.64907692 C9.12765,7.95292308 9.3834,8.08753846 9.6219,8.07446154 C10.25415,8.03830769 11.0904,7.13676923 11.27715,7.43215385 C11.4339,7.68061538 10.3794,8.69523077 9.33015,9.36984615 C8.3829,9.97984615 7.3854,10.2652308 6.8154,9.68061538 L0.43065,3.15907692 Z" id="Fill-16" fill="#EC998D" mask="url(#mask-2)"></path>
                        </g>
                        <path d="M1.7118269,33.7847933 C-2.19708676,29.8759221 0.697618172,18.8585641 9.27856739,10.2784666 C17.858758,1.6976106 28.8754771,-1.19706291 32.7843907,2.71180831 C36.6940629,6.62067953 30.6535663,14.4922799 22.0733756,23.0731359 C13.4924264,31.6532334 5.62074056,37.6936645 1.7118269,33.7847933" id="Fill-19" fill="#323E46"></path>
                        <path d="M12.2188983,32.4606391 C14.2274355,31.5341368 15.8984909,35.354105 20.077616,33.4706593 C22.09433,32.56289 22.8257884,31.0431764 23.6531393,30.0261314 C25.0565879,28.301916 26.573026,26.7096122 28.2150907,25.2359506 C29.1836784,24.3672083 30.6309848,23.5991558 31.4962465,21.4815478 C33.2892116,17.0933457 29.6512468,15.3379087 30.5336057,13.2296672 C31.1119335,11.8488899 25.2379658,16.9981196 22.4756696,20.555826 C21.4929583,21.8210832 20.4009741,22.9669175 19.1960005,23.9995734 C15.8085453,26.9000642 10.9031652,33.0671195 12.2188983,32.4606391" id="Fill-21" fill="#323E46"></path>
                        <path d="M7.36834362,25.6318964 C2.87684382,21.1410917 2.87759378,13.8596583 7.36834362,9.36810356 C11.8590935,4.87729881 19.1404378,4.87729881 23.6319376,9.36810356 C28.1226875,13.8596583 28.1226875,21.1410917 23.6319376,25.6318964 C19.1404378,30.1227012 11.8590935,30.1227012 7.36834362,25.6318964" id="Fill-23" fill="#323E46"></path>
                        <path d="M23.0402674,26.8785731 C23.0402674,26.8785731 22.8029365,26.1595132 23.4806249,25.4817626 C24.1590134,24.8033118 24.8780072,25.0399644 24.8780072,25.0399644 C24.8780072,25.0399644 25.2350537,26.2197266 24.7274875,26.7266393 C24.2199213,27.2349523 23.0402674,26.8785731 23.0402674,26.8785731" id="Fill-25" fill="#EC998D"></path>
                        <path d="M10.0253134,25.9747577 C6.06732444,22.0168619 5.98214098,15.6860538 9.83365061,11.8338741 C13.6859208,7.98169454 20.0168778,8.06763655 23.9741062,12.0255324 C27.9320952,15.9834283 28.0187998,22.3142364 24.165769,26.166416 C20.3142594,30.0178351 13.9833024,29.9326536 10.0253134,25.9747577" id="Fill-27" fill="#EC998D"></path>
                        <path d="M7.79685152,26.093882 C8.91405654,27.1606131 10.1902166,28.0209288 11.511577,28.5640878 C11.6675187,28.6281218 11.8400338,28.6861291 12.0230957,28.738863 C14.2816127,29.3829697 16.7111381,28.7968702 18.6035312,27.4062024 C19.3772126,26.8374298 20.0913801,26.2023631 20.433397,25.6034569 L21.5860091,23.5860091 L23.6027035,22.4341504 C24.2016098,22.0921335 24.8374297,21.3772127 25.4062024,20.6035312 C26.7968702,18.7111381 27.3829697,16.282366 26.738863,14.0238491 C26.6868824,13.8400338 26.6288752,13.6675187 26.5648411,13.5115771 C26.0209288,12.1902166 25.1606131,10.9140566 24.093882,9.79609822 C24.0268346,9.72528415 23.9786208,9.64241662 23.9100667,9.57235589 C22.7454012,8.40844371 21.4074672,7.5270345 19.985159,6.9311416 C18.5628508,6.33600204 17.0561684,6.02487212 15.5532526,6.00151855 C14.0510903,5.97741163 12.5542013,6.24032771 11.1499733,6.79026679 C9.7449919,7.34095922 8.43493153,8.17942799 7.30717973,9.30717978 C6.17942794,10.4349316 5.34095917,11.7457453 4.79102008,13.14922 C4.24032765,14.5542013 3.97741157,16.0510903 4.00151849,17.5532527 C4.02562541,19.055415 4.33600199,20.5620975 4.93189489,21.9844057 C5.52778779,23.4074672 6.40844366,24.7454012 7.57310918,25.9100667 C7.64166323,25.9793741 7.72603745,26.0268346 7.79685152,26.093882" id="Fill-29" fill="#351E1B"></path>
                        <path d="M5.0248913,10.9746077 C3.65836957,9.60741798 3.65836957,7.39191632 5.0248913,6.0247266 C6.39141304,4.65829769 8.60782609,4.65829769 9.9751087,6.02548742 C11.3416304,7.39191632 11.3416304,9.6081788 9.9751087,10.9746077 C8.60782609,12.3417974 6.39141304,12.3417974 5.0248913,10.9746077" id="Fill-31" fill="#351E1B"></path>
                        <polygon id="Fill-33" fill="#351E1B" points="17 29 13 28.5158319 14.0795316 28"></polygon>
                        <polygon id="Fill-35" fill="#351E1B" points="28 19 27.5155351 15 27 16.0795316"></polygon>
                        <path d="M19,2.10742152 L19.5537108,1.55371076 L20.1074215,1 L23.383415,5.27699147 C25.7841136,8.41262929 28.5881419,11.2166576 31.7237797,13.6173562 L36,16.8933497 L35.4470604,17.4470604 L34.8933497,18 L30.6163582,14.7240065 C27.4807204,12.3233079 24.6766921,9.51927962 22.2759935,6.38441299 L19,2.10742152 Z" id="Fill-37" fill="#E1E2D9"></path>
                    </g>
                </g>
            </g>
        </g>
    </g>
</svg>